<svg width="26" height="14" viewBox="0 0 26 14" fill="none" xmlns="http://www.w3.org/2000/svg">
<path d="M1.91667 13.0487C1.51528 13.0487 1.17906 12.9519 0.908005 12.7584C0.636949 12.5648 0.500949 12.3255 0.500005 12.0406C0.49906 11.7556 0.635061 11.5163 0.908005 11.3228C1.18095 11.1292 1.51717 11.0324 1.91667 11.0324H24.5833C24.9847 11.0324 25.3214 11.1292 25.5934 11.3228C25.8654 11.5163 26.001 11.7556 26 12.0406C25.9991 12.3255 25.8631 12.5651 25.592 12.7594C25.321 12.9536 24.9847 13.05 24.5833 13.0487H1.91667ZM1.91667 8.00806C1.51528 8.00806 1.17906 7.91128 0.908005 7.71772C0.636949 7.52416 0.500949 7.2849 0.500005 6.99993C0.49906 6.71497 0.635061 6.47571 0.908005 6.28215C1.18095 6.08859 1.51717 5.99181 1.91667 5.99181H24.5833C24.9847 5.99181 25.3214 6.08859 25.5934 6.28215C25.8654 6.47571 26.001 6.71497 26 6.99993C25.9991 7.2849 25.8631 7.52449 25.592 7.71873C25.321 7.91296 24.9847 8.0094 24.5833 8.00806H1.91667ZM1.91667 2.96743C1.51528 2.96743 1.17906 2.87064 0.908005 2.67708C0.636949 2.48352 0.500949 2.24426 0.500005 1.9593C0.49906 1.67433 0.635061 1.43507 0.908005 1.24151C1.18095 1.04795 1.51717 0.951172 1.91667 0.951172H24.5833C24.9847 0.951172 25.3214 1.04795 25.5934 1.24151C25.8654 1.43507 26.001 1.67433 26 1.9593C25.9991 2.24426 25.8631 2.48386 25.592 2.67809C25.321 2.87232 24.9847 2.96877 24.5833 2.96743H1.91667Z" fill="#00247D"/>
</svg>
