<svg width="26" height="20" viewBox="0 0 26 20" fill="none" xmlns="http://www.w3.org/2000/svg">
<path d="M1.66667 19.2936C1.26528 19.2936 0.929061 19.1456 0.658005 18.8495C0.386949 18.5535 0.250949 18.1875 0.250005 17.7516C0.24906 17.3158 0.385061 16.9498 0.658005 16.6538C0.93095 16.3577 1.26717 16.2097 1.66667 16.2097H24.3333C24.7347 16.2097 25.0714 16.3577 25.3434 16.6538C25.6154 16.9498 25.751 17.3158 25.75 17.7516C25.7491 18.1875 25.6131 18.554 25.342 18.8511C25.071 19.1482 24.7347 19.2957 24.3333 19.2936H1.66667ZM1.66667 11.5837C1.26528 11.5837 0.929061 11.4357 0.658005 11.1397C0.386949 10.8436 0.250949 10.4776 0.250005 10.0418C0.24906 9.6059 0.385061 9.23994 0.658005 8.94388C0.93095 8.64782 1.26717 8.49979 1.66667 8.49979H24.3333C24.7347 8.49979 25.0714 8.64782 25.3434 8.94388C25.6154 9.23994 25.751 9.6059 25.75 10.0418C25.7491 10.4776 25.6131 10.8441 25.342 11.1412C25.071 11.4383 24.7347 11.5858 24.3333 11.5837H1.66667ZM1.66667 3.87387C1.26528 3.87387 0.929061 3.72584 0.658005 3.42978C0.386949 3.13372 0.250949 2.76776 0.250005 2.33189C0.24906 1.89603 0.385061 1.53007 0.658005 1.23401C0.93095 0.937947 1.26717 0.789917 1.66667 0.789917H24.3333C24.7347 0.789917 25.0714 0.937947 25.3434 1.23401C25.6154 1.53007 25.751 1.89603 25.75 2.33189C25.7491 2.76776 25.6131 3.13423 25.342 3.43132C25.071 3.72841 24.7347 3.87592 24.3333 3.87387H1.66667Z" fill="white"/>
</svg>
