<svg width="702" height="110" viewBox="0 0 702 110" fill="none" xmlns="http://www.w3.org/2000/svg">
<path d="M261.894 65.8928H246.357L241.616 74.1642H233.264L255.375 36.6808H264.484L270.812 74.1642H263.171L261.894 65.8928ZM260.928 59.6105L258.602 44.5335L249.959 59.6105H260.928Z" fill="#314385"/>
<path d="M306.991 74.1642H299.506L288.919 48.9833L283.412 74.1642H275.926L284.133 36.6808H291.618L302.232 61.7569L307.712 36.6808H315.197L306.991 74.1642Z" fill="#314385"/>
<path d="M316.42 62.0884L324.079 61.7045C324.189 64.0342 324.608 65.6047 325.338 66.416C326.514 67.7423 328.684 68.4055 331.857 68.4055C334.492 68.4055 336.407 67.9517 337.583 67.0444C338.759 66.1368 339.343 65.0462 339.343 63.7638C339.343 62.6556 338.86 61.7133 337.902 60.9454C337.227 60.3782 335.367 59.4622 332.331 58.2058C329.295 56.9406 327.079 55.8848 325.684 55.0386C324.28 54.1922 323.186 53.0927 322.384 51.7404C321.581 50.3879 321.18 48.8087 321.18 47.0026C321.18 43.8354 322.374 41.2092 324.763 39.1239C327.143 37.0385 330.599 36 335.13 36C339.726 36 343.282 37.0298 345.798 39.0976C348.324 41.1654 349.71 43.9138 349.956 47.3429L342.243 47.6745C342.051 45.8857 341.367 44.5158 340.209 43.5562C339.06 42.6051 337.346 42.1252 335.085 42.1252C332.86 42.1252 331.273 42.5004 330.325 43.2507C329.368 44.0012 328.894 44.9521 328.894 46.0953C328.894 47.1771 329.331 48.0584 330.198 48.7651C331.073 49.4806 333.006 50.4578 335.988 51.7054C340.492 53.5726 343.355 55.0822 344.586 56.2426C346.418 57.9526 347.33 60.1428 347.33 62.8302C347.33 66.1456 345.963 68.9727 343.227 71.3197C340.492 73.6667 336.689 74.8447 331.812 74.8447C328.447 74.8447 325.529 74.3035 323.058 73.2217C320.596 72.1398 318.855 70.639 317.833 68.7195C316.822 66.7999 316.347 64.5839 316.42 62.0884Z" fill="#314385"/>
<path d="M378.677 57.4118H363.478L359.812 74.1642H351.761L359.967 36.6808H368.009L364.845 51.1298H380.054L383.218 36.6808H391.26L383.063 74.1642H375.011L378.677 57.4118Z" fill="#314385"/>
<path d="M391.214 74.1642L399.42 36.6808H428.416L427.048 42.963H406.086L404.162 51.4438H424.477L423.109 57.726H402.73L400.414 67.8819H423.164L421.796 74.1642H391.214Z" fill="#314385"/>
<path d="M435.92 74.1642H427.869L436.075 36.6808H453.454C456.444 36.6808 458.769 36.9775 460.438 37.562C462.098 38.1553 463.438 39.2287 464.468 40.7991C465.489 42.3695 466 44.263 466 46.4966C466 49.69 465.006 52.3163 463.009 54.3841C461.022 56.4609 458.004 57.7433 453.964 58.2319C454.995 59.1219 455.961 60.2912 456.873 61.7394C458.669 64.6712 460.675 68.8155 462.881 74.1642H454.238C453.545 72.0526 452.177 68.7632 450.144 64.2873C449.041 61.8704 447.864 60.2389 446.615 59.4099C445.849 58.9126 444.509 58.6682 442.603 58.6682H439.312L435.92 74.1642ZM440.533 53.0666H444.81C449.141 53.0666 452.013 52.8224 453.426 52.3251C454.849 51.8277 455.952 51.0511 456.754 49.9868C457.557 48.931 457.958 47.8141 457.958 46.6536C457.958 45.2837 457.383 44.263 456.226 43.5736C455.514 43.1636 453.974 42.963 451.603 42.963H442.74L440.533 53.0666Z" fill="#314385"/>
<path fill-rule="evenodd" clip-rule="evenodd" d="M179.408 40.7634L179.733 41.0272L180.058 41.291L180.384 41.5547L180.71 41.8185L180.97 42.1482L181.23 42.478L181.556 42.8078L181.621 42.8738H181.686H181.816L182.858 38.3231L182.923 38.1253V38.0593V37.9933L181.621 37.2681L180.384 36.6085L179.408 36.081V37.6638L179.668 37.7296L179.928 37.8616L180.189 37.9276L180.449 37.9933L180.644 38.1253L180.84 38.2573L180.97 38.3231L181.165 38.4551L181.295 38.5871L181.426 38.7189H181.491V38.7849V38.8509L181.426 38.9169L181.36 38.9826L181.295 39.0486H181.23H181.165L181.035 39.1146L180.84 39.2464L180.71 39.3124V39.3784L180.644 39.4444L180.449 39.5104L180.319 39.5762H180.254H180.189H180.123L179.993 39.6421H179.798L179.538 39.5762L179.408 39.5104V40.7634ZM167.559 33.3769H168.014L169.642 33.5749L171.335 33.8387H171.725L171.79 34.1684L171.855 34.3002V34.4982L171.92 34.762V35.0917V35.2895V35.4215V35.7512L171.888 35.883L171.855 36.015L171.836 36.112L171.877 36.1254L172.073 36.3236L172.202 36.3897L172.657 36.8514L172.788 36.9166L172.853 36.9824L173.05 37.1157L173.113 37.1139L173.18 37.1814L173.244 37.1799L173.31 37.2474L173.373 37.2451L173.57 37.3121L174.026 36.8517L174.155 36.5887L174.156 36.3262L173.895 36.0599L173.765 36.0601L173.637 35.9941L173.177 35.9934L172.31 36.0797L171.877 36.1256L171.836 36.112L171.79 36.3448L171.725 36.6745L171.66 36.8723L171.595 37.136V37.2681L171.53 37.3998L171.465 37.5318L171.4 37.5978H171.335L171.53 37.8616L171.66 38.1253L171.855 38.3231L172.051 38.5211L172.246 38.7189L172.442 38.8509L172.702 38.9826L172.962 39.1146L173.157 39.1806L173.483 39.2464L173.744 39.3124H174.069H174.394L174.72 39.2464L175.111 39.1806L175.501 39.1146H175.631H175.827L176.282 39.2464L176.673 39.3784L177.129 39.5762L177.519 39.7082L177.91 39.9059L178.301 40.1039L178.691 40.3017L179.082 40.5654L179.408 40.7634V39.5104H179.342L179.147 39.3784L178.887 39.2464L178.756 39.1146L178.691 39.0486H178.626L178.431 38.7849L178.171 38.5211L178.04 38.3891L177.91 38.2573L177.65 37.9276L177.519 37.7296L177.454 37.5978L177.389 37.5318V37.4658L177.324 37.3998V37.3341V37.2021L177.715 37.2681L178.105 37.3341L178.431 37.3998L178.756 37.4658L179.082 37.5318L179.408 37.6638V36.081L179.147 35.883L177.91 35.1577L176.738 34.4322L175.566 33.6407L174.394 32.9154L173.222 32.0579L172.116 31.2666L171.009 30.4093L169.968 29.5518L168.86 28.6945L167.819 27.7712L167.559 27.5075V30.541L167.689 30.6071L168.079 30.7391L168.21 30.8048L168.47 30.9368L168.796 31.1346L169.186 31.3986L169.577 31.7284L169.902 32.0579L170.293 32.4536L170.488 32.6516L170.683 32.8494L167.559 31.9261V33.3769ZM160.918 40.1039L161.048 39.9719L161.178 39.9059V39.8401H161.243L161.634 39.4444L161.7 39.3784L161.764 39.3124L161.96 39.1146L162.285 38.7849L162.611 38.3891L162.936 38.0593L163.913 37.9933L164.043 37.8616L164.173 37.7296L164.238 37.5978L164.369 37.5318L164.434 37.3998L164.499 37.2681L164.629 37.136L164.694 37.0043V36.9383L164.759 36.8723L164.824 36.7405L164.889 36.4765L164.954 36.3448V36.2128L165.019 36.015V35.949V35.883V35.5532V35.2895V34.8937L164.954 34.564L164.889 34.2344L164.824 34.0364V33.9704L164.759 33.9047V33.8387L164.629 33.4429L164.499 33.0471H164.629L167.559 33.3769V31.9261L167.493 31.9921L167.363 32.0579L167.168 32.1899L166.973 32.3219L166.777 32.3876H166.712H166.582H166.387H166.191L166.061 32.3219L165.801 32.2559L165.606 32.1239L165.54 32.0579L165.475 31.9921H165.41L165.215 31.7941L165.019 31.5964L164.824 31.3986L164.629 31.0688L164.434 30.8048L164.824 30.6071L165.28 30.4753L165.671 30.4093H165.866H166.061L166.452 30.3433L166.908 30.4093H167.038L167.298 30.4753L167.559 30.541V27.5075L166.843 26.8479L165.801 25.9246L164.889 24.9353L164.694 24.8036L164.564 24.6716L164.238 24.4078L164.043 24.2758L163.848 24.1441L163.652 24.0121L163.457 23.946L163.067 23.7483L162.611 23.6163L162.35 23.5505H162.155L161.7 23.4185L160.918 23.3525V24.6056L161.243 24.7376L161.439 24.8036L161.7 24.9353L162.155 25.1991L162.35 25.3311L162.611 25.4631L163.067 25.7929L163.197 25.9246L163.457 26.1224L163.782 26.5182L163.978 26.7162L164.173 26.9139L164.304 27.1777L164.499 27.4414H164.304L163.978 27.3097L163.652 27.1777L163.327 27.0459L163.001 26.9799L162.741 26.9139H162.415H161.895H161.569H161.309L161.113 26.9799L160.918 27.0459V29.7498L161.113 29.8158L161.243 29.9475L161.439 30.0795L161.569 30.2113L161.634 30.4093L161.7 30.6071V30.8708V31.1346L161.634 31.2006L161.504 31.2666L161.309 31.3986L161.113 31.4643L161.048 31.5964H160.983L160.918 31.6623V31.7284V31.7941H160.983L161.048 31.8601L161.113 31.9261H161.309H161.374L161.504 31.9921H161.634H161.764H161.96H162.09H162.285H162.48H162.676H162.871L163.067 31.9261H163.327H163.587H163.848L163.652 32.0579L163.522 32.2559L163.327 32.3876L163.132 32.5196L162.936 32.6516L162.871 32.7174H162.806L162.676 32.7834L162.48 32.9154L162.22 32.9814H162.155L162.09 33.0471H161.96L161.7 33.1132L161.569 33.1792H161.504H161.439L161.113 33.2452H160.918V40.1039ZM154.994 43.9291L155.644 43.6651L156.296 43.4013L156.947 43.0715L157.338 42.8078L157.793 42.544L158.184 42.2142H158.249L158.314 42.1482L158.379 42.0823L158.64 41.9505L159.03 41.6867L159.421 41.423L159.811 41.0932L160.202 40.7634L160.527 40.4337L160.918 40.1699V40.1039V33.2452H160.788H160.527H160.202H160.007H159.876L159.681 32.9154L159.551 32.5856L159.29 32.0579L159.03 31.5303L158.9 31.3326L158.835 31.1346L158.64 30.7391L158.444 30.4093L158.249 30.0135L157.988 29.6838L158.444 29.6178L158.9 29.5518L159.29 29.486H159.681L160.007 29.5518H160.332L160.658 29.6178L160.853 29.6838L160.918 29.7498V27.0459H160.853L160.332 27.2437L160.137 27.3754L159.941 27.5734H159.876V27.6394L159.811 27.7052V27.7712L158.965 27.0459L158.574 26.6502L158.118 26.2544L157.338 25.4631L156.556 24.6716L156.491 24.6056V24.5398V24.4738V24.4078L157.142 24.2758H157.468H157.793L158.118 24.2101H158.444L159.03 24.2758L159.616 24.3418H159.876L160.137 24.4078L160.397 24.4738L160.723 24.5398L160.918 24.6056V23.3525L160.137 23.2868L159.355 23.2208H158.574L157.793 23.1548H156.947H156.166L155.319 23.2208H154.994V29.486L155.254 29.288L155.514 29.2223L155.71 29.1562L156.101 29.0242L156.426 28.9582H156.816L157.207 28.8925L157.272 29.0242L157.338 29.1562L157.403 29.42V29.6838V29.9475V30.0135L157.338 30.0795V30.2113L157.272 30.4753L157.142 30.6731L157.012 30.9368L156.816 31.2006L156.621 31.3986L156.556 31.5303H156.491V31.5964L156.426 31.6623L156.231 31.8601L155.775 32.3219L155.384 32.7834L154.994 33.2452V34.3002L155.189 34.4982L155.449 34.8937L155.644 35.2235L155.775 35.6192V35.7512V35.883V36.015L155.71 36.1468L155.579 36.2788H155.514L155.449 36.3448H155.384L155.319 36.4108H155.189H155.059H154.994V40.1699L155.189 40.3017L155.449 40.5654L155.775 40.7634L156.035 41.0272L156.231 41.357L156.751 42.1482H156.426L156.101 42.0823H155.71L155.384 42.0165L155.059 41.8845H154.994V43.9291ZM152.715 27.4414H152.585H152.39H152.259H152.194H152.129H152.064H151.999V27.5075V27.6394V27.8372V27.9692V28.167L152.064 28.299V28.4307L152.129 28.5627L152.194 28.6945L152.259 28.7605L152.39 28.8925L152.455 28.9582L152.585 29.0242L152.715 29.0903L152.845 29.2223H152.975L153.105 29.288V29.354V29.42V29.486H153.04L152.39 29.7498L151.738 29.9475L151.413 30.0135L151.088 30.0795L150.436 30.1455L150.111 30.2113H149.785H149.134H148.874L148.548 30.1455L148.223 30.0795H147.897H148.483L148.353 29.6838L148.223 29.42L148.028 29.0903L147.897 28.8265L147.702 28.4967L147.507 28.233L147.246 27.9692L147.051 27.7712L146.791 27.5075L146.53 27.3097L146.27 27.1117L145.944 26.9139L145.619 26.7162L145.293 26.5842L144.903 26.3864L144.577 26.2544H144.186H143.47L142.819 26.3204L141.452 26.4521L140.801 26.5182L140.15 26.6502L139.499 26.7162L138.848 26.9139L138.327 27.2437L137.806 27.5734L137.546 27.7052H137.481L137.416 27.7712L137.286 27.8372L136.765 28.167H137.872L138.913 28.299L139.955 28.3647L140.475 28.4307L140.997 28.4967L141.517 28.5627L141.973 28.6945L142.494 28.7605L142.949 28.8925L143.405 29.0242L143.861 29.1562L144.772 29.42L144.838 29.486V29.5518L144.903 29.6178V29.6838V29.8158V29.8815V30.0795L144.838 30.1455L144.707 30.2773L144.642 30.4093L144.577 30.4753L144.512 30.541L144.447 30.6731L144.382 30.7391V30.8708V30.9368L144.317 31.0028V31.0688L144.382 31.1346V31.2006L144.447 31.2666L144.512 31.3326L144.577 31.3986H144.642L144.772 31.4643H144.838H144.968L145.098 31.5303H145.228H145.359H145.684H145.814H146.009H146.205L146.4 31.4643H146.856H146.921H147.051L147.246 31.5303L147.572 31.5964L148.288 32.3876L148.678 32.7834L149.004 33.1792L149.785 33.9047L149.915 34.0364L150.111 34.2344L150.502 34.564L152.519 36.081H151.999H151.608L151.152 36.015H150.762L150.306 35.949L149.915 35.883L149.525 35.817L149.134 35.7512L148.744 35.6192L148.418 35.4875L148.028 35.3555L147.702 35.2235L147.377 35.0917L147.051 34.8937L146.726 34.696L146.465 34.4982L145.944 34.2344L145.489 33.9047L144.903 33.6407L144.642 33.5089L144.382 33.4429L143.796 33.1792L143.47 33.1132L143.21 32.9814L142.885 32.9154L142.559 32.8494L141.973 32.7174L141.712 32.7834H141.517L141.322 32.8494L141.192 32.9154L141.061 32.9814L140.931 33.1132L140.866 33.1792V33.2452L140.801 33.3109L140.866 33.3769V33.5089L140.931 33.5749L141.061 33.6407L141.192 33.7727L141.322 33.8387L141.517 33.9704L142.819 34.63L144.186 35.2235L144.838 35.5532L145.489 35.817L146.791 36.4108H146.986L147.181 36.4765V36.7405V36.8723L147.246 37.0043L147.311 37.136V37.2681L147.377 37.3341L147.442 37.4658L147.572 37.6638L147.702 37.7296L147.767 37.8616L147.963 37.9933L148.093 38.0593L148.223 38.1253L148.483 38.1914L148.809 38.3231L149.134 38.3891L149.395 38.5211L149.655 38.6529L149.85 38.8509L150.111 38.9826L150.306 39.1806L150.502 39.3784L150.697 39.5762L150.827 39.7742L151.022 39.9719L151.152 40.2357L151.218 40.4337L151.348 40.6974L151.478 41.0272H151.282L150.892 40.8952L150.632 40.8292L150.306 40.7634L149.981 40.8292L149.72 40.8952L149.46 40.9612L149.199 41.159L148.939 41.357L148.809 41.423L148.678 41.4887L148.483 41.6867L148.288 41.8185L148.158 41.9505L148.028 42.0165L147.963 42.0823H147.897V42.1482L148.158 42.3462L148.353 42.61L148.874 43.0055L149.134 43.1375L149.395 43.3353L149.655 43.4673L149.915 43.6651L150.176 43.7971L150.436 43.8631L150.957 44.0608L151.218 44.1928H151.478L151.738 44.2586L152.064 44.3246H152.585H153.171L153.496 44.2586H153.757L154.407 44.1268L154.994 43.9291V41.8845L154.798 41.8185L154.473 41.6867L154.147 41.6207L153.822 41.423L153.561 41.291L153.236 41.0932L152.975 40.8952L152.65 40.6974L152.39 40.4994L152.129 40.2357L151.869 39.9719L151.478 39.5762L151.152 39.1806L150.827 38.7849L150.502 38.3231L150.957 38.4551L151.478 38.5871L151.869 38.7189L152.325 38.8509L152.715 38.9826L153.105 39.1146L153.496 39.3124L153.887 39.5104L154.212 39.6421L154.538 39.8401L154.864 40.1039L154.994 40.1699V36.4108H154.929L154.668 36.4765L154.473 36.4108H154.277L154.082 36.3448H153.952L153.757 36.2128L153.561 36.015L153.366 35.883L153.236 35.6853L153.171 35.5532L153.105 35.4875L152.975 35.2235L152.845 34.9597L152.78 34.828L152.715 34.696L152.65 34.3662V34.1025L152.585 33.8387V33.5089L152.65 33.1132L152.715 32.7174L152.78 32.3876L152.91 31.9921L152.975 31.7284L153.105 31.5303L153.431 31.0028L153.757 30.541L153.887 30.3433L154.147 30.1455L154.277 29.9475L154.473 29.8158L154.864 29.5518L154.994 29.486V23.2208L154.473 23.2868L153.627 23.3525L152.78 23.4185L151.869 23.4845L151.022 23.6163L150.111 23.7483L149.199 23.8803L148.288 24.0121H148.093L147.897 24.0781H147.702L147.572 24.1441L147.377 24.2101L147.311 24.2758L147.116 24.4078L146.986 24.4738V24.6056L146.921 24.6716V24.8036L146.856 24.8693L146.921 25.0014V25.1334L146.986 25.2651L147.051 25.3971L147.181 25.5289H147.377L147.572 25.4631L148.028 25.3971L148.483 25.3311L149.004 25.2651H149.46H149.915H150.371L150.762 25.3311L151.218 25.3971L151.608 25.4631L151.999 25.5949L152.39 25.7269L152.78 25.8586L153.171 25.9906L153.561 26.1884L153.887 26.3864L154.212 26.6502L154.277 26.8479V26.9139L154.342 26.9799V27.1117L154.407 27.2437L154.473 27.3097L154.538 27.4414V27.5075V27.5734L154.603 27.6394V27.7052V27.7712V27.8372V27.9032V27.9692H154.538V28.035H154.473H154.407H154.342H154.277H154.212H154.147H154.082H154.017L153.952 27.9692H153.887H153.822L153.757 27.9032H153.692L153.627 27.8372H153.561L153.431 27.7712L153.366 27.7052L153.171 27.6394H153.105L153.04 27.5734L152.91 27.5075L152.715 27.4414ZM154.994 33.2452V34.3002L154.929 34.2344L154.603 33.8387L154.994 33.3109V33.2452Z" fill="#314385"/>
<path fill-rule="evenodd" clip-rule="evenodd" d="M141.974 30.8048H142.495L142.104 30.6071L141.648 30.4093L141.192 30.2113L140.802 30.0796L140.281 29.9476L140.086 29.8815H139.825L139.37 29.8158L138.913 29.7498H138.458H137.937H137.676L137.481 29.8158L136.961 29.8815L136.44 30.0136L135.919 30.0796L135.398 30.2773L134.877 30.4093H134.682L134.552 30.3433L134.161 30.2113L133.836 30.0796L133.51 29.9476L133.12 29.8815L132.729 29.7498H132.404L132.013 29.6838H131.622L131.167 29.6178L130.776 29.6838H130.385H129.93L129.474 29.7498L129.083 29.8815L128.627 29.9476L128.171 30.0796V30.1456V30.2113L128.237 30.2773V30.4093L128.497 30.6731L128.693 31.0028L128.953 31.3326L129.279 31.5964L129.539 31.8601L129.864 32.1239L130.125 32.3876L130.516 32.5857L130.841 32.7834L131.231 32.9814L131.622 33.1792L132.013 33.3109L132.404 33.443L132.859 33.5749L133.25 33.7067L133.771 33.8387H133.836V33.7727H133.901H133.966L134.031 33.7067L134.161 33.5749L134.291 33.443L134.357 33.3109L134.422 33.1792V32.9814V32.8494L134.357 32.7174L134.291 32.5857L134.226 32.4537L134.096 32.3219L133.901 32.1899L133.705 32.0579L133.51 31.9261L133.25 31.7941L132.924 31.6624L132.664 31.5964L132.599 31.4644V31.3326V31.2666V31.2006L132.664 31.0689H132.729L132.859 31.0028H132.924H133.12H133.25H133.445L133.64 31.0689L133.836 31.1346L134.096 31.2006L134.422 31.2666L134.682 31.3326L135.007 31.4644L135.268 31.5304L135.854 31.6624L136.375 31.7941L136.7 31.8601H136.961L137.221 31.9261H137.351H137.481L137.676 31.9921H137.937H138.198H138.328H138.458H138.653H138.913L139.109 31.9261H139.37L139.565 31.8601H139.63H139.695H139.76H139.825L139.89 31.7941H139.955L140.216 31.7284L140.346 31.6624L140.607 31.5964L140.737 31.5304L140.932 31.4644L141.127 31.3326L141.323 31.2666L141.388 31.2006L141.453 31.1346L141.648 31.0689L141.713 31.0028L141.778 30.9369L141.974 30.8048Z" fill="#314385"/>
<path fill-rule="evenodd" clip-rule="evenodd" d="M162.35 57.0531L162.546 56.9211L163.522 56.3276L165.41 55.1406L167.298 53.8875L169.121 52.7002H169.512H170.423L171.4 52.7662L172.311 52.8322L173.288 52.8982L173.809 53.096L174.329 53.294L174.85 53.4918L175.371 53.6895L175.957 53.8215L176.543 53.9533L177.064 54.0853L177.715 54.2173V54.1513H177.78H177.845H177.91V54.0853L178.236 53.6895L178.561 53.294L178.887 52.8982L179.212 52.5025L179.538 52.1727L179.928 51.8429L180.254 51.5132L180.645 51.1834L180.71 50.7879V50.2601V49.9964V49.7326V49.4688V49.2051L180.58 48.8093L180.515 48.3476L180.449 48.1498L180.319 48.0178L180.124 47.688L180.059 47.5563L179.928 47.4243V47.2265L179.993 47.0288L180.124 46.7647L180.189 46.501L180.319 46.2372L180.384 46.0395L180.449 45.7757L180.515 45.5777L180.58 45.446L180.645 45.2479V45.1162L180.71 44.9842V44.8524V44.7864V44.6544V44.5884H180.645V44.5227H180.58H180.515H180.449L180.384 44.5884H180.319L180.254 44.6544L180.124 44.7864L180.059 44.8524L179.928 44.9842L179.798 45.1162L179.603 45.2479L179.473 45.446L179.343 45.5777L179.147 45.7757L179.017 46.0395L178.822 46.2372L178.691 47.0945L178.952 47.2925L179.147 47.4243L179.343 47.6223L179.473 47.82L179.603 48.0178L179.733 48.2158V48.4136L179.798 48.6116L179.733 48.8093V49.0731L179.668 49.2708L179.538 49.4688L179.408 49.7326L179.212 49.9304L179.017 50.1941L178.822 50.4581L178.691 50.5239L178.561 50.5899L178.496 50.6559L178.366 50.7219L178.236 50.7879L178.171 50.8536H178.041H177.976L177.845 50.7879H177.78L177.715 50.7219L177.585 50.6559L177.519 50.5899L177.455 50.4581L177.324 50.3921L177.259 50.2601L177.064 49.8646L176.869 49.4688L176.739 49.0731L176.608 48.7433L176.478 48.4136L176.348 48.0838L176.218 47.754L176.152 47.4903L176.087 47.1605V46.8968L176.022 46.633V46.3692L176.087 46.1712V45.9075L176.152 45.7097L176.218 45.5117L176.608 45.3799L176.804 45.314H176.934L177.259 45.1822L177.519 45.1162L177.585 45.0502L177.715 44.9842H177.78L177.845 44.9182L177.91 44.8524V44.7864V44.7204L177.845 44.6544L177.78 44.5884H177.715H177.585L177.519 44.5227L177.259 44.4567H176.934L176.804 44.3907H176.608H176.218H176.022L175.827 44.4567L175.176 44.5884L174.46 44.7204L173.744 44.9182L173.027 45.1162L172.246 45.3799L171.465 45.6437L170.619 45.9075L169.772 46.1712V46.2372H169.707L169.642 46.3032H169.577H169.512H169.447H169.382L169.316 46.2372H169.251L169.121 46.1712L169.056 46.1055H168.991L168.926 46.0395L168.731 45.9075L168.601 45.7757L168.21 45.5117L167.884 45.2479L167.624 45.0502L167.428 44.7864L167.233 44.5884L167.168 44.3907L167.103 44.1929V44.0609L167.168 43.9292L167.298 43.7971L167.428 43.6651L167.689 43.5334L167.949 43.4674L168.275 43.4014L168.666 43.2696H169.121V43.0716V43.0056L169.056 42.8738V42.7418L168.991 42.6761L168.926 42.6101L168.861 42.4781H168.796L168.666 42.4121H168.535L168.405 42.3463H168.275H168.145L168.014 42.4121H167.819L167.624 42.4781H167.428L167.298 42.5441L166.973 42.6101H166.712H166.582L166.452 42.6761H166.322H166.257L166.061 42.6101H165.931V42.5441H165.866L165.801 42.4781V42.3463V42.2803V42.2143L165.866 42.0823L165.997 41.9506L166.126 41.7526L166.191 41.6868L166.322 41.5548L166.517 41.357L166.582 41.291L166.647 41.2251L166.712 41.159L166.777 41.0933V41.0273L166.712 40.9613L166.647 40.8953H166.582H166.452L166.387 40.8293H166.257H166.126H165.931H165.801H165.476H165.215H165.02H164.954L164.694 40.7635L164.629 40.6975H164.564L164.434 40.6315H164.369L164.239 40.4995L164.174 40.3678L164.108 40.2358V40.17V40.104V39.972V39.906L164.174 39.7082L164.239 39.5105L164.369 39.2465L164.499 38.9827L164.629 38.719L164.564 38.6529L164.434 38.5872L164.239 38.5212H164.043H163.978L163.848 38.5872L163.718 38.6529H163.652L163.522 38.719L163.392 38.851L163.197 39.0487L162.937 39.2465L162.806 39.4445L162.676 39.5762L162.415 39.8402L162.35 39.906V48.1498L162.481 48.2158L163.327 48.8093L164.174 49.4688L165.02 50.1941L165.931 50.9197L165.606 50.8536H165.28L164.954 50.7879H164.694L164.434 50.8536L164.239 50.9197L163.978 50.9857L163.783 51.1177L163.587 51.2494L163.327 51.3814L163.132 51.5792L162.937 51.8429L162.676 52.1067L162.481 52.3707L162.35 52.6345V57.0531ZM154.603 62.1308L154.668 62.0648L154.994 61.9331L155.254 61.8011L155.84 61.4713L156.361 61.1415L156.882 60.8118L157.468 60.548L157.663 60.3502L157.858 60.2182H157.923L157.989 60.1525L158.053 60.0865L158.184 60.0205L158.509 59.7567L158.835 59.493L159.161 59.2292L159.486 59.0315L159.746 58.8997L160.007 58.7017L160.202 58.5699L160.398 58.3719L160.593 58.2402L160.723 58.1082L160.918 58.0422L161.048 57.9104L161.178 57.8444L161.244 57.7784L161.374 57.6467H161.439L161.504 57.5807L161.569 57.5147H161.635L162.35 57.0531V52.6345L162.285 52.7002L162.025 53.096L161.765 53.4918L161.504 53.8875L161.374 54.0853L161.244 54.349L160.983 54.8108L160.723 55.3383L160.398 55.8658L160.267 56.1296L160.137 56.3936L159.941 56.7234L159.811 57.0531L159.551 56.7891L159.356 56.5254L159.161 56.2616L159.03 55.9318L158.965 55.8001L158.9 55.6021L158.835 55.3383L158.77 55.0086V54.6128V54.415V54.283L158.835 53.8875L158.9 53.4918L159.03 53.096L159.161 52.7002L159.29 52.2387L159.551 51.7769L159.746 51.3154L159.941 50.9857L160.072 50.6559L160.202 50.3261L160.267 49.9964L160.332 49.6666V49.4029V49.0731V48.8093L160.267 48.4796L160.202 48.2158L160.072 47.952L159.941 47.688L159.746 47.4243L159.551 47.1605L159.29 46.8968L159.095 46.633V46.435L159.941 46.8308L160.723 47.2265L161.569 47.688L162.35 48.1498V39.906L162.09 40.17L161.96 40.3018L161.83 40.4338L161.635 40.5655L161.504 40.6975L161.244 40.9613L160.918 41.2251L160.723 41.357L160.593 41.4888L160.398 41.6208L160.267 41.7526L159.941 42.0166L159.616 42.2143L159.421 42.3463L159.29 42.4781L158.9 42.7418L158.574 42.9399L158.184 43.1376L158.053 43.2696L157.858 43.4014L157.468 43.5994L157.273 43.6651L157.142 43.7971L156.752 43.9949L156.361 44.1929L155.97 44.3907L155.579 44.5884L155.124 44.7204L154.733 44.9182L154.603 44.9842V47.754L154.733 47.688L154.994 47.5563L155.189 47.4903L155.319 47.4243L155.579 47.2265L155.905 47.0288L156.036 46.8968L156.166 46.8308L156.361 46.699L156.491 46.567H156.621L156.816 46.435H156.882L157.012 46.3692H157.077H157.207H157.338L157.468 46.435L157.598 46.501L157.663 46.633V46.699L157.728 46.7647L157.793 46.9627V47.0945L157.858 47.1605V47.2925V47.4243V47.754V48.0838H157.793L157.728 48.1498H157.598L157.468 48.2158L157.273 48.2818L157.142 48.3476L156.882 48.4136L156.621 48.4796L156.361 48.5456L156.036 48.6773L155.71 48.7433L155.319 48.8753L154.929 48.9411L154.603 49.0731V50.8536L157.989 50.9857V51.1834L157.663 51.3814L157.468 51.5132L156.947 51.8429L156.491 52.1067L156.231 52.2387L156.036 52.3047L155.775 52.4365L155.515 52.5025L155.319 52.5685L155.124 52.6345L154.668 52.7002H154.603V62.1308ZM149.2 53.6235L149.46 53.5577L149.916 53.4258L150.371 53.294L150.111 53.5577L149.85 53.8215L149.395 54.349L149.2 54.547V57.4486L149.395 57.2509L149.72 56.9211L149.981 56.6574L150.241 56.3936L150.502 56.1956L150.762 55.9979L151.023 55.8001L151.218 55.6681L151.413 55.5361L151.608 55.4043L151.804 55.2723L151.934 55.2063L152.064 55.1406H152.194H152.325H152.39H152.52L152.585 55.2063L152.65 55.2723L152.715 55.4043V55.5361V55.6681V55.7341V55.8001V55.9979V56.1296L152.65 56.3276L152.585 56.5254L152.455 56.8551L152.325 56.9871L152.26 57.1849L152.129 57.3827L151.999 57.5147L151.804 57.7124L151.673 57.9104L151.478 58.0422L151.283 58.2402L151.088 58.3719L150.893 58.5699L150.437 58.8997L149.916 59.2292L149.59 59.361L149.33 59.559L149.2 59.6247V64.4391L149.395 64.3732L149.72 64.2414L150.437 63.9774L151.088 63.7136L151.673 63.4499L151.804 63.3839L151.999 63.3179L152.325 63.1861L152.455 63.1201L152.585 63.0541L152.91 62.9223L153.496 62.6586L154.147 62.3946L154.603 62.1308V52.7002H154.473H154.278L153.822 52.6345H153.627L153.431 52.5685L153.041 52.4365L152.715 52.3047L152.325 52.041L152.194 51.909L151.999 51.7769L151.673 51.4472L151.348 51.1177L151.283 51.0517V50.9857V50.8536V50.7879L154.603 50.8536V49.0731H154.538L154.278 49.1391H154.082L153.822 49.2051H153.627H153.366H153.171H152.91H152.715L152.455 49.1391L152.325 49.0731H152.194L151.739 48.9411L151.478 48.8753L151.218 48.7433L150.697 48.5456L150.437 48.4136L150.371 48.3476H150.307L150.176 48.2818L149.916 48.1498L149.656 47.952L149.2 47.688V53.6235ZM154.603 44.9842V47.754L154.473 47.82L154.147 47.952L153.887 48.0178L153.627 48.0838H153.301H153.041H152.715H152.585H152.455L152.129 48.0178L151.869 47.952L151.543 47.886L151.283 47.754L151.088 47.688L150.893 47.5563L150.762 47.4243L150.697 47.3585L150.567 47.2265L150.502 47.0945V47.0288L150.437 46.8968V46.8308L150.502 46.699L150.567 46.567L150.632 46.501L150.697 46.3692L150.827 46.3032L151.023 46.1712L151.153 46.1055H151.218L151.348 46.0395H151.478L151.673 45.9735L152.129 45.8415L152.585 45.7097L152.65 45.6437H152.78L153.041 45.5777L153.431 45.3799L153.887 45.2479L154.278 45.0502L154.538 44.9842H154.603ZM141.973 41.0273L141.908 41.159V41.2251L141.843 41.357L141.778 41.4888V41.5548L141.712 41.6868L141.583 41.9506L141.387 42.2803L141.322 42.4121L141.257 42.4781V42.5441H141.192V42.6101L141.127 42.6761L141.062 42.7418L140.997 42.8738L140.866 43.0056L140.801 43.0716L140.671 43.2036L140.475 43.4014L140.345 43.4674L140.28 43.5334L140.085 43.6651L139.825 43.7971H139.695L139.629 43.8631H139.499H139.434L139.369 43.9292H139.239H139.174L139.108 43.9949H139.043H138.978H138.848H138.588L138.458 43.9292L138.327 43.8631L138.197 43.7971H138.132H138.067H138.002H137.937V43.8631V43.9292V43.9949L138.002 44.0609L138.067 44.1929L138.197 44.2586L138.262 44.3907L138.392 44.5884L138.523 44.7204L138.653 44.9842L138.783 45.1822L138.913 45.446L139.043 45.7097L139.108 45.9735L139.174 46.2372L139.239 46.567V46.8308V47.1605V47.4903V47.82V48.2158L139.174 48.5456L139.108 48.9411L139.043 49.3368L139.239 49.1391L139.434 48.9411L139.695 48.7433L139.955 48.5456L140.28 48.3476L140.606 48.1498L140.932 47.952L141.322 47.82L141.648 47.688L141.843 47.6223H142.038L142.494 47.688H142.689L142.885 47.82L143.145 47.886L143.34 48.0178L143.601 48.1498L143.796 48.2818L144.057 48.4796L144.317 48.6773L144.512 48.8753L144.773 49.1391L144.968 49.3368L145.163 49.6006L145.359 49.7326L145.554 49.9304L145.749 50.0624L145.944 50.1941L146.14 50.3261L146.4 50.3921H146.596L146.791 50.4581H147.051L147.246 50.3921L147.507 50.3261L147.767 50.2601L148.028 50.1284L148.288 50.0624H148.809H148.744L148.679 50.1284L148.483 50.2601H148.418L148.288 50.3261L148.158 50.4581L147.963 50.5239L147.833 50.5899L147.767 50.6559L147.377 50.7879L147.181 50.8536L146.986 50.9857L146.531 51.1177L146.335 51.1834L146.14 51.2494L145.684 51.4472L145.163 51.5132L144.903 51.5792L144.708 51.6452L144.187 51.7769L143.666 51.8429L143.536 51.909H143.34L143.08 51.9749L142.559 52.041L141.973 52.1067L141.387 52.1727L141.712 52.3707L142.038 52.5685L142.364 52.7002L142.494 52.8322H142.559L142.624 52.8982L142.95 53.03L143.015 53.096H143.08L143.21 53.228L143.471 53.3597L143.601 53.4258H143.666L143.731 53.4918H143.796L143.861 53.5577L143.991 53.6235L144.252 53.6895L144.317 53.7555H144.382L144.447 53.8215L144.642 53.8875L144.838 53.9533L145.033 54.0853L145.228 54.1513L145.359 54.2173H145.554H145.684L145.944 54.283H146.14L146.4 54.2173H146.661H146.921L147.246 54.1513L147.572 54.0853L147.898 54.0193L148.223 53.8875L148.614 53.8215L149.004 53.6895L149.2 53.6235V47.688L149.07 47.6223L148.809 47.4243L148.548 47.2265L148.223 46.9627L147.963 46.7647L147.377 46.2372L147.116 45.9735L146.921 45.8415L146.791 45.7097L146.531 45.446L146.4 45.314L146.27 45.1822L146.205 45.1162L146.27 45.0502L146.335 44.9182L146.4 44.7864V44.7204V44.5884H146.465V44.4567V44.3907V44.3247V44.2586L146.4 44.1929V43.9949L146.335 43.8631L146.27 43.6651L146.205 43.5994V43.5334V43.4674H146.14V43.4014L146.075 43.3354V43.2696L146.01 43.1376L145.879 42.9399L145.749 42.8079L145.294 42.2803L144.838 41.7526L144.642 41.4231L144.447 41.159L144.057 40.6315L143.861 40.3678L143.666 40.104L143.34 39.5105L143.015 38.917L142.689 38.3232V38.5872V38.719V38.7849L142.624 38.917V39.0487V39.1147V39.1807L142.559 39.2465V39.3785L142.494 39.5105L142.429 39.5762L142.364 39.7082H142.299V39.7742L142.169 39.8402H142.103H142.038H141.973H141.843L141.778 39.7742H141.712L141.648 39.7082L141.517 39.6422H141.452L140.932 39.3125L140.345 38.9827L139.76 38.6529L139.174 38.3232L138.588 37.9934L138.002 37.7297L137.351 37.4659L136.765 37.2021V37.3342V37.3999V37.4659L136.83 37.5319L137.025 37.9277L137.221 38.2574L137.416 38.5212L137.676 38.851L137.872 39.1147L138.197 39.3785L138.458 39.6422L138.783 39.8402L139.108 40.038L139.499 40.2358L139.825 40.3678L140.215 40.5655L140.606 40.6975L141.062 40.8293L141.452 40.8953L141.973 41.0273ZM149.2 54.547V57.4486L149.07 57.5147L148.744 57.9104L148.418 58.2402L148.028 58.6357L147.637 58.9655L147.311 59.361L146.856 59.8227L146.661 60.0205L146.465 60.2843L146.01 60.746L145.619 61.2735L146.465 60.9438L146.856 60.746L147.246 60.614L147.963 60.2182L148.679 59.8885L149.2 59.6247V64.4391L149.07 64.5052L148.418 64.7029L147.702 64.9007L147.116 65.0987L146.531 65.2964L145.944 65.5602L145.424 65.8239L144.903 66.088L144.382 66.3517L143.861 66.6815L143.406 67.0113L142.95 67.341L142.494 67.7365L142.038 68.1323L141.648 68.5281L141.192 68.9238L140.801 69.3854L140.411 69.8471L140.085 70.3746L132.273 72.2212H132.078H132.012H131.882L130.45 73.672L129.018 75.0571L127.585 76.5079L126.153 77.8929L124.655 79.2777L123.679 80.267V78.8822L124.07 78.4204L124.395 78.0247L124.525 77.8269L124.72 77.6291L125.046 77.1674L125.307 76.7716L125.567 76.3101L125.828 75.8483L126.088 75.4528L126.283 74.9911L126.479 74.5295L126.674 74.0678L126.869 73.6063L126.999 73.2105L126.609 73.3422L126.283 73.4743L125.958 73.672L125.632 73.87L125.307 74.0678L125.046 74.2655L124.786 74.4635L124.525 74.7273L124.265 74.9911L124.004 75.2548L123.809 75.5186L123.679 75.7166V73.738L123.874 73.6063L124.134 73.4743L124.33 73.2765L124.59 73.1445L124.786 72.9467L125.046 72.7487L125.437 72.4189L125.632 72.2212L125.828 72.0234L126.023 71.7594L126.218 71.5617L126.544 71.1659L126.739 70.9021L126.869 70.7044L127.195 70.2426L127.39 69.9789L127.455 69.8471L127.52 69.7151L127.65 69.4513L127.781 69.1876L128.953 68.5281L130.124 67.8025L130.255 67.7365L130.385 67.6708L130.58 67.8025L130.775 67.9345L130.97 68.0663L131.231 68.1323L131.491 68.2643L131.687 68.33L132.012 68.3961L132.273 68.4621H132.338H132.403H132.468H132.663L133.184 68.33L133.705 68.1983L134.161 68.0663L134.682 68.0006L135.658 67.7365L136.114 67.6048L136.309 67.5388L136.57 67.4728L136.96 67.341L137.416 67.209L138.197 66.9452L138.588 66.8132L138.913 66.6815L139.629 66.4177L139.695 66.3517V66.2857V66.2197L139.304 65.89L139.108 65.6922L138.978 65.4945L138.783 65.2964L138.653 65.1647L138.327 64.7689L138.197 64.5052L138.002 64.3072L137.741 63.8456L137.546 63.3839L137.416 63.1201L137.286 62.8563L137.221 62.7904H137.156H137.09L137.156 62.3288V62.1308V61.9991V61.8671V61.4056V61.1415V60.8778L137.09 60.3502L137.025 59.8227L136.96 59.2292L136.895 58.7017H137.09L137.286 58.8337L137.416 59.0315L137.611 59.2292L137.741 59.559L137.937 59.8885L138.067 60.3502L138.262 60.8118L138.458 61.3395L138.523 61.6693L138.653 61.9331L138.783 62.1308L138.913 62.3946L139.043 62.5926L139.174 62.7904L139.369 62.9223L139.499 63.0541L139.695 63.1201L139.89 63.2521H140.085L140.28 63.3179H140.475H140.736L140.932 63.2521L141.192 63.1861L140.932 62.7904L140.606 62.3946L140.411 61.9991L140.15 61.6033L139.955 61.1415L139.76 60.68L139.564 60.2182L139.434 59.6907L139.304 59.1632L139.174 58.6357L139.108 58.1082L139.043 57.5147L138.978 56.9211V56.2616V55.6021V54.9425V54.547L138.523 54.415L138.067 54.283L137.676 54.0853L137.286 53.9533L136.895 53.7555L136.57 53.6235L136.244 53.4258L135.919 53.228L135.723 53.162L135.593 53.03L135.333 52.8322L135.137 52.6345L134.877 52.4365L134.682 52.1727L134.486 51.9749L134.356 51.7112L134.226 51.5132L134.161 51.4472V51.3814V51.1834L134.421 51.0517L134.552 50.9857L134.682 50.9197L134.877 50.8536L135.072 50.7879L135.202 50.7219H135.267V50.6559H135.202L135.072 50.7219H134.942L134.747 50.7879L134.486 50.8536H134.356L134.226 50.9197L133.835 51.0517L133.509 51.1834H133.379L133.249 51.2494H133.184L133.054 51.3154L132.859 51.3814L132.728 51.5132L132.533 51.5792L132.338 51.7112L132.142 51.8429L131.947 51.9749L131.687 52.1067L131.491 52.3047L131.231 52.4365L130.905 52.6345L130.645 52.8322L130.32 53.03L130.385 52.7002L130.45 52.3707L130.645 51.7112L130.775 51.1177L130.905 50.5239L131.036 49.9304L131.166 49.4029L131.296 48.9411L131.427 48.4796L131.491 48.0178L131.622 47.5563L131.752 47.2265L131.882 46.8308L131.947 46.501L132.078 46.2372L132.142 45.9735L132.273 45.7097V45.9075L132.663 46.0395L133.054 46.2372L133.445 46.435L133.835 46.699L134.226 46.9627L134.552 47.2265L134.877 47.5563L135.202 47.952L135.333 48.0838L135.528 48.2818L135.788 48.6773L136.114 49.0731L136.374 49.5349L136.635 50.0624L136.83 50.5239L137.09 51.0517L137.221 51.3154L137.286 51.6452L137.416 51.8429L137.481 52.1067L137.611 52.3047L137.741 52.5025L137.872 52.6345L138.002 52.7662L138.132 52.8982L138.262 53.03L138.458 53.096L138.588 53.162H138.783L138.978 53.228H139.108L139.304 53.162L139.499 53.096L139.695 53.03L139.825 53.5577L139.955 54.1513L140.15 54.7448L140.28 55.4043L140.475 56.1296L140.671 56.9211L140.866 57.7124L141.127 58.5699V58.6357L141.192 58.7677L141.257 58.9655L141.322 59.0975L141.387 59.361L141.452 59.559L141.583 59.8227L141.648 60.0205L141.778 60.3502L141.843 60.614L141.973 61.0098L142.103 61.3395L142.234 61.6693L142.364 62.0648L142.559 62.5266L143.015 61.9331L143.406 61.3395L143.666 61.0758L143.861 60.8778L144.187 60.4163L144.512 59.9545L144.838 59.559L144.968 59.361L145.098 59.1632L145.359 58.9655L145.489 58.7677L145.554 58.7017L145.619 58.5699L145.814 58.3719L146.01 58.1082L146.27 57.8444L146.465 57.5807L146.596 57.3827L146.791 57.2509L147.051 56.9211L147.181 56.7234L147.377 56.5254L147.702 56.1296L148.093 55.7341L148.483 55.2723L148.744 55.0746L148.939 54.8108L149.2 54.547ZM123.679 73.738V73.804L123.158 74.0678L122.898 74.1998L122.637 74.3315L122.377 74.4635L122.116 74.5953L121.596 74.8593L121.335 74.925L121.01 75.0571L120.424 75.2548L119.773 75.5186L118.601 75.9804L118.015 76.2441L117.429 76.5739L116.843 76.8376L116.322 77.1014L115.737 77.4311L115.215 77.6949L114.174 78.3544L113.653 78.6842L113.523 78.8162V84.6857L113.848 84.5539L114.239 84.4219L114.629 84.2899L115.085 84.2241L115.541 84.1581L115.997 84.0921H116.452H116.974H117.494L118.08 84.1581L118.601 84.2241L119.252 84.2899L119.382 84.1581H119.447L119.512 84.0921L119.773 83.8944L120.033 83.6964L120.294 83.4986L121.726 82.1136L123.223 80.6628L123.679 80.267V78.8822L123.483 79.08L123.353 79.2777L122.963 79.6735L122.507 80.0693L122.312 80.267L122.116 80.465L121.921 80.5968L121.726 80.7288L121.531 80.7948L121.4 80.9265H121.27L121.14 80.9925L120.945 80.9265H120.879L120.749 80.8605L120.619 80.7948L120.554 80.6628L120.489 80.5308L120.424 80.333L120.359 80.1352L120.619 79.4757L120.749 79.146L120.879 78.8822L121.205 78.3544L121.335 78.0907L121.531 77.8929L121.856 77.4971L122.051 77.3654L122.182 77.2334L122.572 77.0356L122.767 76.9696H122.963V77.1014L123.093 76.7716L123.223 76.4418L123.419 76.1123L123.614 75.8483L123.679 75.7166V73.738ZM113.523 95.4356H113.588H113.848L114.044 95.3696L114.304 95.3036L114.499 95.2376L114.629 95.1718H114.695L114.89 95.0398L115.085 94.9738L115.215 94.9078V94.842H115.28L115.476 94.71L115.671 94.578L115.802 94.3803L115.997 94.2485L116.127 94.0505L116.257 93.8528L116.322 93.7868V93.7207L116.387 93.6548L116.517 93.457V93.391L116.583 93.325L116.648 93.2593V93.1272L116.713 93.0612V92.9955L116.843 92.7315L116.908 92.4677L116.974 92.336V92.2039V92.0062V91.8082L116.908 91.6764L116.843 91.4784L116.713 91.2146L116.583 90.8849L116.387 90.6871L116.127 90.4894L115.866 90.2914L115.606 90.1596L115.346 90.0276L115.15 89.9616L114.76 89.7639L114.564 89.6318L114.434 89.5661L114.109 89.3681L113.783 89.1043L113.523 88.9066V91.2807L113.588 91.3467L113.913 91.4784L114.109 91.6104L114.304 91.8082L114.499 91.9402L114.695 92.1379L114.76 92.336L114.825 92.4677L114.89 92.6657V92.7975V92.9955L114.825 93.1272L114.76 93.325L114.629 93.0612L114.564 92.9955H114.499H114.369L113.523 92.2039V95.4356ZM113.523 78.8162L113.197 79.08L112.221 79.8055L111.244 80.5308L110.398 81.3223L109.942 81.7838L109.551 82.1796L108.705 83.0368L108.315 83.4986L107.924 83.9601L107.208 84.8834L106.492 85.8727L105.841 86.928V87.1257L105.905 87.3238L106.231 88.115L106.557 88.9723L107.338 90.6871V90.8191V90.8849L107.403 90.9509L107.729 91.1487L107.989 91.3467L108.64 91.6764L108.965 91.8082L109.291 91.9402L109.942 92.2039L110.072 92.336L110.267 92.4017L110.398 92.5337L110.463 92.7315L110.788 93.2593L110.658 93.391L110.528 93.523L110.398 93.6548L110.267 93.8528L110.202 93.9845L110.137 94.1165L110.072 94.1825L110.007 94.3143V94.3803V94.5123V94.578V94.644L110.072 94.71L110.137 94.7761H110.202L110.333 94.842V94.9078V94.9738V95.0398L110.658 95.1718L110.984 95.2376H111.179L111.309 95.3036L111.635 95.3696L111.96 95.4356H112.221L112.481 95.5016H112.807H112.937H113.067H113.197H113.327L113.523 95.4356V92.2039L113.327 92.0062L112.286 91.0169L112.221 90.9509L112.155 90.8849V90.8191V90.6871L112.546 90.8849L112.937 91.0169L113.262 91.1487L113.523 91.2807V88.9066L113.262 88.6426L113.067 88.3788L112.937 88.2471L112.807 88.049L112.676 87.7853L112.481 87.5215L112.351 87.1918L112.286 86.862L112.221 86.5322L112.155 86.3345V86.1365V85.807V85.675L112.221 85.6089L112.286 85.5429L112.546 85.2792L112.807 85.0814L113.132 84.8834L113.523 84.7517V84.6857V78.8162Z" fill="#314385"/>
<path fill-rule="evenodd" clip-rule="evenodd" d="M142.298 36.8722V36.6745L142.233 36.4765L142.038 36.1467L141.842 35.883L141.647 35.5532L141.387 35.2894L141.127 35.0257L140.866 34.8279L140.54 34.6299L140.215 34.4321L139.89 34.2344L139.564 34.0364L139.173 33.9046L138.783 33.7726L138.392 33.6406L138.002 33.5749L137.546 33.5089L137.09 33.4429V33.5089L137.155 33.5749V33.6406V33.7066L139.759 35.2894L142.298 36.8722Z" fill="#314385"/>
<path fill-rule="evenodd" clip-rule="evenodd" d="M129.668 33.4431H129.473V33.8388V34.0366L129.538 34.2346V34.6301L129.473 35.0919V35.6194L129.408 36.0811L129.343 36.6747V36.9384L129.278 37.2022H129.083L128.952 37.1362L128.497 37.0044L128.106 36.8724L127.781 36.7407L127.52 36.6747L127.39 36.6087H127.26H127.064L126.934 36.5427H126.869V36.6087H126.804V36.6747V36.7407H126.869L126.934 36.8724L127.064 37.0044L127.26 37.2022L127.52 37.3999L127.781 37.598H127.976L127.911 37.7297V37.9277V38.0595V38.1915V38.4552L127.976 38.719L128.041 38.917L128.171 39.1148L128.236 39.1808L128.301 39.3125L128.367 39.3785L128.497 39.4445L128.692 39.5105L128.822 39.5763H128.952L129.083 39.6423H129.213H129.538H129.734H129.864H130.255L130.71 39.5763L130.905 39.5105H131.166V39.5763V39.6423L131.101 39.7083V39.7743V39.8403L131.036 39.906L130.97 39.972L130.905 40.0381H130.775L130.645 40.17L130.255 40.3678L129.864 40.4996L129.668 40.5656L129.473 40.6316L129.083 40.7636H128.887L128.627 40.8293H128.431L128.171 40.8953H127.976H127.715H127.455H127.26H126.999H126.869H126.739L126.609 40.8293H126.479H126.218L125.958 40.7636H125.827L125.697 40.6976L125.437 40.6316H125.111L124.59 40.4996L123.939 40.3018H123.874L123.809 40.2358H123.679L123.353 40.17L120.359 39.1808L117.429 38.1915L114.434 37.1362L111.504 36.1469L108.575 35.0919L105.71 34.0366L102.781 32.9155L99.916 31.8602L99.5253 31.7285L99.2 31.5965L98.8091 31.5305L98.4186 31.4645L98.028 31.3327H97.5721L97.1819 31.2667H96.7258H96.2702H95.8146L95.3588 31.3327H94.9029L94.4476 31.3987L93.9263 31.5305L93.4056 31.5965L92.8848 31.7285L91.2572 32.058L89.5644 32.4538L87.937 32.8495L86.3096 33.311L84.6165 33.7068L83.054 34.1686L81.4266 34.6301L79.7989 35.1579L78.2364 35.6194L76.6739 36.1469L75.1114 36.6747L73.5489 37.2022L72.0518 37.7297L70.4891 38.3232L68.9917 38.851L67.4944 39.5105V39.6423L69.838 38.9827L72.312 38.2575L74.721 37.532L77.1298 36.8724H77.325H77.3902L77.5205 36.9384L78.562 37.3999L79.5388 37.8617L80.0593 38.0595L80.5801 38.2575L81.1011 38.4552L81.6218 38.5872L82.1426 38.785L82.6636 38.917L83.1843 39.0488L83.7051 39.1148L84.6817 39.3125L85.2027 39.4445H85.463L85.7234 39.5105H86.1141H86.179H86.2444L86.3096 39.4445H86.3745H86.4394H86.5045V39.3785H86.5697V39.3125V39.2465V39.1148L86.5045 39.0488L86.4394 38.9827L86.3745 38.917L86.3096 38.785L86.2444 38.719L86.179 38.653L86.0489 38.5872L85.9838 38.5213L85.9186 38.3892L85.7886 38.3232L85.7234 38.2575H85.6585L85.5934 38.1255H85.5279L85.463 38.0595L85.3327 37.9935L85.1375 37.598L85.9186 37.2682L86.6349 37.0044L87.416 36.7407L88.1973 36.5427L88.9787 36.2789L89.7599 36.0811L90.6061 35.8831L91.4524 35.6854L92.2338 35.5534L93.0803 35.3556L93.9263 35.2236L94.8378 35.1579L95.6843 35.0259L96.5958 34.8938L97.5072 34.8281L98.4186 34.7621L101.088 35.7514L103.757 36.7407L106.426 37.7957L107.793 38.3232L109.161 38.851L110.528 39.4445L111.96 39.972L114.76 41.1591L116.192 41.7526L117.559 42.3464L120.489 43.5994L121.66 43.4674L122.897 43.4014L124.069 43.2697L125.242 43.2037L126.348 43.1377L127.52 43.0057L128.562 42.9399L129.668 42.8739L129.994 43.2697L130.189 43.4014L130.385 43.5994L130.515 43.6652L130.71 43.7972L130.84 43.9292L130.97 44.0609H131.036L131.101 44.127L131.231 44.2587L131.296 44.3247L131.426 44.3907L131.556 44.4567L131.687 44.5885H131.752L131.817 44.6545L131.947 44.7205L132.012 44.7865H132.077L132.142 44.8525H132.207H132.272H132.338H132.403V44.7865V44.7205V44.6545L132.338 44.5885V44.5227V44.4567H132.272V44.3907V44.2587V44.193H132.207L131.687 43.8632L131.296 43.5994L130.97 43.3354L130.84 43.2037L130.775 43.0716L130.645 42.9399L130.58 42.8079L130.515 42.6761V42.6102V42.4781V42.3464L130.58 42.1484L130.645 42.0166L130.71 41.8846L130.775 41.8186L130.905 41.6869L131.036 41.6209L131.166 41.4888L131.556 41.2911L132.012 41.0933L132.468 40.9613L133.054 40.7636L133.379 40.6976L133.77 40.6316L133.9 40.3678L134.03 40.1041L134.096 39.8403V39.7743V39.6423V39.5105V39.4445L134.03 39.3125L133.965 39.1808L133.9 39.1148L133.835 38.9827L133.64 38.851L133.314 38.5872L132.989 38.3232L132.728 38.0595L132.533 37.8617L132.338 37.598L132.142 37.3342L132.012 37.1362L131.882 36.8724L131.817 36.6087L131.752 36.3449L131.687 36.1469V35.8831V35.6854L131.752 35.4216L131.817 35.1579L131.882 34.9599L132.077 35.1579L132.272 35.2896L132.468 35.4216L132.728 35.5534L132.989 35.6854V35.5534L132.924 35.3556L132.859 35.1579L132.728 34.9599L132.598 34.8281L132.468 34.6961L132.272 34.4983L132.077 34.3663L131.882 34.2346L131.622 34.1026L131.361 33.9706L131.036 33.8388L130.71 33.7068L130.385 33.6408L130.059 33.5091L129.668 33.4431Z" fill="#314385"/>
<path fill-rule="evenodd" clip-rule="evenodd" d="M135.268 38.719V38.785V38.917V38.9827L135.333 39.0488L135.528 39.3125L135.724 39.5763L135.984 39.8403L136.179 40.104L136.439 40.3678L136.7 40.5656L137.026 40.7636L137.286 40.9613L137.611 41.1591L137.872 41.3571L138.263 41.4888L138.588 41.6209L138.913 41.7526L139.304 41.8846L139.695 42.0166L140.086 42.1484V42.0166V41.9506L140.02 41.8846L138.784 41.0933L137.611 40.3018L136.439 39.5105L135.268 38.719Z" fill="#314385"/>
<path fill-rule="evenodd" clip-rule="evenodd" d="M76.4137 43.2697H76.4788H76.544H76.6089L76.674 43.3354L77.0647 43.7972L77.1948 44.0609L77.3903 44.3247L77.5206 44.5884L77.6506 44.8525L77.9762 45.446L78.1716 46.0395L78.3017 46.3693L78.3669 46.699L78.4969 47.4243L78.5621 47.7541L78.6272 48.1498H78.6924H78.7575H78.8227V47.7541L78.8879 47.3586L78.8227 46.9628V46.567L78.7575 46.1713L78.6924 45.8415L78.6272 45.446L78.5621 45.0502L78.4318 44.7205L78.3017 44.3247L78.1716 43.9292L77.9762 43.5994L77.7809 43.2036L77.5855 42.8739L77.3903 42.4781L77.1299 42.1484L76.9344 41.9506L76.7394 41.8186L76.4788 41.6868L76.2184 41.6208L75.8929 41.5548L75.5674 41.4888L75.2418 41.4231H74.9163H73.8094L72.7681 41.4888L71.661 41.6208L70.6849 41.7526L69.6429 41.8846L68.6014 42.0824L67.6245 42.2804L66.7131 42.6101L65.7368 42.8739L64.8253 43.2036L63.9142 43.5334L63.0674 43.9949L62.1559 44.3907L61.3096 44.8525L60.4636 45.38L59.682 45.9075L58.5104 46.699L57.3384 47.5563L56.1014 48.3476L54.8644 49.1391L54.2134 49.5349L54.0181 49.6006L53.8878 49.7327L53.5623 49.9304L53.2368 50.0624L53.0418 50.1942L52.9115 50.2602L52.5205 50.4582L52.3907 50.5239L52.195 50.5899L51.8697 50.7879L51.5445 50.9197L51.1535 51.0517L50.828 51.2495L50.1769 51.5132L49.4607 51.777L49.2655 51.843L49.0703 51.909L48.7447 52.041L47.9633 52.3047L47.6381 52.3707L47.4426 52.4365L47.2474 52.5025L46.8569 52.6345L46.466 52.7003L46.0753 52.8323L45.7498 52.8983H45.4897L45.3593 52.9643L44.9689 53.03L44.1875 53.228L43.7317 53.294H43.5367L43.341 53.3598L42.5599 53.4258L41.7133 53.5578H41.3229L40.8673 53.6236L40.021 53.6895H39.8256H39.6301H39.1745H38.979H38.7841L38.328 53.7556H37.8724H37.6771H37.4819H36.5702L35.6588 53.6895H34.7476L33.8359 53.6236L33.3803 53.5578H33.1851H32.9245L32.6644 53.4918H32.4686L32.0133 53.4258L31.0365 53.294L30.0601 53.228L29.6043 53.096L29.1487 53.03L29.2138 53.294L29.279 53.4258L29.3441 53.5578L29.474 53.7556L29.6692 53.9533L29.8649 54.1513L30.125 54.2831L30.3202 54.4151L30.646 54.4811L31.6875 54.7448L32.2734 54.8766L32.7942 55.0086L33.9013 55.1406L35.0077 55.2723L36.0497 55.4044H36.5702H37.1561H38.1982H39.3048L40.3463 55.3384L41.4532 55.2064L42.4947 55.0086L43.0155 54.9426L43.5367 54.8108L44.0572 54.6788L44.578 54.5471L45.6849 54.2173L46.7264 53.8875L47.7681 53.4918L48.1591 53.3598L48.4844 53.228L49.2655 52.8983L49.5913 52.7003L49.9165 52.5685L50.1118 52.4365L50.3075 52.3707L50.6328 52.1727L50.9583 52.041L51.1535 51.909L51.3487 51.843L51.9998 51.4472L52.6508 51.0517L53.3019 50.5899L53.8878 50.1942L54.5389 49.7986L55.125 49.4029L55.7761 49.0731L57.0782 48.3476L57.7293 48.0178L58.3801 47.6881L59.0312 47.3586L59.682 47.0945L61.0493 46.501L61.7655 46.2373L62.4163 45.9735L63.1328 45.7758L63.9142 45.5117L65.3461 45.0502L66.8434 44.6545L67.5596 44.5227L68.3408 44.3247L69.1221 44.1929L69.9033 44.0609L71.4658 43.7972L73.0934 43.5334L73.8746 43.4674L74.7211 43.4014L76.4137 43.2697Z" fill="#314385"/>
<path fill-rule="evenodd" clip-rule="evenodd" d="M101.283 77.6948L101.348 77.8928V77.9588V78.0245V78.0905H101.283V78.1565V79.6073L101.348 79.5416H101.479L101.609 79.4756L101.739 79.4096L101.869 79.3436H101.935H101.999L102.065 79.2776L102.195 79.2118L102.39 79.0798L102.455 79.0138L102.52 78.9478L102.586 78.8161L102.651 78.7501L102.716 78.684L102.781 78.6183L102.846 78.4863V78.4203L102.911 78.3543L102.976 78.2226V78.1565V78.0245V77.9588V77.8928V77.8268V77.629V77.563V77.497V77.431L103.302 77.7608L103.432 77.8928L103.497 78.0245L103.562 78.0905L103.627 78.1565L103.692 78.2885L103.822 78.4863L103.888 78.6183V78.684L103.953 78.7501V78.8161L104.018 78.9478V79.0138V79.1458V79.3436V79.4096L103.953 79.4756V79.5416L103.888 79.6073V79.6733L103.757 79.8054L103.627 79.8714L103.562 79.9371L103.432 80.0031L103.367 80.0691L103.106 80.2009L102.781 80.3329H102.651L102.455 80.3989L102.13 80.4649L101.804 80.5306H101.609H101.479L101.283 80.4649V80.7946L102.26 80.9924L103.497 81.3222L104.734 81.6519V81.8497L104.799 81.7837L104.929 81.6519V81.5859H104.994L105.059 81.4539L105.125 81.3222L105.19 81.1901L105.255 81.0584V80.9924V80.8604V80.7946V80.7287V80.6626L105.19 80.5306V80.4649V80.3989L105.125 80.2669L105.059 80.1351H105.125H105.19H105.255L105.32 80.0691H105.385L106.036 79.6733L106.361 79.4096L106.687 79.2118L106.947 78.9478L107.078 78.8161L107.208 78.7501L107.273 78.684L107.533 78.4203L107.859 78.1565L108.119 77.8928L108.38 77.629L108.64 77.2993L108.965 77.0355L109.226 76.7057L109.291 76.5737L109.486 76.376L109.682 76.0462L110.007 75.7165L110.202 75.3867L110.268 75.3207L110.333 75.1889L110.463 75.0569L110.919 74.3314L111.114 73.9359L111.375 73.5401L111.57 73.1444L111.635 72.9466L111.765 72.7486L111.96 72.3531L112.091 72.0891L112.156 71.8913L112.351 71.4955L112.546 71.034L112.742 70.5723L112.937 70.1107L113.132 69.649L113.197 69.4512V69.3192L113.263 69.1874H113.132L112.937 69.1215L112.742 69.0555L112.546 68.9237L112.091 68.7917L111.83 68.6597L111.57 68.5279L111.049 68.3299L110.463 68.1322L110.138 68.0004L109.812 67.8684L109.486 67.7364L109.161 67.6046L109.031 67.5387H108.965L108.77 67.4726L108.445 67.3409V67.2089L108.38 67.1429V67.0769H108.315L108.119 66.8791L107.924 66.6814L107.533 66.3516L107.403 66.1536L107.273 65.9558L107.143 65.7581L107.078 65.6261L106.947 65.3623V65.1646L106.882 64.9665V64.7688V64.5708V64.373V64.1093L106.947 63.9115V63.7135L107.143 63.8455L107.403 63.9115L107.794 64.1093L108.184 64.373L108.575 64.5708L108.901 64.8348L109.096 64.9665L109.291 65.1646L109.617 65.4943L109.942 65.8238H110.333H110.658H110.984L111.309 65.8898L111.635 65.9558L111.96 66.0218L112.221 66.1536L112.481 66.2196L112.742 66.3516L112.937 66.4833L113.132 66.6814L113.327 66.8791L113.523 67.0769L113.653 67.2749L113.783 67.5387L113.913 67.8024L114.044 68.0662L113.978 67.8684V67.7364L113.848 67.2749L113.653 66.8131L113.393 65.9558L113.067 65.0985L112.872 64.7028L112.742 64.307L112.351 63.5157L111.895 62.7242L111.505 61.9989L111.244 61.6692L111.049 61.2734L110.854 61.3394H110.724L110.333 61.4054L110.007 61.5372L109.682 61.6032H109.356L109.031 61.6692H108.705H108.38H108.119L107.794 61.6032L107.468 61.5372L107.208 61.4712L106.947 61.4054L106.622 61.2734L106.361 61.2074L106.101 61.0757L105.841 60.9437V60.8116L105.776 60.7459V60.6799V60.6139L105.385 60.2181L105.125 59.8226L104.799 59.4268L104.539 58.9653L104.213 58.5698L104.018 58.108L103.757 57.6465L103.497 57.1188L103.302 56.5912L103.106 56.0637L102.911 55.536L102.716 54.9424L102.586 54.3489L102.39 53.7554L102.26 53.1619L102.13 52.5023L101.804 52.0408L101.414 51.7111L101.283 51.513V71.8913L102.455 72.4848L103.822 73.1444L105.125 73.8699L106.492 74.5951L107.794 75.3207L108.054 75.4527L108.315 75.6505L108.38 75.7165L108.445 75.8482L108.575 75.9802V76.178V76.376V76.4417L108.51 76.5737L108.445 76.7715L108.38 76.9035L108.315 77.0355L108.249 77.1672L108.184 77.2993L108.054 77.497L107.989 77.563L107.924 77.629L107.859 77.6948L107.794 77.7608H107.729V77.8268H107.598L107.533 77.7608L107.403 77.629V77.563L107.338 77.497L107.273 77.2993L107.208 77.1012L107.143 76.7715L107.078 76.4417L107.013 76.244V76.0462L106.947 75.6505V75.2547L106.492 74.9909L106.036 74.7932L105.58 74.5951L105.19 74.3974L104.278 74.0676L103.822 73.9359L103.367 73.8039L102.846 73.6719L102.39 73.6061L101.479 73.4741L101.283 73.4081V77.6948ZM92.82 59.0313V58.8996L92.4944 59.1631L92.2992 59.4268L92.0386 59.8226L91.8434 60.1524L91.6481 60.4821L91.4527 60.8776L91.3226 61.2074L91.1923 61.6032L91.0625 61.9989L90.9973 62.3944L90.9319 62.8562V63.252L90.8668 63.7135V64.1093V64.5708L90.9319 65.0326V65.0985V65.1646V65.2303H90.8668V65.2963L90.5412 65.4283L90.2157 65.6261L89.6298 65.9558L89.1091 66.3516L88.5883 66.8131L88.0673 67.2749L87.8721 67.4726L87.612 67.7364L87.221 68.2642L86.8303 68.8577V68.9894L86.8955 69.1874L86.9609 69.583L87.0907 69.9127L87.221 70.2425L87.3513 70.5723L87.4162 70.7703L87.5465 71.034L87.6769 71.2318L87.8721 71.3638L87.9372 71.4955L88.1325 71.5615L88.2628 71.6276L88.3928 71.6935H88.5883L88.7183 71.6276L88.9136 71.5615L89.1091 71.4955L88.979 71.3638L88.9136 71.2978V71.1658V71.1V71.034V70.968V70.902L89.7601 71.4955L90.6064 72.1551L91.5178 72.7486L92.4944 73.3421L93.5359 74.0016L94.5777 74.6612L95.7495 75.3207L96.9216 75.9802H97.0516H97.2468L97.5724 75.9142L97.7027 75.8482H97.8979H98.2234H98.5492H98.8093L99.1349 75.9142L99.3955 75.9802L99.6559 76.1122L99.9162 76.244L100.111 76.376L100.372 76.5737L100.502 76.7057L100.568 76.7715L100.763 77.0355L101.023 77.2993L101.153 77.563L101.283 77.6948V73.4081L100.502 73.3421H99.5256H99.1349L98.6793 73.1444L98.2886 73.0123L97.8332 72.7486L97.4423 72.5508L97.1168 72.3531L96.7261 72.0891L96.4005 71.8253L96.075 71.5615L95.7495 71.2318L95.4239 70.968L95.1638 70.6383L94.9032 70.3085L94.6428 69.9127L94.3824 69.583L94.187 69.1874L93.9918 68.7917L93.9266 68.6597V68.4619L94.0569 67.8684L94.2521 67.3409L94.5125 66.7474L94.708 66.2196L94.9032 65.6921L95.1638 65.1646L95.4239 64.7028L95.6846 64.1753L95.945 63.7135L96.2053 63.252L96.5309 62.7902L96.7912 62.3287L97.1168 61.8669L97.4423 61.4712L97.7678 61.0096L98.0934 60.6139H98.1585L98.2234 60.5479H98.2886H98.4189L98.8093 61.2734L99.07 61.6032L99.2652 61.9989L99.3955 62.3944L99.5907 62.7902L99.7859 63.252L99.9162 63.6475L100.046 64.0433L100.242 64.505L100.372 64.9665L100.437 65.4283L100.632 66.3516L100.697 66.8131L100.828 67.2749V67.3409H100.893H101.023L100.568 67.6707L100.111 68.0662L99.9162 68.2642L99.7859 68.3299L99.6559 68.3959L99.4604 68.5939L99.2003 68.7257L98.7444 69.0555L98.4841 69.1874L98.2234 69.3192L97.7678 69.649L97.5075 69.781L97.2468 69.9127H97.1168L97.0516 69.9787H96.9216L98.2886 70.5723L99.7208 71.1658L101.088 71.8253L101.283 71.8913V51.513L101.088 51.3153L100.828 50.9855L100.697 50.8535L100.568 50.7218L100.307 50.458L100.046 50.194L99.8513 50.0623V50.1282V50.194V50.326V50.392L99.5256 51.1833L99.2003 52.0408L98.9397 52.8981L98.7444 53.8214L98.4841 54.7447L98.3537 55.668L98.1585 56.5912L98.0282 57.5805H97.8332V57.6465H97.7678L97.7027 57.7123L97.6375 57.8443L97.5724 57.9763L97.312 58.3061L97.1168 58.6356L96.9216 58.9653L96.6609 59.2291L96.466 59.5589L96.2053 59.8226L96.0099 60.1524L95.7495 60.4821L95.4891 60.7459L94.9684 61.3394L94.4479 61.8669L94.187 62.1307L93.9266 62.3944H93.7317H93.5359L93.3407 62.3287L93.2106 62.2627L93.0152 62.1307L92.8851 61.9989L92.7548 61.8669L92.6896 61.7352L92.6245 61.5372L92.5596 61.3394L92.4944 61.1414V60.8776V60.6139V60.3501L92.5596 60.0204L92.6245 59.7566L92.6896 59.3608L92.82 59.0313ZM101.283 78.1565L100.958 78.3543L100.763 78.4203L100.568 78.4863L100.372 78.6183L100.242 78.684L99.8513 78.8161L99.4604 78.9478L99.07 79.0798L98.6793 79.1458L98.2886 79.2776L97.8332 79.3436L97.4423 79.4096H96.9865L96.5309 79.4756H96.075H95.6194H95.1638L94.9032 79.4096H94.6428L95.945 79.6733L97.2468 79.8714L98.4841 80.1351L99.7859 80.4649L101.023 80.7287L101.283 80.7946V80.4649L101.088 80.3989L100.893 80.3329L100.828 80.2669L100.763 80.2009L100.697 80.0031L100.632 79.8054L100.763 79.7394H100.828L100.958 79.6733H101.088L101.153 79.6073H101.219H101.283V78.1565Z" fill="#314385"/>
<path fill-rule="evenodd" clip-rule="evenodd" d="M85.1377 58.9654L85.2028 59.0314H85.2678H85.3329V62.7903V63.186L85.0074 63.8455L84.6818 64.5051L84.5518 64.6368L84.4866 64.7688L84.3563 65.0986L84.2265 65.2303L84.1611 65.4283L83.9659 65.7581L83.7704 66.0219L83.7052 66.1536L83.6403 66.3516L83.4449 66.6154L83.3148 66.8131L83.2497 66.9452L83.1194 67.0769L83.0542 67.2749L82.8592 67.5387L82.4683 68.1322L82.4034 68.2642V68.462H82.3382V68.528V68.594V68.6597L82.2733 68.7257L82.1428 68.8577L81.9475 68.9895L81.8172 69.1215L81.622 69.1875L81.5571 69.5172V69.847V70.1108V70.4405V70.7043V70.9681L81.622 71.1658L81.6872 71.4298L81.7523 71.6276L81.8172 71.8913L81.8824 72.0891L81.9475 72.2871L82.0779 72.4189L82.2082 72.6169L82.3382 72.7486L82.4683 72.8806L82.5334 72.9466H82.5986H82.6638L82.7289 73.0124V73.0784L82.7938 73.1444V73.2104L82.8592 73.2764L83.4449 73.7379L84.0308 74.1997L84.6818 74.6612L85.3329 75.057L85.984 75.5185L86.635 75.9142L87.3513 76.31L88.0672 76.6398L88.7183 76.9695L89.4997 77.2993L90.2808 77.6291L91.0624 77.9588L91.8433 78.2226L92.6244 78.4863L93.4058 78.7501L94.3172 79.0138L94.2521 78.9479V78.8821V78.8161H94.1869L88.4579 75.6505L82.7289 72.6169V72.2211V68.462H82.7938H82.8592H82.9244V68.396H82.9893L84.5518 65.7581L86.1143 63.186V62.9883L86.0491 62.7903L85.9188 61.7352L85.7888 60.6799L85.7236 59.6246V58.7016V58.6356L85.6587 58.5699V58.3719L84.8776 57.1848L84.1611 56.0638L83.3797 54.8765L82.5986 53.7554L81.8172 52.6344L81.0361 51.5131L80.1901 50.3921L79.4084 49.2708L80.0595 50.5238L80.7106 51.7769L81.4268 53.0299L82.1428 54.283L82.8592 55.4702L83.5755 56.6573L84.3563 57.8443L85.1377 58.9654Z" fill="#314385"/>
<path fill-rule="evenodd" clip-rule="evenodd" d="M121.791 49.4028L121.596 49.6666L121.4 49.9303L121.205 50.1941L121.075 50.5238L120.945 50.7219L120.879 50.9856L120.749 51.2494L120.684 51.5791L120.554 52.3047L120.424 53.096V53.4257L120.359 53.6235L120.294 54.349L120.228 55.0745L120.098 55.734L119.968 56.3936L119.773 57.0531L119.708 57.1849V57.3169L119.578 57.6466L119.447 58.2401L119.317 58.8997L119.252 59.2292L119.187 59.4269L119.122 59.6907L119.057 59.8884V60.0865L118.926 60.548L118.861 60.68L118.796 60.8117L118.666 60.9437L118.601 61.0758L118.536 61.1415L118.471 61.2075L118.275 61.3395L118.211 61.4055H118.145L118.08 61.4713H118.015H117.95H117.885H117.82H117.689H117.624H117.429L117.364 61.4055H117.234L116.974 61.2735L116.648 61.0758L116.387 60.9437L116.127 60.8117L115.476 60.3502L114.89 59.9544L113.653 58.9654L113.913 59.4929L114.174 59.9544L114.434 60.4822L114.76 60.9437L115.215 61.5372L115.671 62.1308L116.192 62.7243L116.452 62.9883L116.713 63.2521L117.038 63.5158L117.364 63.7136L117.624 63.9774L118.015 64.2414L118.666 64.6369L119.382 65.0326L119.643 64.5709L119.838 64.0433L120.098 63.5158L120.294 62.9883L120.489 62.3945L120.619 61.867L120.814 61.2735L120.945 60.746V60.4822L121.01 60.4162V60.2842L121.14 59.8227V59.5589L121.205 59.3609L121.27 59.0974V58.9654L121.335 58.2401L121.465 57.5806V56.9871L121.531 56.3276V55.9318V55.536V54.8108V54.547V54.349L121.465 54.1512V54.0192V53.8875V53.8215V53.8875V53.9532L121.531 54.0852V54.2172V53.7555V53.3597V53.0299V52.6344L121.596 52.3047V52.0409V51.7112L121.661 51.4471L121.726 50.9856L121.791 50.5899L121.921 50.1941L122.051 49.8646L122.377 49.2051L122.767 48.5455L122.246 48.941L121.986 49.139L121.791 49.4028Z" fill="#314385"/>
<path fill-rule="evenodd" clip-rule="evenodd" d="M31.9483 46.0393L30.9715 43.2694L30.5813 43.5332L30.1904 43.8629L29.8651 44.1927L29.5393 44.5882L29.214 44.918L28.9534 45.3137L28.6933 45.6435L28.4978 46.0393L28.2372 46.4348L28.042 46.8965L27.9119 47.2923L27.7818 47.7538L27.6513 48.2156L27.5861 48.7431L27.521 49.2049L27.4561 49.7324V49.8644V49.9961V50.2599L27.521 50.5237L27.5861 50.7877L27.7164 51.0515L27.8467 51.2492L28.042 51.5129L28.2372 51.711L28.4978 51.645V50.2599V49.8644L28.563 49.4026L28.6933 49.0069L28.8231 48.6771L28.9534 48.4133L29.0835 48.2156L29.2792 47.9518L29.4741 47.8198L29.8651 48.1496L30.2555 48.5454L30.7114 48.8751L31.1018 49.2049L31.5574 49.5346L31.9483 49.8644L32.4039 50.1282L32.8595 50.3919L33.2505 50.5897L33.7058 50.8534L34.1617 51.0515L34.6175 51.1832L35.0731 51.3812L35.5287 51.5129L35.9848 51.645L36.4404 51.7767L36.896 51.8427L37.3521 51.9087L37.8074 51.9747H38.3282L38.7843 52.0407H39.2396L39.7606 51.9747H40.2164L40.7375 51.8427L41.1928 51.7767L41.7135 51.711L42.2348 51.579L42.6901 51.447L43.2111 51.3152L43.7319 51.1174L44.2529 50.9194L46.4662 50.0622L47.5082 49.5346L48.0287 49.3366L48.6146 49.0729L49.1354 48.8751L49.6566 48.6113L50.763 48.1496L51.8048 47.6221L52.9117 47.1603L52.3258 47.3583H52.1952L52.0651 47.424L51.8699 47.5561L50.8282 47.9518L49.7218 48.2816L49.2005 48.4133L48.6798 48.6113L48.4194 48.6771H48.2893L48.1593 48.7431L47.6383 48.8751L46.5965 49.2049H46.3361L46.0755 49.2706L45.4899 49.4026L45.2292 49.4686L44.9691 49.5346L44.4481 49.6664L43.9271 49.7324L43.6018 49.7984H43.4718L43.3412 49.8644L42.2997 49.9961L41.1928 50.1282L40.6723 50.1939L40.0864 50.2599L39.5651 50.3259L38.9792 50.3919L37.8726 50.4579H37.3521L36.7659 50.5237H36.5053H36.2449H35.659H35.464H35.2686L35.0731 50.4579L34.8779 50.3919L34.6827 50.3259L34.5526 50.2599L34.3569 50.1282L34.2268 50.0622L34.0316 49.9301L33.9015 49.7984L33.771 49.6004L33.5757 49.4686L33.4457 49.2706L33.3156 49.0729L33.1853 48.8091L33.1199 48.6113L32.7944 48.0176L32.5342 47.3583L32.2085 46.6988L31.9483 46.0393Z" fill="#314385"/>
<path fill-rule="evenodd" clip-rule="evenodd" d="M61.3098 42.4782L61.2449 42.6762L66.4529 39.8403L65.7369 40.0381L65.0858 40.3019L64.3696 40.5656L63.7837 40.8954L63.1329 41.2252L62.4818 41.6209L61.8959 42.0167L61.3098 42.4782Z" fill="#314385"/>
<path fill-rule="evenodd" clip-rule="evenodd" d="M116.973 73.3423V73.2765V73.2105V73.1445L116.778 73.0785H116.648L116.582 73.0125L116.517 72.9468H116.452L116.322 72.8147L116.257 72.683L116.192 72.485L116.127 72.3532V72.2212V72.1552V71.9575L116.192 71.8255V71.6937V71.5617L116.257 71.4957L116.322 71.2319L116.452 70.9022L116.582 70.6384L116.778 70.3086L116.908 70.1109L116.973 69.9789V69.7811L116.061 70.9682L115.15 72.1552L114.629 72.683L114.499 72.8147L114.369 73.0125L114.174 73.2765L113.197 74.4636L112.22 75.5846L111.179 76.7716L110.202 77.8929L109.161 79.014V79.212L109.681 78.8822L110.202 78.5525L110.723 78.2227L110.984 78.0247L111.114 77.9589L111.179 77.8929H111.244L111.309 77.8269L111.374 77.7609L111.504 77.6949L111.7 77.4972L112.22 77.1674L113.197 76.4419L113.718 76.1124L114.174 75.7166L114.694 75.3208L115.15 74.9251L115.606 74.5296L115.866 74.3316L116.061 74.1338L116.517 73.738L116.973 73.3423Z" fill="#314385"/>
<path fill-rule="evenodd" clip-rule="evenodd" d="M122.442 97.8755L120.814 97.6117L119.187 97.348L117.494 97.084L115.802 96.8862L114.434 96.6885L113.067 96.4905L111.635 96.2927L110.267 96.1607L108.835 95.9629L107.403 95.8309L105.905 95.6992L104.473 95.5672L102.911 95.4354L101.413 95.2374L99.9161 95.1056L98.3536 95.0397L96.7911 94.9076L95.2286 94.7759L93.601 94.7099L91.9735 94.5779L90.3461 94.4461L88.6531 94.3801L87.0259 94.3141L85.3328 94.1824L83.5754 94.1164L81.8823 94.0504L80.1248 93.9844L78.3669 93.9186L76.6089 93.8526L74.7863 93.7866L72.9631 93.7206H71.1403L69.2525 93.6546L67.4294 93.5889H65.4762H63.5884L64.4347 93.7866L65.216 94.0504L65.9974 94.2484L66.7783 94.5121L67.5597 94.7099L68.2756 94.9076L68.9918 95.1056L69.7732 95.3034L70.0985 95.4354L70.4892 95.5014L71.2054 95.6992L71.8565 95.8969L72.182 95.9629L72.3772 96.0289H72.5725L72.703 96.0949L72.898 96.1607L73.2235 96.2267L73.8746 96.3587L74.5256 96.5565L74.8512 96.6225L75.1767 96.6885L75.8278 96.8202L76.4137 97.0182L76.9996 97.084L77.5855 97.282L78.1716 97.348L78.7576 97.4797L79.2783 97.6117L79.8642 97.7435L80.385 97.8095L80.6453 97.8755H80.7757L80.906 97.9415L81.4267 98.0075L81.8823 98.0733L82.1427 98.1393L82.4033 98.2053H82.5985L82.8592 98.2713L83.3147 98.337L83.7703 98.403L86.1791 98.6668L88.5882 98.9308L89.8251 99.0626L90.9972 99.1286L93.4057 99.3263L95.8148 99.3923L98.2885 99.4583L99.4603 99.5243H100.697H103.106L105.515 99.4583L106.687 99.3923H107.924L110.333 99.1946L112.741 99.0626L115.15 98.7988L116.387 98.6668L117.624 98.535L120.033 98.2053L122.442 97.8755Z" fill="#314385"/>
<path d="M221.56 55H220.301L220.161 52.2683L219.746 49.5717L219.061 46.9119L218.113 44.2911L216.906 41.712L215.448 39.1778L213.744 36.6919L211.799 34.2582L209.621 31.8808L207.216 29.5631L204.59 27.3092L201.751 25.1233L198.704 23.0091L195.458 20.9702L192.018 19.0105L188.393 17.134L184.588 15.3439L180.611 13.6438L176.47 12.0372L172.17 10.5284L167.719 9.12017L163.124 7.81608L158.391 6.62001L153.529 5.53507L148.543 4.56486L143.441 3.713L138.23 2.98283L132.917 2.3777L127.508 1.90072L122.011 1.55626L116.433 1.34664L110.78 1.27625V0L116.464 0.0709029L122.073 0.281559L127.602 0.62808L133.042 1.10763L138.387 1.71637L143.63 2.45118L148.764 3.30872L153.783 4.28512L158.679 5.37779L163.445 6.58262L168.076 7.89652L172.563 9.31612L176.9 10.8383L181.081 12.4598L185.098 14.177L188.944 15.9867L192.613 17.8858L196.098 19.8714L199.391 21.9397L202.487 24.0879L205.377 26.3135L208.056 28.6128L210.516 30.983L212.75 33.4213L214.75 35.9251L216.509 38.491L218.02 41.1159L219.273 43.7971L220.262 46.5303L220.978 49.3118L221.414 52.1368L221.56 55ZM110.78 110V108.724L116.433 108.653L122.011 108.444L127.508 108.099L132.917 107.622L138.23 107.017L143.441 106.287L148.543 105.435L153.529 104.465L158.391 103.38L163.124 102.184L167.719 100.88L172.17 99.4716L176.47 97.9628L180.611 96.3562L184.588 94.6561L188.393 92.866L192.018 90.9895L195.458 89.0298L198.704 86.9909L201.751 84.8767L204.59 82.6908L207.216 80.4369L209.621 78.1192L211.799 75.7418L213.744 73.3081L215.448 70.8222L216.906 68.288L218.113 65.7089L219.061 63.0881L219.746 60.4283L220.161 57.7317L220.301 55H221.56L221.414 57.8632L220.978 60.6882L220.262 63.4697L219.273 66.2029L218.02 68.8841L216.509 71.509L214.75 74.0749L212.75 76.5787L210.516 79.017L208.056 81.3872L205.377 83.6865L202.487 85.9121L199.391 88.0603L196.098 90.1286L192.613 92.1142L188.944 94.0133L185.098 95.823L181.081 97.5402L176.9 99.1617L172.563 100.684L168.076 102.103L163.445 103.417L158.679 104.622L153.783 105.715L148.764 106.691L143.63 107.549L138.387 108.284L133.042 108.892L127.602 109.372L122.073 109.718L116.464 109.929L110.78 110ZM0 55H1.25886L1.39884 57.7317L1.81423 60.4283L2.4994 63.0881L3.44749 65.7089L4.65391 68.288L6.11231 70.8222L7.81658 73.3081L9.76086 75.7418L11.9391 78.1192L14.3443 80.4369L16.9702 82.6908L19.8096 84.8767L22.8562 86.9909L26.1024 89.0298L29.5419 90.9895L33.1673 92.866L36.9722 94.6561L40.9488 96.3562L45.0906 97.9628L49.3905 99.4716L53.8415 100.88L58.4366 102.184L63.1689 103.38L68.0316 104.465L73.0171 105.435L78.1187 106.287L83.3298 107.017L88.6432 107.622L94.0517 108.099L99.5488 108.444L105.127 108.653L110.78 108.724V110L105.096 109.929L99.4868 109.718L93.9586 109.372L88.5184 108.892L83.1735 108.284L77.9304 107.549L72.7962 106.691L67.7775 105.715L62.8813 104.622L58.1149 103.417L53.4842 102.103L48.997 100.684L44.66 99.1617L40.4795 97.5402L36.4626 95.823L32.6161 94.0133L28.9474 92.1142L25.4625 90.1286L22.169 88.0603L19.0735 85.9121L16.1827 83.6865L13.5038 81.3872L11.0442 79.017L8.81049 76.5787L6.8102 74.0749L5.05097 71.509L3.54063 68.8841L2.28687 66.2029L1.29805 63.4697L0.581831 60.6882L0.14661 57.8632L0 55ZM110.78 0V1.27625L105.127 1.34664L99.5488 1.55626L94.0517 1.90072L88.6432 2.3777L83.3298 2.98283L78.1187 3.713L73.0171 4.56486L68.0316 5.53507L63.1689 6.62001L58.4366 7.81608L53.8415 9.12017L49.3905 10.5284L45.0906 12.0372L40.9488 13.6438L36.9722 15.3439L33.1673 17.134L29.5419 19.0105L26.1024 20.9702L22.8562 23.0091L19.8096 25.1233L16.9702 27.3092L14.3443 29.5631L11.9391 31.8808L9.76086 34.2582L7.81658 36.6919L6.11231 39.1778L4.65391 41.712L3.44749 44.2911L2.4994 46.9119L1.81423 49.5717L1.39884 52.2683L1.25886 55H0L0.14661 52.1368L0.581831 49.3118L1.29805 46.5303L2.28687 43.7971L3.54063 41.1159L5.05097 38.491L6.8102 35.9251L8.81049 33.4213L11.0442 30.983L13.5038 28.6128L16.1827 26.3135L19.0735 24.0879L22.169 21.9397L25.4625 19.8714L28.9474 17.8858L32.6161 15.9867L36.4626 14.177L40.4795 12.4598L44.66 10.8383L48.997 9.31612L53.4842 7.89652L58.1149 6.58262L62.8813 5.37779L67.7775 4.28512L72.7962 3.30872L77.9304 2.45118L83.1735 1.71637L88.5184 1.10763L93.9586 0.62808L99.4868 0.281559L105.096 0.0709029L110.78 0Z" fill="#314385"/>
<path d="M508.494 59.7574L516.315 60.94C514.789 65.1734 512.499 68.4127 509.446 70.6579C506.393 72.886 502.816 74 498.717 74C494.103 74 490.492 72.6117 487.885 69.8352C485.295 67.0587 484 63.031 484 57.7521C484 53.4674 484.866 49.5511 486.599 46.0033C488.348 42.4384 490.767 39.7133 493.854 37.828C496.942 35.9426 500.303 35 503.94 35C508.022 35 511.324 36.0969 513.845 38.2907C516.367 40.4674 517.851 43.441 518.296 47.2116L510.861 47.9314C510.449 45.7376 509.652 44.1523 508.468 43.1753C507.302 42.1813 505.741 41.6842 503.785 41.6842C501.641 41.6842 499.635 42.3355 497.765 43.6381C495.912 44.9407 494.429 46.9802 493.314 49.7568C492.199 52.5162 491.641 55.2755 491.641 58.0349C491.641 61.0514 492.362 63.3823 493.803 65.0277C495.261 66.673 497.07 67.4957 499.231 67.4957C501.238 67.4957 503.074 66.8444 504.737 65.5419C506.418 64.2393 507.67 62.3111 508.494 59.7574Z" fill="#314385"/>
<path d="M543.948 65.002H529L524.471 73.3316H516.495L537.825 35.6427H546.444L552.567 73.3316H545.209L543.948 65.002ZM542.996 58.7291L540.809 43.561L531.701 58.7291H542.996Z" fill="#314385"/>
<path d="M565.071 73.3316H557.301L565.2 35.6427H580.534C583.262 35.6427 585.414 35.9684 586.992 36.6196C588.588 37.2538 589.848 38.3164 590.774 39.8075C591.701 41.2815 592.164 43.0468 592.164 45.1035C592.164 47.0059 591.795 48.857 591.057 50.6566C590.32 52.4562 589.411 53.8958 588.33 54.9756C587.267 56.0554 586.118 56.878 584.883 57.4436C583.648 57.9921 581.984 58.412 579.891 58.7034C578.673 58.8748 576.392 58.9604 573.047 58.9604H568.082L565.071 73.3316ZM569.368 52.7133H571.761C575.86 52.7133 578.596 52.4562 579.968 51.942C581.341 51.4278 582.421 50.6051 583.21 49.474C583.999 48.3428 584.394 47.1002 584.394 45.7462C584.394 44.8378 584.188 44.0923 583.776 43.5096C583.382 42.9268 582.816 42.5069 582.078 42.2498C581.358 41.9756 579.737 41.8385 577.215 41.8385H571.658L569.368 52.7133Z" fill="#314385"/>
<path d="M592.138 73.3316L600.037 35.6427H607.781L599.908 73.3316H592.138Z" fill="#314385"/>
<path d="M623.553 73.3316H615.783L622.369 41.9413H611.306L612.618 35.6427H642.335L641.023 41.9413H630.114L623.553 73.3316Z" fill="#314385"/>
<path d="M660.139 65.002H645.191L640.663 73.3316H632.687L654.016 35.6427H662.635L668.758 73.3316H661.4L660.139 65.002ZM659.187 58.7291L657 43.561L647.892 58.7291H659.187Z" fill="#314385"/>
<path d="M673.724 73.3316L681.623 35.6427H689.367L682.806 67.033H702L700.688 73.3316H673.724Z" fill="#314385"/>
</svg>
