<svg width="308" height="72" viewBox="0 0 308 72" fill="none" xmlns="http://www.w3.org/2000/svg">
<path d="M172.893 42.5424H162.636L159.506 47.9564H153.992L168.589 23.4218H174.603L178.78 47.9564H173.736L172.893 42.5424ZM172.255 38.4303L170.72 28.5617L165.014 38.4303H172.255Z" fill="#314385"/>
<path d="M202.664 47.9564H197.723L190.734 31.4744L187.099 47.9564H182.156L187.574 23.4218H192.516L199.522 39.8353L203.14 23.4218H208.082L202.664 47.9564Z" fill="#314385"/>
<path d="M208.889 40.0523L213.945 39.801C214.017 41.3259 214.294 42.3538 214.776 42.8849C215.552 43.753 216.985 44.1871 219.08 44.1871C220.819 44.1871 222.083 43.89 222.86 43.2962C223.636 42.7021 224.021 41.9883 224.021 41.1489C224.021 40.4235 223.702 39.8067 223.07 39.3042C222.625 38.9329 221.397 38.3333 219.392 37.5109C217.388 36.6828 215.925 35.9917 215.004 35.4379C214.077 34.8838 213.355 34.1642 212.826 33.2791C212.296 32.3937 212.031 31.3601 212.031 30.1779C212.031 28.1049 212.819 26.3859 214.396 25.0209C215.968 23.656 218.249 22.9762 221.241 22.9762C224.274 22.9762 226.622 23.6503 228.283 25.0037C229.951 26.3572 230.865 28.1562 231.028 30.4007L225.936 30.6177C225.809 29.4469 225.358 28.5502 224.593 27.9221C223.835 27.2995 222.703 26.9855 221.21 26.9855C219.742 26.9855 218.694 27.231 218.068 27.7221C217.436 28.2134 217.123 28.8358 217.123 29.5841C217.123 30.2922 217.412 30.869 217.984 31.3316C218.562 31.7999 219.838 32.4395 221.806 33.2561C224.78 34.4783 226.67 35.4664 227.483 36.226C228.692 37.3452 229.295 38.7788 229.295 40.5378C229.295 42.7079 228.392 44.5583 226.586 46.0946C224.78 47.6308 222.27 48.4019 219.05 48.4019C216.828 48.4019 214.902 48.0476 213.271 47.3395C211.646 46.6314 210.496 45.649 209.822 44.3926C209.154 43.1362 208.841 41.6857 208.889 40.0523Z" fill="#314385"/>
<path d="M249.989 36.9912H239.955L237.535 47.9564H232.22L237.637 23.4218H242.946L240.858 32.8793H250.898L252.986 23.4218H258.296L252.884 47.9564H247.569L249.989 36.9912Z" fill="#314385"/>
<path d="M258.266 47.9564L263.683 23.4218H282.825L281.922 27.5338H268.083L266.813 33.0848H280.224L279.322 37.1969H265.868L264.339 43.8443H279.358L278.455 47.9564H258.266Z" fill="#314385"/>
<path d="M287.779 47.9564H282.463L287.881 23.4218H299.354C301.328 23.4218 302.863 23.616 303.965 23.9986C305.06 24.3869 305.945 25.0895 306.625 26.1174C307.299 27.1453 307.636 28.3847 307.636 29.8467C307.636 31.9369 306.98 33.6559 305.662 35.0094C304.35 36.3688 302.357 37.2082 299.691 37.528C300.371 38.1105 301.009 38.8759 301.611 39.8238C302.797 41.7428 304.121 44.4554 305.578 47.9564H299.871C299.414 46.5742 298.511 44.4212 297.169 41.4915C296.44 39.9095 295.664 38.8416 294.839 38.299C294.334 37.9735 293.449 37.8135 292.191 37.8135H290.018L287.779 47.9564ZM290.824 34.147H293.647C296.507 34.147 298.403 33.9872 299.336 33.6617C300.275 33.3361 301.003 32.8278 301.533 32.1312C302.062 31.4401 302.327 30.709 302.327 29.9494C302.327 29.0528 301.948 28.3847 301.184 27.9334C300.714 27.6651 299.697 27.5338 298.132 27.5338H292.281L290.824 34.147Z" fill="#314385"/>
<path fill-rule="evenodd" clip-rule="evenodd" d="M118.438 26.6815L118.653 26.8542L118.868 27.0268L119.083 27.1995L119.298 27.3721L119.47 27.5879L119.642 27.8038L119.857 28.0196L119.9 28.0628H119.943H120.029L120.716 25.0842L120.759 24.9548V24.9116V24.8684L119.9 24.3936L119.083 23.962L118.438 23.6167V24.6527L118.61 24.6957L118.782 24.7821L118.954 24.8253L119.126 24.8684L119.255 24.9548L119.384 25.0412L119.47 25.0842L119.599 25.1706L119.685 25.257L119.771 25.3433H119.814V25.3865V25.4297L119.771 25.4729L119.728 25.5159L119.685 25.5591H119.642H119.599L119.513 25.6023L119.384 25.6886L119.298 25.7317V25.775L119.255 25.8182L119.126 25.8614L119.04 25.9044H118.997H118.954H118.911L118.825 25.9476H118.696L118.524 25.9044L118.438 25.8614V26.6815ZM110.616 21.8467H110.917L111.992 21.9763L113.109 22.149H113.367L113.41 22.3648L113.453 22.4511V22.5807L113.496 22.7533V22.9691V23.0986V23.185V23.4008L113.474 23.4871L113.453 23.5735L113.44 23.6369L113.467 23.6457L113.596 23.7755L113.682 23.8187L113.982 24.1209L114.069 24.1636L114.112 24.2067L114.241 24.2939L114.283 24.2927L114.327 24.337L114.369 24.3359L114.413 24.3801L114.455 24.3786L114.585 24.4225L114.886 24.1211L114.971 23.949L114.971 23.7772L114.799 23.6028L114.714 23.603L114.629 23.5598L114.325 23.5593L113.753 23.6158L113.467 23.6459L113.44 23.6369L113.41 23.7893L113.367 24.0052L113.324 24.1346L113.281 24.3072V24.3936L113.238 24.4799L113.195 24.5663L113.152 24.6095H113.109L113.238 24.7821L113.324 24.9548L113.453 25.0842L113.582 25.2138L113.711 25.3433L113.84 25.4297L114.012 25.5159L114.183 25.6023L114.312 25.6455L114.527 25.6886L114.699 25.7317H114.914H115.129L115.344 25.6886L115.602 25.6455L115.86 25.6023H115.945H116.074L116.375 25.6886L116.633 25.775L116.934 25.9044L117.192 25.9908L117.45 26.1202L117.708 26.2498L117.966 26.3793L118.223 26.5519L118.438 26.6815V25.8614H118.395L118.266 25.775L118.094 25.6886L118.008 25.6023L117.966 25.5591H117.923L117.794 25.3865L117.622 25.2138L117.536 25.1274L117.45 25.0412L117.278 24.8253L117.192 24.6957L117.149 24.6095L117.106 24.5663V24.5231L117.063 24.4799V24.4369V24.3504L117.321 24.3936L117.579 24.4369L117.794 24.4799L118.008 24.5231L118.223 24.5663L118.438 24.6527V23.6167L118.266 23.4871L117.45 23.0123L116.676 22.5374L115.903 22.0194L115.129 21.5446L114.355 20.9833L113.625 20.4654L112.894 19.9043L112.207 19.343L111.476 18.7819L110.788 18.1775L110.616 18.0049V19.9905L110.702 20.0337L110.96 20.1201L111.046 20.1632L111.218 20.2496L111.433 20.379L111.691 20.5518L111.949 20.7677L112.163 20.9833L112.421 21.2424L112.55 21.372L112.679 21.5014L110.616 20.8971V21.8467ZM106.232 26.2498L106.318 26.1634L106.404 26.1202V26.0772H106.447L106.705 25.8182L106.748 25.775L106.791 25.7317L106.92 25.6023L107.135 25.3865L107.35 25.1274L107.565 24.9116L108.209 24.8684L108.295 24.7821L108.381 24.6957L108.424 24.6095L108.51 24.5663L108.553 24.4799L108.596 24.3936L108.682 24.3072L108.725 24.221V24.1778L108.768 24.1346L108.811 24.0484L108.854 23.8755L108.897 23.7893V23.7029L108.94 23.5735V23.5303V23.4871V23.2712V23.0986V22.8395L108.897 22.6237L108.854 22.408L108.811 22.2784V22.2352L108.768 22.1922V22.149L108.682 21.8899L108.596 21.6309H108.682L110.616 21.8467V20.8971L110.573 20.9403L110.487 20.9833L110.358 21.0697L110.23 21.1561L110.1 21.1992H110.057H109.971H109.842H109.714L109.627 21.1561L109.456 21.113L109.327 21.0265L109.284 20.9833L109.241 20.9403H109.198L109.069 20.8107L108.94 20.6813L108.811 20.5518L108.682 20.336L108.553 20.1632L108.811 20.0337L109.112 19.9475L109.37 19.9043H109.499H109.627L109.885 19.8611L110.186 19.9043H110.272L110.444 19.9475L110.616 19.9905V18.0049L110.143 17.5732L109.456 16.9689L108.854 16.3213L108.725 16.2351L108.639 16.1487L108.424 15.976L108.295 15.8896L108.166 15.8034L108.037 15.717L107.908 15.6738L107.651 15.5443L107.35 15.4579L107.178 15.4149H107.049L106.748 15.3285L106.232 15.2853V16.1055L106.447 16.1919L106.576 16.2351L106.748 16.3213L107.049 16.494L107.178 16.5804L107.35 16.6668L107.651 16.8826L107.737 16.9689L107.908 17.0983L108.123 17.3574L108.252 17.487L108.381 17.6164L108.467 17.789L108.596 17.9617H108.467L108.252 17.8754L108.037 17.789L107.822 17.7028L107.608 17.6596L107.436 17.6164H107.221H106.877H106.662H106.49L106.361 17.6596L106.232 17.7028V19.4726L106.361 19.5158L106.447 19.602L106.576 19.6884L106.662 19.7747L106.705 19.9043L106.748 20.0337V20.2064V20.379L106.705 20.4222L106.619 20.4654L106.49 20.5518L106.361 20.5949L106.318 20.6813H106.275L106.232 20.7245V20.7677V20.8107H106.275L106.318 20.8539L106.361 20.8971H106.49H106.533L106.619 20.9403H106.705H106.791H106.92H107.006H107.135H107.264H107.393H107.522L107.651 20.8971H107.822H107.994H108.166L108.037 20.9833L107.951 21.113L107.822 21.1992L107.694 21.2856L107.565 21.372L107.522 21.415H107.479L107.393 21.4582L107.264 21.5446L107.092 21.5878H107.049L107.006 21.6309H106.92L106.748 21.6741L106.662 21.7173H106.619H106.576L106.361 21.7605H106.232V26.2498ZM102.321 28.7536L102.751 28.5808L103.181 28.4081L103.61 28.1923L103.869 28.0196L104.169 27.847L104.427 27.6311H104.47L104.513 27.5879L104.556 27.5448L104.728 27.4585L104.986 27.2859L105.244 27.1132L105.502 26.8974L105.76 26.6815L105.974 26.4657L106.232 26.293V26.2498V21.7605H106.146H105.974H105.76H105.631H105.544L105.416 21.5446L105.33 21.3288L105.158 20.9833L104.986 20.638L104.9 20.5086L104.857 20.379L104.728 20.1201L104.599 19.9043L104.47 19.6452L104.298 19.4294L104.599 19.3862L104.9 19.343L105.158 19.2999H105.416L105.631 19.343H105.846L106.06 19.3862L106.189 19.4294L106.232 19.4726V17.7028H106.189L105.846 17.8322L105.717 17.9185L105.587 18.0481H105.544V18.0913L105.502 18.1343V18.1775L104.943 17.7028L104.685 17.4438L104.384 17.1847L103.869 16.6668L103.353 16.1487L103.31 16.1055V16.0624V16.0193V15.976L103.739 15.8896H103.954H104.169L104.384 15.8466H104.599L104.986 15.8896L105.373 15.9328H105.544L105.717 15.976L105.889 16.0193L106.103 16.0624L106.232 16.1055V15.2853L105.717 15.2423L105.201 15.1991H104.685L104.169 15.1559H103.61H103.095L102.536 15.1991H102.321V19.2999L102.493 19.1703L102.665 19.1273L102.794 19.0841L103.052 18.9977L103.267 18.9545H103.524L103.782 18.9115L103.826 18.9977L103.869 19.0841L103.912 19.2567V19.4294V19.602V19.6452L103.869 19.6884V19.7747L103.826 19.9475L103.739 20.0769L103.654 20.2496L103.524 20.4222L103.396 20.5518L103.353 20.638H103.31V20.6813L103.267 20.7245L103.138 20.8539L102.837 21.1561L102.579 21.4582L102.321 21.7605V22.4511L102.45 22.5807L102.622 22.8395L102.751 23.0554L102.837 23.3144V23.4008V23.4871V23.5735L102.794 23.6597L102.708 23.7461H102.665L102.622 23.7893H102.579L102.536 23.8325H102.45H102.364H102.321V26.293L102.45 26.3793L102.622 26.5519L102.837 26.6815L103.009 26.8542L103.138 27.07L103.482 27.5879H103.267L103.052 27.5448H102.794L102.579 27.5017L102.364 27.4153H102.321V28.7536ZM100.817 17.9617H100.731H100.602H100.516H100.473H100.43H100.387H100.344V18.0049V18.0913V18.2207V18.3071V18.4366L100.387 18.523V18.6092L100.43 18.6956L100.473 18.7819L100.516 18.8251L100.602 18.9115L100.645 18.9545L100.731 18.9977L100.817 19.0409L100.903 19.1273H100.989L101.075 19.1703V19.2135V19.2567V19.2999H101.032L100.602 19.4726L100.172 19.602L99.9573 19.6452L99.7426 19.6884L99.3128 19.7316L99.0978 19.7747H98.8828H98.4531H98.2812L98.0662 19.7316L97.8514 19.6884H97.6365H98.0232L97.9375 19.4294L97.8514 19.2567L97.7226 19.0409L97.6365 18.8683L97.5076 18.6524L97.3788 18.4798L97.2065 18.3071L97.0777 18.1775L96.906 18.0049L96.7341 17.8754L96.5622 17.7458L96.3471 17.6164L96.1324 17.487L95.9175 17.4005L95.6596 17.2711L95.4445 17.1847H95.1867H94.7141L94.2843 17.2279L93.3816 17.3141L92.9518 17.3574L92.522 17.4438L92.0924 17.487L91.6626 17.6164L91.3186 17.8322L90.9747 18.0481L90.803 18.1343H90.7599L90.7169 18.1775L90.6311 18.2207L90.2871 18.4366H91.0179L91.7052 18.523L92.3931 18.566L92.7367 18.6092L93.0809 18.6524L93.4246 18.6956L93.7256 18.7819L94.0694 18.8251L94.3701 18.9115L94.6711 18.9977L94.9718 19.0841L95.5735 19.2567L95.6165 19.2999V19.343L95.6596 19.3862V19.4294V19.5158V19.5588V19.6884L95.6165 19.7316L95.5307 19.8179L95.4877 19.9043L95.4445 19.9475L95.4015 19.9905L95.3586 20.0769L95.3156 20.1201V20.2064V20.2496L95.2727 20.2928V20.336L95.3156 20.379V20.4222L95.3586 20.4654L95.4015 20.5086L95.4445 20.5518H95.4877L95.5735 20.5949H95.6165H95.7026L95.7884 20.638H95.8745H95.9605H96.1754H96.2611H96.3901H96.5192L96.648 20.5949H96.949H96.9918H97.0777L97.2065 20.638L97.4216 20.6813L97.8945 21.1992L98.1522 21.4582L98.3673 21.7173L98.8828 22.1922L98.9688 22.2784L99.0978 22.408L99.3558 22.6237L100.688 23.6167H100.344H100.086L99.7854 23.5735H99.5277L99.2269 23.5303L98.9688 23.4871L98.711 23.4439L98.4531 23.4008L98.1954 23.3144L97.9803 23.2282L97.7226 23.1418L97.5076 23.0554L97.2927 22.9691L97.0777 22.8395L96.8629 22.7101L96.6911 22.5807L96.3471 22.408L96.0463 22.1922L95.6596 22.0194L95.4877 21.9331L95.3156 21.8899L94.929 21.7173L94.7141 21.6741L94.542 21.5878L94.3273 21.5446L94.1124 21.5014L93.7256 21.415L93.5533 21.4582H93.4246L93.2958 21.5014L93.2097 21.5446L93.1237 21.5878L93.0378 21.6741L92.9948 21.7173V21.7605L92.9518 21.8035L92.9948 21.8467V21.9331L93.0378 21.9763L93.1237 22.0194L93.2097 22.1058L93.2958 22.149L93.4246 22.2352L94.2843 22.6669L95.1867 23.0554L95.6165 23.2712L96.0463 23.4439L96.906 23.8325H97.0348L97.1637 23.8755V24.0484V24.1346L97.2065 24.221L97.2496 24.3072V24.3936L97.2927 24.4369L97.3358 24.5231L97.4216 24.6527L97.5076 24.6957L97.5507 24.7821L97.6795 24.8684L97.7656 24.9116L97.8514 24.9548L98.0232 24.998L98.2382 25.0842L98.4531 25.1274L98.625 25.2138L98.7971 25.3001L98.9258 25.4297L99.0978 25.5159L99.2269 25.6455L99.3558 25.775L99.4846 25.9044L99.5707 26.034L99.6995 26.1634L99.7854 26.3361L99.8284 26.4657L99.9143 26.6383L100 26.8542H99.8713L99.6137 26.7678L99.4416 26.7246L99.2269 26.6815L99.0118 26.7246L98.8399 26.7678L98.668 26.811L98.4961 26.9404L98.3243 27.07L98.2382 27.1132L98.1522 27.1563L98.0232 27.2859L97.8945 27.3721L97.8084 27.4585L97.7226 27.5017L97.6795 27.5448H97.6365V27.5879L97.8084 27.7176L97.9375 27.8902L98.2812 28.1491L98.4531 28.2355L98.625 28.3649L98.7971 28.4513L98.9688 28.5808L99.1409 28.6672L99.3128 28.7104L99.6565 28.8398L99.8284 28.9262H100L100.172 28.9692L100.387 29.0125H100.731H101.118L101.333 28.9692H101.505L101.934 28.883L102.321 28.7536V27.4153L102.192 27.3721L101.977 27.2859L101.762 27.2427L101.548 27.1132L101.376 27.0268L101.161 26.8974L100.989 26.7678L100.774 26.6383L100.602 26.5087L100.43 26.3361L100.258 26.1634L100 25.9044L99.7854 25.6455L99.5707 25.3865L99.3558 25.0842L99.6565 25.1706L100 25.257L100.258 25.3433L100.559 25.4297L100.817 25.5159L101.075 25.6023L101.333 25.7317L101.59 25.8614L101.805 25.9476L102.02 26.0772L102.235 26.2498L102.321 26.293V23.8325H102.278L102.106 23.8755L101.977 23.8325H101.848L101.719 23.7893H101.634L101.505 23.7029L101.376 23.5735L101.247 23.4871L101.161 23.3576L101.118 23.2712L101.075 23.2282L100.989 23.0554L100.903 22.8827L100.86 22.7965L100.817 22.7101L100.774 22.4942V22.3216L100.731 22.149V21.9331L100.774 21.6741L100.817 21.415L100.86 21.1992L100.946 20.9403L100.989 20.7677L101.075 20.638L101.29 20.2928L101.505 19.9905L101.59 19.8611L101.762 19.7316L101.848 19.602L101.977 19.5158L102.235 19.343L102.321 19.2999V15.1991L101.977 15.2423L101.419 15.2853L100.86 15.3285L100.258 15.3717L99.6995 15.4579L99.0978 15.5443L98.4961 15.6308L97.8945 15.717H97.7656L97.6365 15.7602H97.5076L97.4216 15.8034L97.2927 15.8466L97.2496 15.8896L97.1207 15.976L97.0348 16.0193V16.1055L96.9918 16.1487V16.2351L96.949 16.2781L96.9918 16.3645V16.4509L97.0348 16.5372L97.0777 16.6236L97.1637 16.7098H97.2927L97.4216 16.6668L97.7226 16.6236L98.0232 16.5804L98.3673 16.5372H98.668H98.9688H99.2697L99.5277 16.5804L99.8284 16.6236L100.086 16.6668L100.344 16.753L100.602 16.8394L100.86 16.9257L101.118 17.0121L101.376 17.1415L101.59 17.2711L101.805 17.4438L101.848 17.5732V17.6164L101.891 17.6596V17.7458L101.934 17.8322L101.977 17.8754L102.02 17.9617V18.0049V18.0481L102.063 18.0913V18.1343V18.1775V18.2207V18.2639V18.3071H102.02V18.3502H101.977H101.934H101.891H101.848H101.805H101.762H101.719H101.676L101.634 18.3071H101.59H101.548L101.505 18.2639H101.462L101.419 18.2207H101.376L101.29 18.1775L101.247 18.1343L101.118 18.0913H101.075L101.032 18.0481L100.946 18.0049L100.817 17.9617ZM102.321 21.7605V22.4511L102.278 22.408L102.063 22.149L102.321 21.8035V21.7605Z" fill="#314385"/>
<path fill-rule="evenodd" clip-rule="evenodd" d="M93.7259 20.1632H94.0696L93.8117 20.0337L93.5108 19.9043L93.21 19.7747L92.9521 19.6885L92.6082 19.6021L92.4794 19.5588H92.3074L92.0066 19.5158L91.7055 19.4726H91.4049H91.0611H90.8889L90.7602 19.5158L90.4164 19.5588L90.0723 19.6452L89.7287 19.6885L89.3849 19.8179L89.041 19.9043H88.9121L88.8262 19.8611L88.5683 19.7747L88.3534 19.6885L88.1383 19.6021L87.8806 19.5588L87.6227 19.4726H87.4079L87.15 19.4294H86.8921L86.5913 19.3862L86.3333 19.4294H86.0755H85.7747L85.4736 19.4726L85.2159 19.5588L84.9151 19.6021L84.614 19.6885V19.7317V19.7747L84.657 19.8179V19.9043L84.8291 20.0769L84.9581 20.2928L85.13 20.5086L85.3449 20.6813L85.5167 20.8539L85.7317 21.0266L85.9036 21.1992L86.1615 21.3288L86.3763 21.4583L86.6342 21.5879L86.8921 21.7173L87.15 21.8035L87.4079 21.8899L87.7087 21.9763L87.9666 22.0626L88.3104 22.149H88.3534V22.1058H88.3964H88.4393L88.4823 22.0626L88.5683 21.9763L88.6542 21.8899L88.6972 21.8035L88.7402 21.7173V21.5879V21.5014L88.6972 21.415L88.6542 21.3288L88.6113 21.2424L88.5253 21.1562L88.3964 21.0698L88.2672 20.9834L88.1383 20.8971L87.9666 20.8107L87.7517 20.7245L87.5798 20.6813L87.5368 20.5949V20.5086V20.4654V20.4222L87.5798 20.336H87.6227L87.7087 20.2928H87.7517H87.8806H87.9666H88.0955L88.2244 20.336L88.3534 20.379L88.5253 20.4222L88.7402 20.4654L88.9121 20.5086L89.1268 20.5949L89.2989 20.6381L89.6857 20.7245L90.0295 20.8107L90.2445 20.8539H90.4164L90.5883 20.8971H90.6744H90.7602L90.8889 20.9403H91.0611H91.233H91.3189H91.4049H91.5338H91.7055L91.8346 20.8971H92.0066L92.1355 20.8539H92.1785H92.2215H92.2645H92.3074L92.3504 20.8107H92.3934L92.5653 20.7677L92.6512 20.7245L92.8232 20.6813L92.9093 20.6381L93.0381 20.5949L93.167 20.5086L93.296 20.4654L93.3389 20.4222L93.3819 20.379L93.5108 20.336L93.5536 20.2928L93.5967 20.2496L93.7259 20.1632Z" fill="#314385"/>
<path fill-rule="evenodd" clip-rule="evenodd" d="M107.178 37.3438L107.307 37.2574L107.951 36.869L109.198 36.092L110.444 35.2718L111.648 34.4947H111.906H112.507L113.152 34.5379L113.754 34.5811L114.398 34.6243L114.742 34.7537L115.086 34.8833L115.43 35.0128L115.774 35.1422L116.16 35.2286L116.547 35.3148L116.891 35.4012L117.321 35.4876V35.4444H117.364H117.407H117.45V35.4012L117.665 35.1422L117.88 34.8833L118.094 34.6243L118.31 34.3652L118.524 34.1494L118.782 33.9335L118.997 33.7177L119.255 33.5018L119.298 33.243V32.8975V32.7249V32.5522V32.3796V32.2069L119.212 31.9479L119.169 31.6456L119.126 31.5162L119.04 31.4298L118.911 31.214L118.868 31.1277L118.782 31.0413V30.9119L118.825 30.7824L118.911 30.6096L118.954 30.437L119.04 30.2643L119.083 30.1349L119.126 29.9623L119.169 29.8326L119.212 29.7464L119.255 29.6168V29.5306L119.298 29.4442V29.3579V29.3147V29.2283V29.1851H119.255V29.1421H119.212H119.169H119.126L119.083 29.1851H119.04L118.997 29.2283L118.911 29.3147L118.868 29.3579L118.782 29.4442L118.696 29.5306L118.567 29.6168L118.481 29.7464L118.395 29.8326L118.267 29.9623L118.18 30.1349L118.051 30.2643L117.966 30.8255L118.137 30.9551L118.267 31.0413L118.395 31.1709L118.481 31.3003L118.567 31.4298L118.653 31.5594V31.6888L118.696 31.8184L118.653 31.9479V32.1205L118.61 32.25L118.524 32.3796L118.438 32.5522L118.31 32.6817L118.18 32.8543L118.051 33.0271L117.966 33.0701L117.88 33.1134L117.837 33.1566L117.751 33.1998L117.665 33.243L117.622 33.286H117.536H117.493L117.407 33.243H117.364L117.321 33.1998L117.235 33.1566L117.192 33.1134L117.149 33.0271L117.063 32.9839L117.02 32.8975L116.891 32.6386L116.762 32.3796L116.676 32.1205L116.59 31.9047L116.504 31.6888L116.418 31.473L116.332 31.2572L116.289 31.0845L116.246 30.8687V30.696L116.203 30.5234V30.3507L116.246 30.2211V30.0485L116.289 29.9191L116.332 29.7894L116.59 29.7032L116.719 29.66H116.805L117.02 29.5738L117.192 29.5306L117.235 29.4874L117.321 29.4442H117.364L117.407 29.401L117.45 29.3579V29.3147V29.2715L117.407 29.2283L117.364 29.1851H117.321H117.235L117.192 29.1421L117.02 29.0989H116.805L116.719 29.0557H116.59H116.332H116.203L116.074 29.0989L115.645 29.1851L115.172 29.2715L114.699 29.401L114.226 29.5306L113.711 29.7032L113.195 29.8759L112.636 30.0485L112.077 30.2211V30.2643H112.035L111.992 30.3075H111.949H111.906H111.862H111.82L111.777 30.2643H111.734L111.648 30.2211L111.605 30.1781H111.562L111.519 30.1349L111.39 30.0485L111.304 29.9623L111.046 29.7894L110.831 29.6168L110.659 29.4874L110.53 29.3147L110.401 29.1851L110.358 29.0557L110.315 28.9262V28.8398L110.358 28.7536L110.444 28.6672L110.53 28.5808L110.702 28.4945L110.874 28.4513L111.089 28.4081L111.347 28.3219H111.648V28.1923V28.1491L111.605 28.0628V27.9764L111.562 27.9334L111.519 27.8902L111.476 27.8038H111.433L111.347 27.7606H111.261L111.175 27.7176H111.089H111.003L110.917 27.7606H110.788L110.659 27.8038H110.53L110.444 27.847L110.23 27.8902H110.057H109.971L109.885 27.9334H109.8H109.757L109.628 27.8902H109.542V27.847H109.499L109.456 27.8038V27.7176V27.6744V27.6312L109.499 27.5448L109.585 27.4585L109.671 27.3289L109.714 27.2859L109.8 27.1995L109.928 27.07L109.971 27.0268L110.014 26.9836L110.057 26.9404L110.1 26.8974V26.8542L110.057 26.811L110.014 26.7678H109.971H109.885L109.842 26.7246H109.757H109.671H109.542H109.456H109.241H109.069H108.94H108.897L108.725 26.6816L108.682 26.6383H108.639L108.553 26.5951H108.51L108.424 26.5087L108.381 26.4225L108.338 26.3361V26.2931V26.2499V26.1635V26.1203L108.381 25.9908L108.424 25.8614L108.51 25.6886L108.596 25.5159L108.682 25.3433L108.639 25.3001L108.553 25.257L108.424 25.2138H108.295H108.252L108.166 25.257L108.08 25.3001H108.037L107.951 25.3433L107.865 25.4297L107.737 25.5591L107.565 25.6886L107.479 25.8182L107.393 25.9044L107.221 26.0772L107.178 26.1203V31.5162L107.264 31.5594L107.822 31.9479L108.381 32.3796L108.94 32.8543L109.542 33.3292L109.327 33.286H109.112L108.897 33.243H108.725L108.553 33.286L108.424 33.3292L108.252 33.3724L108.123 33.4588L107.994 33.545L107.822 33.6315L107.694 33.7609L107.565 33.9335L107.393 34.1062L107.264 34.279L107.178 34.4516V37.3438ZM102.064 40.6674L102.106 40.6242L102.321 40.538L102.493 40.4516L102.88 40.2357L103.224 40.0199L103.568 39.804L103.954 39.6314L104.084 39.5019L104.212 39.4155H104.255L104.298 39.3725L104.341 39.3293L104.427 39.2861L104.642 39.1135L104.857 38.9408L105.072 38.7682L105.287 38.6387L105.459 38.5525L105.631 38.4229L105.76 38.3367L105.889 38.2071L106.017 38.1208L106.103 38.0344L106.232 37.9912L106.318 37.905L106.404 37.8618L106.447 37.8186L106.533 37.7323H106.576L106.619 37.6891L106.662 37.6459H106.705L107.178 37.3438V34.4516L107.135 34.4947L106.963 34.7537L106.791 35.0128L106.619 35.2718L106.533 35.4012L106.447 35.5739L106.275 35.8761L106.103 36.2214L105.889 36.5667L105.803 36.7393L105.717 36.9121L105.588 37.128L105.502 37.3438L105.33 37.171L105.201 36.9984L105.072 36.8257L104.986 36.6099L104.943 36.5237L104.9 36.3941L104.857 36.2214L104.814 36.0056V35.7465V35.6171V35.5307L104.857 35.2718L104.9 35.0128L104.986 34.7537L105.072 34.4947L105.158 34.1926L105.33 33.8903L105.459 33.5882L105.588 33.3724L105.674 33.1566L105.76 32.9407L105.803 32.7249L105.846 32.509V32.3364V32.1205V31.9479L105.803 31.732L105.76 31.5594L105.674 31.3868L105.588 31.214L105.459 31.0413L105.33 30.8687L105.158 30.696L105.029 30.5234V30.3938L105.588 30.6528L106.103 30.9119L106.662 31.214L107.178 31.5162V26.1203L107.006 26.2931L106.92 26.3793L106.834 26.4657L106.705 26.5519L106.619 26.6383L106.447 26.811L106.232 26.9836L106.103 27.07L106.017 27.1563L105.889 27.2427L105.803 27.3289L105.588 27.5017L105.373 27.6312L105.244 27.7176L105.158 27.8038L104.9 27.9764L104.685 28.1061L104.427 28.2355L104.341 28.3219L104.212 28.4081L103.954 28.5378L103.826 28.5808L103.739 28.6672L103.482 28.7966L103.224 28.9262L102.966 29.0557L102.708 29.1851L102.407 29.2715L102.149 29.401L102.064 29.4442V31.2572L102.149 31.214L102.321 31.1277L102.45 31.0845L102.536 31.0413L102.708 30.9119L102.923 30.7824L103.009 30.696L103.095 30.6528L103.224 30.5666L103.31 30.4802H103.396L103.525 30.3938H103.568L103.654 30.3507H103.697H103.782H103.869L103.954 30.3938L104.041 30.437L104.084 30.5234V30.5666L104.126 30.6096L104.169 30.7392V30.8255L104.212 30.8687V30.9551V31.0413V31.2572V31.473H104.169L104.126 31.5162H104.041L103.954 31.5594L103.826 31.6026L103.739 31.6456L103.568 31.6888L103.396 31.732L103.224 31.7753L103.009 31.8615L102.794 31.9047L102.536 31.9911L102.278 32.0341L102.064 32.1205V33.286L104.298 33.3724V33.5018L104.084 33.6315L103.954 33.7177L103.611 33.9335L103.31 34.1062L103.138 34.1926L103.009 34.2358L102.837 34.322L102.665 34.3652L102.536 34.4084L102.407 34.4516L102.106 34.4947H102.064V40.6674ZM98.4962 35.099L98.6681 35.0559L98.9688 34.9696L99.2698 34.8833L99.0979 35.0559L98.9258 35.2286L98.625 35.5739L98.4962 35.7035V37.6027L98.625 37.4733L98.8399 37.2574L99.0118 37.0848L99.1839 36.9121L99.3558 36.7825L99.5277 36.6531L99.6996 36.5237L99.8284 36.4373L99.9573 36.3509L100.086 36.2646L100.215 36.1782L100.301 36.135L100.387 36.092H100.473H100.559H100.602H100.688L100.731 36.135L100.774 36.1782L100.817 36.2646V36.3509V36.4373V36.4805V36.5237V36.6531V36.7393L100.774 36.869L100.731 36.9984L100.645 37.2142L100.559 37.3006L100.516 37.4301L100.43 37.5595L100.344 37.6459L100.215 37.7754L100.129 37.905L100 37.9912L99.8713 38.1208L99.7426 38.2071L99.6137 38.3367L99.3128 38.5525L98.9688 38.7682L98.7541 38.8544L98.5822 38.984L98.4962 39.0271V42.1783L98.625 42.1351L98.8399 42.0489L99.3128 41.8761L99.7426 41.7034L100.129 41.5308L100.215 41.4876L100.344 41.4444L100.559 41.3581L100.645 41.315L100.731 41.2717L100.946 41.1855L101.333 41.0129L101.762 40.84L102.064 40.6674V34.4947H101.977H101.848L101.548 34.4516H101.419L101.29 34.4084L101.032 34.322L100.817 34.2358L100.559 34.0631L100.473 33.9767L100.344 33.8903L100.129 33.6745L99.9143 33.4588L99.8713 33.4156V33.3724V33.286V33.243L102.064 33.286V32.1205H102.02L101.848 32.1637H101.719L101.548 32.2069H101.419H101.247H101.118H100.946H100.817L100.645 32.1637L100.559 32.1205H100.473L100.172 32.0341L100 31.9911L99.8284 31.9047L99.4847 31.7753L99.3128 31.6888L99.2698 31.6456H99.2269L99.1409 31.6026L98.9688 31.5162L98.7971 31.3868L98.4962 31.214V35.099ZM102.064 29.4442V31.2572L101.977 31.3003L101.762 31.3868L101.591 31.4298L101.419 31.473H101.204H101.032H100.817H100.731H100.645L100.43 31.4298L100.258 31.3868L100.043 31.3436L99.8713 31.2572L99.7426 31.214L99.6137 31.1277L99.5277 31.0413L99.4847 30.9983L99.3988 30.9119L99.3558 30.8255V30.7824L99.3128 30.696V30.6528L99.3558 30.5666L99.3988 30.4802L99.4417 30.437L99.4847 30.3507L99.5707 30.3075L99.6996 30.2211L99.7854 30.1781H99.8284L99.9143 30.1349H100L100.129 30.0917L100.43 30.0053L100.731 29.9191L100.774 29.8759H100.86L101.032 29.8326L101.29 29.7032L101.591 29.6168L101.848 29.4874L102.02 29.4442H102.064ZM93.7256 26.8542L93.6826 26.9404V26.9836L93.6394 27.07L93.5964 27.1563V27.1995L93.5534 27.2859L93.4677 27.4585L93.3386 27.6744L93.2958 27.7606L93.2528 27.8038V27.847H93.2098V27.8902L93.1667 27.9334L93.1237 27.9764L93.0809 28.0628L92.9949 28.1491L92.9518 28.1923L92.866 28.2787L92.7368 28.4081L92.6509 28.4513L92.6079 28.4945L92.4792 28.5808L92.3071 28.6672H92.2213L92.1783 28.7104H92.0924H92.0494L92.0064 28.7536H91.9203H91.8773L91.8343 28.7966H91.7913H91.7483H91.6626H91.4907L91.4047 28.7536L91.3186 28.7104L91.2328 28.6672H91.1898H91.1468H91.1037H91.0609V28.7104V28.7536V28.7966L91.1037 28.8398L91.1468 28.9262L91.2328 28.9693L91.2758 29.0557L91.3617 29.1851L91.4477 29.2715L91.5335 29.4442L91.6196 29.5738L91.7053 29.7464L91.7913 29.9191L91.8343 30.0917L91.8773 30.2643L91.9203 30.4802V30.6528V30.8687V31.0845V31.3003V31.5594L91.8773 31.7753L91.8343 32.0341L91.7913 32.2932L91.9203 32.1637L92.0494 32.0341L92.2213 31.9047L92.3932 31.7753L92.6079 31.6456L92.823 31.5162L93.0379 31.3868L93.2958 31.3003L93.5105 31.214L93.6394 31.1709H93.7684L94.0694 31.214H94.1982L94.3273 31.3003L94.499 31.3436L94.6281 31.4298L94.8 31.5162L94.929 31.6026L95.1009 31.732L95.2728 31.8615L95.4015 31.9911L95.5735 32.1637L95.7026 32.2932L95.8315 32.4658L95.9605 32.5522L96.0894 32.6817L96.2181 32.7681L96.3471 32.8543L96.4762 32.9407L96.6481 32.9839H96.7771L96.906 33.0271H97.0777L97.2066 32.9839L97.3788 32.9407L97.5507 32.8975L97.7226 32.8113L97.8945 32.7681H98.2383H98.1954L98.1522 32.8113L98.0232 32.8975H97.9803L97.8945 32.9407L97.8084 33.0271L97.6796 33.0701L97.5937 33.1134L97.5507 33.1566L97.2928 33.243L97.1637 33.286L97.0349 33.3724L96.7341 33.4588L96.605 33.5018L96.4762 33.545L96.1754 33.6745L95.8315 33.7177L95.6596 33.7609L95.5307 33.8041L95.1867 33.8903L94.843 33.9335L94.7569 33.9767H94.6281L94.456 34.0199L94.1124 34.0631L93.7256 34.1062L93.3386 34.1494L93.5534 34.279L93.7684 34.4084L93.9833 34.4947L94.0694 34.5811H94.1124L94.1552 34.6243L94.3701 34.7105L94.413 34.7537H94.456L94.542 34.8401L94.7141 34.9263L94.8 34.9696H94.843L94.886 35.0128H94.929L94.9718 35.0559L95.0579 35.099L95.2298 35.1422L95.2728 35.1854H95.3156L95.3586 35.2286L95.4877 35.2718L95.6166 35.3148L95.7456 35.4012L95.8745 35.4444L95.9605 35.4876H96.0894H96.1754L96.3471 35.5307H96.4762L96.6481 35.4876H96.82H96.9918L97.2066 35.4444L97.4217 35.4012L97.6365 35.358L97.8515 35.2718L98.1092 35.2286L98.3673 35.1422L98.4962 35.099V31.214L98.4103 31.1709L98.2383 31.0413L98.0662 30.9119L97.8515 30.7392L97.6796 30.6096L97.2928 30.2643L97.1207 30.0917L96.9918 30.0053L96.906 29.9191L96.7341 29.7464L96.6481 29.66L96.5622 29.5738L96.5192 29.5306L96.5622 29.4874L96.605 29.401L96.6481 29.3147V29.2715V29.1851H96.6911V29.0989V29.0557V29.0125V28.9693L96.6481 28.9262V28.7966L96.605 28.7104L96.5622 28.5808L96.5192 28.5378V28.4945V28.4513H96.4762V28.4081L96.4332 28.3649V28.3219L96.3901 28.2355L96.3041 28.1061L96.2181 28.0197L95.9175 27.6744L95.6166 27.3289L95.4877 27.1132L95.3586 26.9404L95.1009 26.5951L94.9718 26.4225L94.843 26.2499L94.6281 25.8614L94.413 25.4729L94.1982 25.0842V25.257V25.3433V25.3865L94.1552 25.4729V25.5591V25.6023V25.6455L94.1124 25.6886V25.775L94.0694 25.8614L94.0264 25.9044L93.9833 25.9908H93.9403V26.034L93.8545 26.0772H93.8115H93.7684H93.7256H93.6394L93.5964 26.034H93.5534L93.5105 25.9908L93.4247 25.9476H93.3817L93.0379 25.7318L92.6509 25.5159L92.2643 25.3001L91.8773 25.0842L91.4907 24.8684L91.1037 24.6957L90.6741 24.5231L90.2871 24.3505V24.4369V24.4799V24.5231L90.3301 24.5663L90.4592 24.8254L90.5881 25.0412L90.7169 25.2138L90.8887 25.4297L91.0179 25.6023L91.2328 25.775L91.4047 25.9476L91.6196 26.0772L91.8343 26.2067L92.0924 26.3361L92.3071 26.4225L92.5651 26.5519L92.823 26.6383L93.1237 26.7246L93.3817 26.7678L93.7256 26.8542ZM98.4962 35.7035V37.6027L98.4103 37.6459L98.1954 37.905L97.9803 38.1208L97.7226 38.3797L97.4647 38.5955L97.2496 38.8544L96.949 39.1567L96.82 39.2861L96.6911 39.4588L96.3901 39.761L96.1324 40.1063L96.6911 39.8904L96.949 39.761L97.2066 39.6746L97.6796 39.4155L98.1522 39.1997L98.4962 39.0271V42.1783L98.4103 42.2215L97.9803 42.351L97.5077 42.4804L97.1207 42.61L96.7341 42.7394L96.3471 42.9121L96.0034 43.0847L95.6596 43.2575L95.3156 43.4302L94.9718 43.646L94.6711 43.8619L94.3701 44.0777L94.0694 44.3366L93.7684 44.5956L93.5105 44.8547L93.2098 45.1137L92.9518 45.4158L92.6939 45.7181L92.4792 46.0634L87.3215 47.272H87.1928H87.1498H87.0637L86.1183 48.2216L85.1728 49.1282L84.2271 50.0778L83.2817 50.9844L82.293 51.8908L81.6485 52.5384V51.632L81.9062 51.3297L82.1209 51.0706L82.207 50.9412L82.3358 50.8118L82.5509 50.5095L82.723 50.2505L82.8947 49.9484L83.0668 49.6462L83.2386 49.3873L83.3675 49.085L83.4966 48.7829L83.6254 48.4807L83.7541 48.1786L83.8403 47.9196L83.5824 48.0058L83.3675 48.0922L83.1526 48.2216L82.9375 48.3512L82.723 48.4807L82.5509 48.6101L82.3789 48.7397L82.207 48.9124L82.0351 49.085L81.8632 49.2577L81.7343 49.4303L81.6485 49.5599V48.2648L81.7773 48.1786L81.949 48.0922L82.0781 47.9628L82.25 47.8764L82.3789 47.7469L82.5509 47.6173L82.8087 47.4015L82.9375 47.272L83.0668 47.1426L83.1956 46.9698L83.3247 46.8403L83.5396 46.5813L83.6683 46.4086L83.7541 46.2792L83.9692 45.977L84.0983 45.8043L84.1413 45.7181L84.1841 45.6317L84.2701 45.459L84.3562 45.2864L85.1298 44.8547L85.9033 44.3798L85.9894 44.3366L86.0752 44.2936L86.2041 44.3798L86.333 44.4662L86.4619 44.5525L86.6339 44.5956L86.8058 44.6821L86.9349 44.7251L87.1498 44.7683L87.3215 44.8115H87.3645H87.4077H87.4505H87.5796L87.9234 44.7251L88.267 44.6389L88.5681 44.5525L88.9118 44.5094L89.5566 44.3366L89.8575 44.2504L89.9862 44.2072L90.1583 44.164L90.4162 44.0777L90.7169 43.9913L91.2328 43.8187L91.4907 43.7323L91.7053 43.646L92.1783 43.4734L92.2213 43.4302V43.387V43.3438L91.9634 43.1279L91.8343 42.9985L91.7483 42.8691L91.6196 42.7394L91.5335 42.6532L91.3186 42.3942L91.2328 42.2215L91.1037 42.0919L90.9317 41.7898L90.803 41.4876L90.7169 41.315L90.6311 41.1423L90.5881 41.0991H90.545H90.502L90.545 40.797V40.6674V40.5812V40.4948V40.1927V40.0199V39.8472L90.502 39.5019L90.4592 39.1567L90.4162 38.7682L90.3732 38.4229H90.502L90.6311 38.5093L90.7169 38.6387L90.8458 38.7682L90.9317 38.984L91.0609 39.1997L91.1468 39.5019L91.2758 39.804L91.4047 40.1495L91.4477 40.3653L91.5335 40.538L91.6196 40.6674L91.7053 40.84L91.7913 40.9697L91.8773 41.0991L92.0064 41.1855L92.0924 41.2717L92.2213 41.315L92.3502 41.4013H92.4792L92.6079 41.4444H92.7368H92.909L93.0379 41.4013L93.2098 41.3581L93.0379 41.0991L92.823 40.84L92.6939 40.5812L92.522 40.3221L92.3932 40.0199L92.2643 39.7178L92.1352 39.4155L92.0494 39.0703L91.9634 38.725L91.8773 38.3797L91.8343 38.0344L91.7913 37.6459L91.7483 37.2574V36.8257V36.3941V35.9624V35.7035L91.4477 35.6171L91.1468 35.5307L90.8887 35.4012L90.6311 35.3148L90.3732 35.1854L90.1583 35.099L89.9432 34.9696L89.7285 34.8401L89.5996 34.7969L89.5135 34.7105L89.3416 34.5811L89.2128 34.4516L89.0407 34.322L88.9118 34.1494L88.783 34.0199L88.6969 33.8473L88.6111 33.7177L88.5681 33.6745V33.6315V33.5018L88.74 33.4156L88.826 33.3724L88.9118 33.3292L89.0407 33.286L89.1696 33.243L89.2556 33.1998H89.2986V33.1566H89.2556L89.1696 33.1998H89.0836L88.9549 33.243L88.783 33.286H88.6969L88.6111 33.3292L88.3532 33.4156L88.1381 33.5018H88.0522L87.9664 33.545H87.9234L87.8373 33.5882L87.7085 33.6315L87.6224 33.7177L87.4936 33.7609L87.3645 33.8473L87.2355 33.9335L87.1067 34.0199L86.9349 34.1062L86.8058 34.2358L86.6339 34.322L86.4189 34.4516L86.2471 34.5811L86.0322 34.7105L86.0752 34.4947L86.1183 34.279L86.2471 33.8473L86.333 33.4588L86.4189 33.0701L86.5051 32.6817L86.5911 32.3364L86.6769 32.0341L86.763 31.732L86.8058 31.4298L86.8918 31.1277L86.9779 30.9119L87.0637 30.6528L87.1067 30.437L87.1928 30.2643L87.2355 30.0917L87.3215 29.9191V30.0485L87.5796 30.1349L87.8373 30.2643L88.0952 30.3938L88.3532 30.5666L88.6111 30.7392L88.826 30.9119L89.0407 31.1277L89.2556 31.3868L89.3416 31.473L89.4705 31.6026L89.6426 31.8615L89.8575 32.1205L90.0292 32.4228L90.2013 32.7681L90.3301 33.0701L90.502 33.4156L90.5881 33.5882L90.6311 33.8041L90.7169 33.9335L90.76 34.1062L90.8458 34.2358L90.9317 34.3652L91.0179 34.4516L91.1037 34.5379L91.1898 34.6243L91.2758 34.7105L91.4047 34.7537L91.4907 34.7969H91.6196L91.7483 34.8401H91.8343L91.9634 34.7969L92.0924 34.7537L92.2213 34.7105L92.3071 35.0559L92.3932 35.4444L92.522 35.8329L92.6079 36.2646L92.7368 36.7393L92.866 37.2574L92.9949 37.7754L93.1667 38.3367V38.3797L93.2098 38.4661L93.2528 38.5955L93.2958 38.6819L93.3386 38.8544L93.3817 38.984L93.4677 39.1567L93.5105 39.2861L93.5964 39.5019L93.6394 39.6746L93.7256 39.9336L93.8115 40.1495L93.8975 40.3653L93.9833 40.6242L94.1124 40.9265L94.413 40.538L94.6711 40.1495L94.843 39.9769L94.9718 39.8472L95.1867 39.5452L95.4015 39.2429L95.6166 38.984L95.7026 38.8544L95.7885 38.725L95.9605 38.5955L96.0464 38.4661L96.0894 38.4229L96.1324 38.3367L96.2611 38.2071L96.3901 38.0344L96.5622 37.8618L96.6911 37.6891L96.7771 37.5595L96.906 37.4733L97.0777 37.2574L97.1637 37.128L97.2928 36.9984L97.5077 36.7393L97.7656 36.4805L98.0232 36.1782L98.1954 36.0488L98.3243 35.8761L98.4962 35.7035ZM81.6485 48.2648V48.3081L81.3043 48.4807L81.1325 48.5671L80.9606 48.6533L80.7888 48.7397L80.6168 48.826L80.273 48.9988L80.1009 49.0418L79.8862 49.1282L79.4992 49.2577L79.0696 49.4303L78.2958 49.7326L77.9091 49.9052L77.5223 50.121L77.1355 50.2937L76.7917 50.4663L76.4051 50.6822L76.0609 50.8548L75.3736 51.2865L75.0294 51.5023L74.9436 51.5887V55.4306L75.1585 55.3443L75.4164 55.2579L75.6741 55.1715L75.9751 55.1285L76.276 55.0853L76.5768 55.0421H76.8775H77.2217H77.5653L77.9521 55.0853L78.2958 55.1285L78.7257 55.1715L78.8117 55.0853H78.8547L78.8975 55.0421L79.0696 54.9127L79.2415 54.7831L79.4134 54.6536L80.3589 53.747L81.3474 52.7974L81.6485 52.5384V51.632L81.5192 51.7614L81.4334 51.8908L81.1755 52.1499L80.8749 52.4089L80.7458 52.5384L80.6168 52.668L80.4879 52.7542L80.3589 52.8406L80.23 52.8838L80.144 52.9701H80.0583L79.9722 53.0133L79.8433 52.9701H79.8002L79.7141 52.9268L79.6283 52.8838L79.5853 52.7974L79.5422 52.711L79.4992 52.5816L79.4564 52.4521L79.6283 52.0204L79.7141 51.8046L79.8002 51.632L80.0152 51.2865L80.1009 51.1139L80.23 50.9844L80.4449 50.7254L80.5738 50.6391L80.6598 50.5527L80.9177 50.4233L81.0466 50.3801H81.1755V50.4663L81.2615 50.2505L81.3474 50.0346L81.4764 49.819L81.6053 49.6462L81.6485 49.5599V48.2648ZM74.9436 62.4669H74.9866H75.1585L75.2874 62.4237L75.4594 62.3805L75.5883 62.3373L75.6741 62.2942H75.7172L75.846 62.2078L75.9751 62.1646L76.0609 62.1214V62.0784H76.104L76.2328 61.992L76.362 61.9056L76.4479 61.7761L76.5768 61.6899L76.6626 61.5603L76.7487 61.4309L76.7917 61.3877V61.3445L76.8345 61.3013L76.9206 61.1718V61.1286L76.9636 61.0854L77.0066 61.0424V60.956L77.0494 60.9128V60.8697L77.1355 60.6969L77.1786 60.5243L77.2217 60.438V60.3516V60.2222V60.0926L77.1786 60.0064L77.1355 59.8768L77.0494 59.7041L76.9636 59.4883L76.8345 59.3588L76.6626 59.2294L76.4908 59.0998L76.319 59.0135L76.147 58.9271L76.0179 58.8839L75.7602 58.7545L75.6311 58.6681L75.5454 58.6251L75.3304 58.4955L75.1155 58.3228L74.9436 58.1934V59.7473L74.9866 59.7905L75.2013 59.8768L75.3304 59.9632L75.4594 60.0926L75.5883 60.179L75.7172 60.3084L75.7602 60.438L75.8032 60.5243L75.846 60.6539V60.7401V60.8697L75.8032 60.956L75.7602 61.0854L75.6741 60.9128L75.6311 60.8697H75.5883H75.5024L74.9436 60.3516V62.4669ZM74.9436 51.5887L74.7287 51.7614L74.084 52.2363L73.4392 52.711L72.8806 53.2291L72.5796 53.5312L72.3219 53.7902L71.7632 54.3514L71.5053 54.6536L71.2474 54.9557L70.7745 55.56L70.3019 56.2076L69.8721 56.8983V57.0277L69.9149 57.1573L70.1298 57.6753L70.3447 58.2364L70.8607 59.3588V59.4452V59.4883L70.9036 59.5315L71.1185 59.6609L71.2904 59.7905L71.7202 60.0064L71.9349 60.0926L72.1498 60.179L72.5796 60.3516L72.6658 60.438L72.7945 60.4811L72.8806 60.5675L72.9236 60.6969L73.1385 61.0424L73.0525 61.1286L72.9664 61.215L72.8806 61.3013L72.7945 61.4309L72.7515 61.5171L72.7087 61.6035L72.6658 61.6467L72.6226 61.733V61.7761V61.8626V61.9056V61.9488L72.6658 61.992L72.7087 62.0352H72.7515L72.8376 62.0784V62.1214V62.1646V62.2078L73.0525 62.2942L73.2674 62.3373H73.3962L73.4823 62.3805L73.6972 62.4237L73.9121 62.4669H74.084L74.2558 62.5101H74.4707H74.5568H74.6426H74.7287H74.8145L74.9436 62.4669V60.3516L74.8145 60.2222L74.127 59.5747L74.084 59.5315L74.0409 59.4883V59.4452V59.3588L74.2989 59.4883L74.5568 59.5747L74.7717 59.6609L74.9436 59.7473V58.1934L74.7717 58.0205L74.6426 57.8479L74.5568 57.7617L74.4707 57.6321L74.3847 57.4594L74.2558 57.2868L74.17 57.0709L74.127 56.8551L74.084 56.6393L74.0409 56.5098V56.3802V56.1645V56.0781L74.084 56.0349L74.127 55.9917L74.2989 55.8191L74.4707 55.6896L74.6856 55.56L74.9436 55.4738V55.4306V51.5887Z" fill="#314385"/>
<path fill-rule="evenodd" clip-rule="evenodd" d="M93.9403 24.1346V24.0052L93.8974 23.8756L93.7684 23.6597L93.6393 23.4871L93.5104 23.2712L93.3386 23.0986L93.1667 22.926L92.9948 22.7965L92.7797 22.6669L92.565 22.5375L92.3501 22.408L92.1352 22.2784L91.8772 22.1922L91.6195 22.1058L91.3616 22.0194L91.1036 21.9763L90.8029 21.9331L90.502 21.8899V21.9331L90.545 21.9763V22.0194V22.0626L92.2642 23.0986L93.9403 24.1346Z" fill="#314385"/>
<path fill-rule="evenodd" clip-rule="evenodd" d="M85.6024 21.8899H85.4734V22.149V22.2784L85.5164 22.408V22.6669L85.4734 22.9692V23.3144L85.4305 23.6167L85.3875 24.0052V24.1778L85.3447 24.3505H85.2156L85.1297 24.3073L84.8288 24.221L84.5707 24.1346L84.3562 24.0484L84.1841 24.0052L84.0982 23.962H84.0122H83.8833L83.7971 23.9188H83.7541V23.962H83.7113V24.0052V24.0484H83.7541L83.7971 24.1346L83.8833 24.221L84.0122 24.3505L84.1841 24.4799L84.3562 24.6095H84.485L84.442 24.6958V24.8254V24.9116V24.998V25.1706L84.485 25.3433L84.5281 25.4729L84.6137 25.6023L84.6568 25.6455L84.6999 25.7318L84.743 25.775L84.8288 25.8182L84.9579 25.8614L85.0437 25.9044H85.1297L85.2156 25.9476H85.3016H85.5164H85.6454H85.7315H85.9894L86.2901 25.9044L86.4188 25.8614H86.5911V25.9044V25.9476L86.548 25.9908V26.034V26.0772L86.505 26.1203L86.4619 26.1635L86.4188 26.2067H86.333L86.2471 26.2931L85.9894 26.4225L85.7315 26.5087L85.6024 26.552L85.4734 26.5951L85.2156 26.6816H85.0867L84.9148 26.7246H84.7858L84.6137 26.7678H84.485H84.3132H84.1413H84.0122H83.8403H83.7541H83.6683L83.5824 26.7246H83.4966H83.3247L83.1526 26.6816H83.0667L82.9805 26.6383L82.8087 26.5951H82.5939L82.25 26.5087L81.8203 26.3793H81.7773L81.7343 26.3361H81.6484L81.4334 26.2931L79.4564 25.6455L77.5222 24.998L75.5454 24.3073L73.6111 23.6597L71.6771 22.9692L69.786 22.2784L67.8521 21.5447L65.9609 20.8539L65.703 20.7677L65.4883 20.6813L65.2302 20.6381L64.9724 20.5949L64.7145 20.5086H64.4136L64.156 20.4654H63.8549H63.5541H63.2534L62.9524 20.5086H62.6515L62.3509 20.5518L62.0068 20.6381L61.663 20.6813L61.3192 20.7677L60.2447 20.9833L59.1272 21.2424L58.0528 21.5014L56.9785 21.8035L55.8608 22.0626L54.8293 22.3648L53.7549 22.6669L52.6804 23.0124L51.6489 23.3144L50.6174 23.6597L49.5859 24.0052L48.5544 24.3505L47.566 24.6958L46.5344 25.0842L45.5459 25.4297L44.5574 25.8614V25.9476L46.1046 25.5159L47.7378 25.0412L49.3281 24.5663L50.9183 24.1346H51.0472H51.0902L51.1762 24.1778L51.8638 24.4799L52.5087 24.7822L52.8523 24.9116L53.1961 25.0412L53.54 25.1706L53.8838 25.257L54.2276 25.3865L54.5715 25.4729L54.9153 25.5591L55.2591 25.6023L55.9038 25.7318L56.2477 25.8182H56.4196L56.5915 25.8614H56.8494H56.8923H56.9355L56.9785 25.8182H57.0213H57.0642H57.1072V25.775H57.1502V25.7318V25.6886V25.6023L57.1072 25.5591L57.0642 25.5159L57.0213 25.4729L56.9785 25.3865L56.9355 25.3433L56.8923 25.3001L56.8064 25.257L56.7634 25.2138L56.7204 25.1274L56.6345 25.0842L56.5915 25.0412H56.5487L56.5057 24.9548H56.4625L56.4196 24.9116L56.3336 24.8684L56.2047 24.6095L56.7204 24.3937L57.1932 24.221L57.7089 24.0484L58.2247 23.9188L58.7406 23.7461L59.2562 23.6167L59.8149 23.4871L60.3736 23.3576L60.8894 23.2712L61.4483 23.1418L62.0068 23.0554L62.6085 23.0124L63.1673 22.926L63.7691 22.8395L64.3707 22.7965L64.9724 22.7533L66.7345 23.4008L68.4966 24.0484L70.2588 24.7389L71.1613 25.0842L72.064 25.4297L72.9664 25.8182L73.912 26.1635L75.7602 26.9404L76.7056 27.3289L77.6083 27.7176L79.5422 28.5378L80.3158 28.4513L81.1324 28.4081L81.9062 28.3219L82.6799 28.2787L83.4105 28.2355L84.1841 28.1491L84.8718 28.1061L85.6024 28.0629L85.8173 28.3219L85.9464 28.4081L86.0752 28.5378L86.1613 28.5808L86.2901 28.6672L86.376 28.7536L86.4619 28.8398H86.505L86.548 28.883L86.6339 28.9693L86.6769 29.0125L86.763 29.0557L86.8488 29.0989L86.9349 29.1851H86.9779L87.0207 29.2283L87.1067 29.2715L87.1498 29.3147H87.1928L87.2354 29.3579H87.2785H87.3215H87.3645H87.4077V29.3147V29.2715V29.2283L87.3645 29.1851V29.1421V29.0989H87.3215V29.0557V28.9693V28.9262H87.2785L86.9349 28.7104L86.6769 28.5378L86.4619 28.3649L86.376 28.2787L86.333 28.1923L86.2471 28.1061L86.2041 28.0197L86.1613 27.9334V27.8902V27.8038V27.7176L86.2041 27.588L86.2471 27.5017L86.2901 27.4153L86.333 27.3721L86.4188 27.2859L86.505 27.2427L86.5911 27.1563L86.8488 27.0268L87.1498 26.8974L87.4505 26.811L87.8373 26.6816L88.0522 26.6383L88.3101 26.5951L88.3962 26.4225L88.482 26.2499L88.525 26.0772V26.034V25.9476V25.8614V25.8182L88.482 25.7318L88.439 25.6455L88.3962 25.6023L88.3531 25.5159L88.2241 25.4297L88.0094 25.257L87.7945 25.0842L87.6224 24.9116L87.4935 24.7822L87.3645 24.6095L87.2354 24.4369L87.1498 24.3073L87.0637 24.1346L87.0207 23.962L86.9779 23.7893L86.9349 23.6597V23.4871V23.3576L86.9779 23.185L87.0207 23.0124L87.0637 22.8828L87.1928 23.0124L87.3215 23.0986L87.4505 23.185L87.6224 23.2712L87.7945 23.3576V23.2712L87.7514 23.1418L87.7084 23.0124L87.6224 22.8828L87.5365 22.7965L87.4505 22.7101L87.3215 22.5807L87.1928 22.4943L87.0637 22.408L86.8918 22.3216L86.7199 22.2352L86.505 22.149L86.2901 22.0626L86.0752 22.0194L85.8603 21.9331L85.6024 21.8899Z" fill="#314385"/>
<path fill-rule="evenodd" clip-rule="evenodd" d="M89.2988 25.3433V25.3865V25.4729V25.5159L89.3418 25.5591L89.4707 25.7318L89.5998 25.9044L89.7716 26.0772L89.9005 26.2499L90.0723 26.4225L90.2445 26.552L90.4594 26.6816L90.6313 26.811L90.846 26.9404L91.0181 27.07L91.276 27.1563L91.4909 27.2427L91.7054 27.3289L91.9635 27.4153L92.2215 27.5017L92.4794 27.588V27.5017V27.4585L92.4364 27.4153L91.6198 26.8974L90.846 26.3793L90.0723 25.8614L89.2988 25.3433Z" fill="#314385"/>
<path fill-rule="evenodd" clip-rule="evenodd" d="M50.4455 28.3219H50.4885H50.5316H50.5744L50.6174 28.3649L50.8753 28.6672L50.9612 28.8398L51.0903 29.0125L51.1763 29.1851L51.2621 29.3579L51.477 29.7464L51.6061 30.1349L51.6919 30.3507L51.735 30.5666L51.8208 31.0413L51.8638 31.2572L51.9068 31.5162H51.9499H51.9929H52.0359V31.2572L52.0789 30.9983L52.0359 30.7392V30.4802L51.9929 30.2211L51.9499 30.0053L51.9068 29.7464L51.8638 29.4874L51.7778 29.2715L51.6919 29.0125L51.6061 28.7536L51.477 28.5378L51.3482 28.2787L51.2191 28.0629L51.0903 27.8038L50.9184 27.588L50.7893 27.4585L50.6606 27.3721L50.4885 27.2859L50.3167 27.2427L50.1018 27.1995L49.8869 27.1563L49.6719 27.1132H49.457H48.7263L48.0389 27.1563L47.308 27.2427L46.6636 27.3289L45.9757 27.4153L45.2882 27.5448L44.6433 27.6744L44.0416 27.8902L43.397 28.0629L42.7954 28.2787L42.1938 28.4945L41.6348 28.7966L41.0331 29.0557L40.4744 29.3579L39.9159 29.7032L39.3999 30.0485L38.6265 30.5666L37.8527 31.1277L37.0361 31.6457L36.2195 32.1637L35.7897 32.4228L35.6608 32.4658L35.5748 32.5522L35.3599 32.6817L35.145 32.7681L35.0163 32.8543L34.9303 32.8975L34.6722 33.0271L34.5865 33.0701L34.4573 33.1134L34.2425 33.243L34.0278 33.3292L33.7697 33.4156L33.5548 33.545L33.125 33.7177L32.6522 33.8903L32.5233 33.9335L32.3944 33.9767L32.1795 34.0631L31.6637 34.2358L31.4489 34.279L31.3199 34.322L31.191 34.3652L30.9333 34.4516L30.6752 34.4947L30.4173 34.5811L30.2024 34.6243H30.0306L29.9446 34.6675L29.6869 34.7105L29.171 34.8401L28.8701 34.8833H28.7414L28.6122 34.9263L28.0965 34.9696L27.5376 35.0559H27.2799L26.9791 35.099L26.4205 35.1422H26.2914H26.1624H25.8616H25.7326H25.6038L25.3027 35.1854H25.002H24.8731H24.7442H24.1424L23.5407 35.1422H22.9391L22.3373 35.099L22.0365 35.0559H21.9076H21.7356L21.5639 35.0128H21.4346L21.134 34.9696L20.4892 34.8833L19.8446 34.8401L19.5437 34.7537L19.2429 34.7105L19.2859 34.8833L19.3289 34.9696L19.372 35.0559L19.4577 35.1854L19.5865 35.3148L19.7157 35.4444L19.8875 35.5307L20.0163 35.6171L20.2314 35.6603L20.919 35.8329L21.3058 35.9192L21.6495 36.0056L22.3805 36.092L23.1109 36.1782L23.7987 36.2646H24.1424H24.5292H25.2171H25.9476L26.6352 36.2214L27.3659 36.135L28.0535 36.0056L28.3973 35.9624L28.7414 35.8761L29.085 35.7897L29.4288 35.7035L30.1595 35.4876L30.8471 35.2718L31.5348 35.0128L31.7929 34.9263L32.0076 34.8401L32.5233 34.6243L32.7384 34.4947L32.9531 34.4084L33.082 34.322L33.2112 34.279L33.4259 34.1494L33.6408 34.0631L33.7697 33.9767L33.8986 33.9335L34.3284 33.6745L34.7582 33.4156L35.188 33.1134L35.5748 32.8543L36.0046 32.5954L36.3916 32.3364L36.8214 32.1205L37.681 31.6457L38.1108 31.4298L38.5404 31.214L38.9703 30.9983L39.3999 30.8255L40.3025 30.437L40.7754 30.2643L41.205 30.0917L41.678 29.9623L42.1938 29.7894L43.1391 29.4874L44.1276 29.2283L44.6004 29.1421L45.1161 29.0125L45.6319 28.9262L46.1476 28.8398L47.1791 28.6672L48.2536 28.4945L48.7693 28.4513L49.3282 28.4081L50.4455 28.3219Z" fill="#314385"/>
<path fill-rule="evenodd" clip-rule="evenodd" d="M66.8636 50.8548L66.9066 50.9844V51.0276V51.0706V51.1139H66.8636V51.157V52.1067L66.9066 52.0636H66.9926L67.0785 52.0204L67.1645 51.9772L67.2504 51.934H67.2936H67.3364L67.3794 51.8908L67.4653 51.8478L67.5943 51.7614L67.6373 51.7182L67.6802 51.675L67.7234 51.5887L67.7662 51.5455L67.8092 51.5023L67.8522 51.4593L67.8951 51.3729V51.3297L67.9381 51.2865L67.9811 51.2003V51.157V51.0706V51.0276V50.9844V50.9412V50.8118V50.7686V50.7254V50.6822L68.1962 50.898L68.2819 50.9844L68.3249 51.0706L68.3679 51.1139L68.4109 51.157L68.4539 51.2435L68.5398 51.3729L68.5828 51.4593V51.5023L68.626 51.5455V51.5887L68.6688 51.675V51.7182V51.8046V51.934V51.9772L68.626 52.0204V52.0636L68.5828 52.1067V52.1499L68.4968 52.2363L68.4109 52.2795L68.3679 52.3225L68.2819 52.3657L68.239 52.4089L68.067 52.4952L67.8522 52.5816H67.7662L67.6373 52.6248L67.4224 52.668L67.2075 52.711H67.0785H66.9926L66.8636 52.668V52.8838L67.5083 53.0133L68.3249 53.2291L69.1415 53.4449V53.5744L69.1845 53.5312L69.2705 53.4449V53.4017H69.3134L69.3564 53.3153L69.3994 53.2291L69.4424 53.1427L69.4854 53.0565V53.0133V52.9268V52.8838V52.8406V52.7974L69.4424 52.711V52.668V52.6248L69.3994 52.5384L69.3564 52.4521H69.3994H69.4424H69.4854L69.5285 52.4089H69.5713L70.0011 52.1499L70.216 51.9772L70.4311 51.8478L70.6028 51.675L70.6888 51.5887L70.7747 51.5455L70.8177 51.5023L70.9896 51.3297L71.2045 51.157L71.3764 50.9844L71.5483 50.8118L71.7204 50.5959L71.9351 50.4233L72.1071 50.2074L72.15 50.121L72.279 49.9916L72.4079 49.7758L72.6228 49.5599L72.7517 49.3441L72.7947 49.3009L72.8377 49.2146L72.9237 49.1282L73.2245 48.6533L73.3535 48.3945L73.5254 48.1354L73.6543 47.8764L73.6973 47.7469L73.7832 47.6173L73.9122 47.3584L73.9983 47.1856L74.0411 47.0562L74.1702 46.7971L74.299 46.495L74.4279 46.1928L74.5569 45.8907L74.6858 45.5885L74.7288 45.459V45.3726L74.7718 45.2864H74.6858L74.5569 45.2432L74.4279 45.2L74.299 45.1137L73.9983 45.0273L73.8262 44.9409L73.6543 44.8547L73.3105 44.7251L72.9237 44.5956L72.7088 44.5094L72.4939 44.423L72.279 44.3366L72.0641 44.2504L71.9781 44.2072H71.9351L71.8062 44.164L71.5913 44.0777V43.9913L71.5483 43.9481V43.9049H71.5054L71.3764 43.7755L71.2475 43.646L70.9896 43.4302L70.9037 43.3006L70.8177 43.1711L70.7317 43.0417L70.6888 42.9553L70.6028 42.7827V42.6532L70.5598 42.5236V42.3942V42.2646V42.1351V41.9625L70.6028 41.833V41.7034L70.7317 41.7898L70.9037 41.833L71.1615 41.9625L71.4194 42.1351L71.6773 42.2646L71.8922 42.4374L72.0211 42.5236L72.15 42.6532L72.3649 42.8691L72.5798 43.0847H72.8377H73.0526H73.2675L73.4824 43.1279L73.6973 43.1711L73.9122 43.2143L74.0841 43.3006L74.256 43.3438L74.4279 43.4302L74.5569 43.5164L74.6858 43.646L74.8147 43.7755L74.9437 43.9049L75.0296 44.0345L75.1156 44.2072L75.2015 44.3798L75.2875 44.5524L75.2445 44.423V44.3366L75.1586 44.0345L75.0296 43.7323L74.8577 43.1711L74.6428 42.61L74.5139 42.351L74.4279 42.0919L74.1702 41.574L73.8692 41.0559L73.6113 40.5812L73.4394 40.3653L73.3105 40.1063L73.1815 40.1495H73.0958L72.8377 40.1927L72.6228 40.2789L72.4079 40.3221H72.193L71.9781 40.3653H71.7634H71.5483H71.3764L71.1615 40.3221L70.9466 40.2789L70.7747 40.2357L70.6028 40.1927L70.3879 40.1063L70.216 40.0631L70.0441 39.9768L69.8722 39.8904V39.804L69.8292 39.761V39.7178V39.6746L69.5713 39.4155L69.3994 39.1567L69.1845 38.8976L69.0126 38.5955L68.7977 38.3367L68.6688 38.0344L68.4968 37.7323L68.3249 37.3869L68.1962 37.0416L68.067 36.6963L67.9381 36.3508L67.8092 35.9624L67.7234 35.5739L67.5943 35.1854L67.5083 34.7969L67.4224 34.3652L67.2075 34.0631L66.9496 33.8473L66.8636 33.7177V47.0562L67.6373 47.4447L68.5398 47.8764L69.3994 48.3512L70.302 48.826L71.1615 49.3009L71.3334 49.3873L71.5054 49.5167L71.5483 49.5599L71.5913 49.6461L71.6773 49.7326V49.862V49.9916V50.0346L71.6343 50.121L71.5913 50.2505L71.5483 50.3369L71.5054 50.4233L71.4624 50.5095L71.4194 50.5959L71.3334 50.7254L71.2905 50.7686L71.2475 50.8118L71.2045 50.8548L71.1615 50.898H71.1186V50.9412H71.0326L70.9896 50.898L70.9037 50.8118V50.7686L70.8609 50.7254L70.8177 50.5959L70.7747 50.4663L70.7317 50.2505L70.6888 50.0346L70.6458 49.9052V49.7758L70.6028 49.5167V49.2577L70.302 49.085L70.0011 48.9556L69.7002 48.826L69.4424 48.6965L68.8407 48.4807L68.5398 48.3945L68.239 48.308L67.8951 48.2216L67.5943 48.1786L66.9926 48.0922L66.8636 48.049V50.8548ZM61.2764 38.6387V38.5525L61.0615 38.725L60.9326 38.8976L60.7606 39.1567L60.6317 39.3725L60.5028 39.5883L60.3738 39.8472L60.2879 40.0631L60.2019 40.3221L60.1162 40.5812L60.0732 40.84L60.03 41.1423V41.4013L59.987 41.7034V41.9625V42.2646L60.03 42.5668V42.61V42.6532V42.6962H59.987V42.7394L59.7721 42.8258L59.5572 42.9553L59.1704 43.1711L58.8266 43.4302L58.4828 43.7323L58.1389 44.0345L58.01 44.164L57.8383 44.3366L57.5802 44.6821L57.3223 45.0705V45.1568L57.3653 45.2864L57.4085 45.5453L57.4942 45.7611L57.5802 45.977L57.6662 46.1928L57.7091 46.3224L57.7951 46.495L57.8811 46.6245L58.01 46.7109L58.053 46.7971L58.1819 46.8403L58.2679 46.8835L58.3538 46.9267H58.4828L58.5687 46.8835L58.6975 46.8403L58.8266 46.7971L58.7407 46.7109L58.6975 46.6677V46.5813V46.5383V46.495V46.4518V46.4086L59.2564 46.7971L59.8151 47.2288L60.4168 47.6173L61.0615 48.0058L61.7491 48.4375L62.4368 48.8692L63.2104 49.3009L63.9841 49.7326H64.07H64.1989L64.4138 49.6893L64.4998 49.6461H64.6287H64.8436H65.0586H65.2304L65.4453 49.6893L65.6173 49.7326L65.7892 49.8189L65.9611 49.9052L66.09 49.9916L66.2619 50.121L66.3479 50.2074L66.3911 50.2505L66.5198 50.4233L66.6917 50.5959L66.7777 50.7686L66.8636 50.8548V48.049L66.3479 48.0058H65.7032H65.4453L65.1445 47.8764L64.8866 47.7899L64.586 47.6173L64.3279 47.4879L64.113 47.3584L63.8551 47.1856L63.6402 47.013L63.4253 46.8403L63.2104 46.6245L62.9955 46.4518L62.8237 46.236L62.6517 46.0202L62.4798 45.7611L62.3079 45.5453L62.1789 45.2864L62.05 45.0273L62.007 44.9409V44.8115L62.093 44.423L62.2219 44.0777L62.3938 43.6892L62.5228 43.3438L62.6517 42.9985L62.8237 42.6532L62.9955 42.351L63.1675 42.0057L63.3394 41.7034L63.5113 41.4013L63.7262 41.0991L63.8981 40.797L64.113 40.4948L64.3279 40.2357L64.5428 39.9336L64.7577 39.6746H64.8007L64.8436 39.6314H64.8866H64.9726L65.2304 40.1063L65.4024 40.3221L65.5313 40.5812L65.6173 40.84L65.7462 41.0991L65.8751 41.4013L65.9611 41.6602L66.047 41.9193L66.176 42.2215L66.2619 42.5236L66.3049 42.8258L66.4339 43.4302L66.4768 43.7323L66.5628 44.0345V44.0777H66.6058H66.6917L66.3911 44.2936L66.09 44.5524L65.9611 44.6821L65.8751 44.7251L65.7892 44.7683L65.6602 44.8979L65.4885 44.9841L65.1875 45.2L65.0156 45.2864L64.8436 45.3726L64.5428 45.5885L64.3709 45.6749L64.1989 45.7611H64.113L64.07 45.8043H63.9841L64.8866 46.1928L65.8321 46.5813L66.7347 47.013L66.8636 47.0562V33.7177L66.7347 33.5882L66.5628 33.3724L66.4768 33.286L66.3911 33.1998L66.219 33.0271L66.047 32.8543L65.9183 32.7681V32.8113V32.8543V32.9407V32.9839L65.7032 33.5018L65.4885 34.0631L65.3164 34.6243L65.1875 35.2286L65.0156 35.8329L64.9296 36.4373L64.8007 37.0416L64.7147 37.6891H64.586V37.7323H64.5428L64.4998 37.7754L64.4568 37.8618L64.4138 37.9482L64.2419 38.164L64.113 38.3797L63.9841 38.5955L63.8121 38.7682L63.6834 38.984L63.5113 39.1567L63.3823 39.3725L63.2104 39.5883L63.0385 39.761L62.6947 40.1495L62.3511 40.4948L62.1789 40.6674L62.007 40.84H61.8783H61.7491L61.6202 40.797L61.5343 40.7538L61.4053 40.6674L61.3194 40.5812L61.2334 40.4948L61.1904 40.4085L61.1474 40.2789L61.1045 40.1495L61.0615 40.0199V39.8472V39.6746V39.5019L61.1045 39.2861L61.1474 39.1135L61.1904 38.8544L61.2764 38.6387ZM66.8636 51.157L66.6487 51.2865L66.5198 51.3297L66.3911 51.3729L66.2619 51.4593L66.176 51.5023L65.9183 51.5887L65.6602 51.675L65.4024 51.7614L65.1445 51.8046L64.8866 51.8908L64.586 51.934L64.3279 51.9772H64.027L63.7262 52.0204H63.4253H63.1245H62.8237L62.6517 51.9772H62.4798L63.3394 52.1499L64.1989 52.2795L65.0156 52.4521L65.8751 52.668L66.6917 52.8406L66.8636 52.8838V52.668L66.7347 52.6248L66.6058 52.5816L66.5628 52.5384L66.5198 52.4952L66.4768 52.3657L66.4339 52.2363L66.5198 52.1931H66.5628L66.6487 52.1499H66.7347L66.7777 52.1067H66.8209H66.8636V51.157Z" fill="#314385"/>
<path fill-rule="evenodd" clip-rule="evenodd" d="M56.2048 38.5955L56.2479 38.6387H56.2907H56.3337V41.0991V41.3581L56.1188 41.7898L55.9039 42.2215L55.8181 42.3078L55.775 42.3942L55.689 42.61L55.6033 42.6962L55.5601 42.8259L55.4313 43.0417L55.3022 43.2143L55.2592 43.3006L55.2164 43.4302L55.0873 43.6028L55.0014 43.7323L54.9584 43.8187L54.8724 43.9049L54.8294 44.0345L54.7007 44.2072L54.4426 44.5956L54.3998 44.6821V44.8115H54.3567V44.8547V44.8979V44.9409L54.3139 44.9841L54.2277 45.0705L54.0988 45.1568L54.0128 45.2432L53.8839 45.2864L53.8411 45.5022V45.7181V45.8907V46.1066V46.2792V46.4518L53.8839 46.5813L53.9269 46.7541L53.9699 46.8835L54.0128 47.0562L54.0558 47.1856L54.0988 47.3152L54.1849 47.4015L54.2709 47.5311L54.3567 47.6173L54.4426 47.7037L54.4856 47.7469H54.5286H54.5716L54.6147 47.7899V47.8331L54.6575 47.8764V47.9196L54.7007 47.9628L55.0873 48.2648L55.4741 48.5671L55.9039 48.8692L56.3337 49.1282L56.7635 49.4303L57.1933 49.6893L57.6662 49.9484L58.1388 50.1642L58.5686 50.3801L59.0845 50.5959L59.6001 50.8118L60.1161 51.0276L60.6316 51.2003L61.1473 51.3729L61.6631 51.5455L62.2648 51.7182L62.2218 51.675V51.632V51.5887H62.1788L58.3967 49.5167L54.6147 47.5311V47.272V44.8115H54.6575H54.7007H54.7437V44.7683H54.7865L55.8181 43.0417L56.8496 41.3581V41.2287L56.8065 41.0991L56.7205 40.4085L56.6347 39.7178L56.5917 39.0271V38.4229V38.3797L56.5488 38.3367V38.2071L56.0331 37.4301L55.5601 36.6963L55.0443 35.9192L54.5286 35.1854L54.0128 34.4516L53.4971 33.7177L52.9386 32.9839L52.4226 32.25L52.8524 33.0701L53.2822 33.8903L53.755 34.7105L54.2277 35.5307L54.7007 36.3078L55.1735 37.0848L55.689 37.8618L56.2048 38.5955Z" fill="#314385"/>
<path fill-rule="evenodd" clip-rule="evenodd" d="M80.402 32.3364L80.2731 32.509L80.1441 32.6817L80.0154 32.8543L79.9293 33.0701L79.8435 33.1998L79.8003 33.3724L79.7143 33.545L79.6714 33.7609L79.5854 34.2358L79.4994 34.7537V34.9696L79.4565 35.099L79.4135 35.5739L79.3705 36.0488L79.2845 36.4805L79.1986 36.9121L79.0697 37.3438L79.0269 37.4301V37.5165L78.9408 37.7323L78.8548 38.1208L78.7688 38.5525L78.7258 38.7682L78.6828 38.8976L78.6399 39.0703L78.5969 39.1997V39.3293L78.5109 39.6314L78.4679 39.7178L78.425 39.804L78.339 39.8904L78.296 39.9769L78.2531 40.0199L78.2103 40.0631L78.0812 40.1495L78.0384 40.1927H77.9952L77.9522 40.2357H77.9092H77.8661H77.8233H77.7803H77.6943H77.6512H77.5224L77.4794 40.1927H77.3935L77.2218 40.1063L77.0067 39.9769L76.8346 39.8904L76.6627 39.804L76.2329 39.5019L75.8462 39.2429L75.0295 38.5955L75.2014 38.9408L75.3737 39.2429L75.5455 39.5884L75.7603 39.8904L76.0611 40.2789L76.3622 40.6674L76.7058 41.0559L76.8777 41.2287L77.0496 41.4013L77.2646 41.574L77.4794 41.7034L77.6512 41.8761L77.9092 42.0489L78.339 42.3078L78.8118 42.5668L78.9839 42.2646L79.1127 41.9193L79.2845 41.574L79.4135 41.2287L79.5424 40.8401L79.6284 40.4948L79.7573 40.1063L79.8435 39.761V39.5884L79.8863 39.5452V39.4588L79.9724 39.1567V38.984L80.0154 38.8544L80.0584 38.6819V38.5955L80.101 38.1208L80.1871 37.6891V37.3006L80.2301 36.869V36.6099V36.3509V35.8761V35.7035V35.5739L80.1871 35.4444V35.358V35.2718V35.2286V35.2718V35.3148L80.2301 35.4012V35.4876V35.1854V34.9263V34.7105V34.4516L80.2731 34.2358V34.0631V33.8473L80.316 33.6745L80.359 33.3724L80.402 33.1134L80.488 32.8543L80.5739 32.6386L80.7889 32.2069L81.0467 31.7753L80.7028 32.0341L80.5309 32.1637L80.402 32.3364Z" fill="#314385"/>
<path fill-rule="evenodd" clip-rule="evenodd" d="M21.0911 30.1349L20.4463 28.3219L20.1887 28.4945L19.9306 28.7104L19.7158 28.9262L19.5008 29.1851L19.286 29.401L19.114 29.66L18.9423 29.8759L18.8132 30.1349L18.6412 30.3938L18.5123 30.696L18.4264 30.9551L18.3406 31.2572L18.2544 31.5594L18.2113 31.9047L18.1683 32.207L18.1255 32.5522V32.6386V32.7249V32.8975L18.1683 33.0702L18.2113 33.243L18.2974 33.4156L18.3834 33.5451L18.5123 33.7177L18.6412 33.8473L18.8132 33.8041V32.8975V32.6386L18.8562 32.3364L18.9423 32.0773L19.028 31.8615L19.114 31.6889L19.1998 31.5594L19.3291 31.3868L19.4578 31.3004L19.7158 31.5162L19.9736 31.7753L20.2745 31.9911L20.5323 32.207L20.833 32.4228L21.0911 32.6386L21.3919 32.8113L21.6927 32.9839L21.9508 33.1134L22.2514 33.286L22.5523 33.4156L22.8532 33.5018L23.154 33.6315L23.4547 33.7177L23.7558 33.8041L24.0566 33.8903L24.3574 33.9335L24.6585 33.9767L24.9591 34.0199H25.3029L25.604 34.0632H25.9046L26.2485 34.0199H26.5494L26.8934 33.9335L27.194 33.8903L27.5378 33.8473L27.8819 33.7609L28.1825 33.6745L28.5264 33.5882L28.8702 33.4588L29.2141 33.3292L30.6753 32.7681L31.3632 32.4228L31.7068 32.2932L32.0936 32.1205L32.4374 31.9911L32.7815 31.8185L33.5119 31.5162L34.1996 31.1709L34.9304 30.8687L34.5436 30.9983H34.4574L34.3715 31.0413L34.2426 31.1277L33.5549 31.3868L32.8245 31.6026L32.4804 31.6889L32.1366 31.8185L31.9647 31.8615H31.8789L31.793 31.9047L31.4491 31.9911L30.7613 32.207H30.5894L30.4174 32.25L30.0307 32.3364L29.8587 32.3796L29.687 32.4228L29.343 32.509L28.9991 32.5522L28.7843 32.5954H28.6985L28.6123 32.6386L27.9247 32.7249L27.194 32.8113L26.8504 32.8543L26.4636 32.8975L26.1195 32.9407L25.7327 32.9839L25.0021 33.0271H24.6585L24.2715 33.0702H24.0995H23.9276H23.5408H23.4121H23.283L23.154 33.0271L23.0251 32.9839L22.8962 32.9407L22.8104 32.8975L22.6812 32.8113L22.5953 32.7681L22.4664 32.6817L22.3806 32.5954L22.2944 32.4658L22.1655 32.3796L22.0796 32.25L21.9938 32.1205L21.9077 31.9479L21.8646 31.8185L21.6497 31.4298L21.4779 30.9983L21.2629 30.5666L21.0911 30.1349Z" fill="#314385"/>
<path fill-rule="evenodd" clip-rule="evenodd" d="M40.4745 27.8038L40.4316 27.9334L43.8698 26.0772L43.3971 26.2067L42.9673 26.3793L42.4945 26.552L42.1077 26.7678L41.678 26.9836L41.2482 27.2427L40.8614 27.5017L40.4745 27.8038Z" fill="#314385"/>
<path fill-rule="evenodd" clip-rule="evenodd" d="M77.2217 48.0058V47.9628V47.9196V47.8764L77.0924 47.8332H77.0066L76.9636 47.79L76.9206 47.7469H76.8775L76.7917 47.6605L76.7487 47.5743L76.7057 47.4447L76.6626 47.3584V47.272V47.2288V47.0994L76.7057 47.013V46.9267V46.8403L76.7487 46.7971L76.7917 46.6245L76.8775 46.4086L76.9636 46.236L77.0924 46.0202L77.1786 45.8907L77.2217 45.8043V45.6749L76.6196 46.4519L76.0179 47.2288L75.6741 47.5743L75.5883 47.6605L75.5024 47.79L75.3736 47.9628L74.7287 48.7397L74.084 49.4735L73.3962 50.2505L72.7515 50.9844L72.064 51.7182V51.8478L72.4077 51.632L72.7515 51.4161L73.0956 51.2003L73.2674 51.0707L73.3534 51.0276L73.3962 50.9844H73.4392L73.4823 50.9412L73.5253 50.898L73.6111 50.8548L73.7402 50.7254L74.084 50.5095L74.7287 50.0346L75.0725 49.819L75.3736 49.5599L75.7172 49.3009L76.0179 49.0418L76.319 48.7829L76.4908 48.6533L76.6196 48.5239L76.9206 48.2648L77.2217 48.0058Z" fill="#314385"/>
<path fill-rule="evenodd" clip-rule="evenodd" d="M80.8319 64.064L79.7572 63.8914L78.6827 63.7188L77.5653 63.546L76.448 63.4165L75.5455 63.2871L74.6427 63.1575L73.6972 63.028L72.7946 62.9416L71.8491 62.8122L70.9036 62.7258L69.915 62.6395L68.9695 62.5531L67.938 62.4669L66.9495 62.3373L65.961 62.251L64.9295 62.2078L63.898 62.1214L62.8665 62.0352L61.792 61.992L60.7176 61.9056L59.6432 61.8194L58.5256 61.7762L57.4514 61.733L56.3337 61.6467L55.1734 61.6035L54.0557 61.5603L52.8955 61.5171L51.735 61.4741L50.5744 61.4309L49.3712 61.3877L48.1676 61.3445H46.9642L45.718 61.3013L44.5144 61.2582H43.225H41.9788L42.5374 61.3877L43.0533 61.5603L43.5691 61.6899L44.0846 61.8626L44.6005 61.992L45.0731 62.1214L45.5459 62.251L46.0618 62.3805L46.2765 62.4669L46.5344 62.5101L47.0073 62.6395L47.4371 62.769L47.652 62.8122L47.7808 62.8554H47.9097L47.9959 62.8986L48.1246 62.9416L48.3395 62.9848L48.7693 63.0712L49.1991 63.2007L49.414 63.2439L49.6289 63.2871L50.0588 63.3733L50.4456 63.5029L50.8323 63.546L51.2191 63.6756L51.6061 63.7188L51.9929 63.805L52.3367 63.8914L52.7235 63.9776L53.0673 64.0208L53.2391 64.064H53.3252L53.4112 64.1072L53.755 64.1505L54.0557 64.1935L54.2276 64.2367L54.3997 64.2799H54.5286L54.7006 64.3231L55.0014 64.3661L55.3022 64.4093L56.8923 64.582L58.4827 64.7548L59.2993 64.841L60.0731 64.8842L61.6631 65.0137L63.2534 65.0569L64.8865 65.1001L65.6601 65.1433H66.4767H68.0669L69.6572 65.1001L70.431 65.0569H71.2474L72.8376 64.9274L74.4278 64.841L76.018 64.6684L76.8346 64.582L77.6512 64.4957L79.2416 64.2799L80.8319 64.064Z" fill="#314385"/>
<path d="M146.266 36H145.435L145.342 34.212L145.068 32.4469L144.616 30.706L143.99 28.9905L143.194 27.3024L142.231 25.6437L141.106 24.0165L139.822 22.4235L138.384 20.8674L136.796 19.3504L135.063 17.8751L133.188 16.4444L131.177 15.0605L129.034 13.726L126.763 12.4432L124.37 11.215L121.858 10.0433L119.233 8.93047L116.499 7.87892L113.66 6.89134L110.722 5.96957L107.688 5.11598L104.564 4.3331L101.354 3.62295L98.0627 2.98791L94.6948 2.43032L91.2547 1.9524L87.747 1.55631L84.1764 1.24411L80.5474 1.01864L76.8648 0.881436L73.133 0.835365V0L76.8853 0.0464091L80.5884 0.184293L84.2379 0.411107L87.8293 0.724995L91.3578 1.12344L94.8191 1.60441L98.2085 2.16571L101.522 2.8048L104.754 3.52001L107.901 4.30863L110.958 5.16863L113.92 6.09783L116.783 7.09419L119.543 8.15553L122.195 9.27947L124.734 10.464L127.156 11.7071L129.457 13.0067L131.631 14.3605L133.674 15.7666L135.583 17.2234L137.351 18.7284L138.975 20.2798L140.45 21.8757L141.77 23.5146L142.932 25.1941L143.929 26.9122L144.756 28.6672L145.409 30.4562L145.882 32.2768L146.169 34.1259L146.266 36ZM73.133 72V71.1646L76.8648 71.1186L80.5474 70.9814L84.1764 70.7559L87.747 70.4437L91.2547 70.0476L94.6948 69.5697L98.0627 69.0121L101.354 68.377L104.564 67.6669L107.688 66.884L110.722 66.0304L113.66 65.1087L116.499 64.1211L119.233 63.0695L121.858 61.9567L124.37 60.785L126.763 59.5568L129.034 58.274L131.177 56.9395L133.188 55.5556L135.063 54.1249L136.796 52.6496L138.384 51.1326L139.822 49.5765L141.106 47.9835L142.231 46.3563L143.194 44.6976L143.99 43.0095L144.616 41.294L145.068 39.5531L145.342 37.788L145.435 36H146.266L146.169 37.8741L145.882 39.7232L145.409 41.5438L144.756 43.3328L143.929 45.0878L142.932 46.8059L141.77 48.4854L140.45 50.1243L138.975 51.7202L137.351 53.2716L135.583 54.7766L133.674 56.2334L131.631 57.6395L129.457 58.9933L127.156 60.2929L124.734 61.536L122.195 62.7205L119.543 63.8445L116.783 64.9058L113.92 65.9022L110.958 66.8314L107.901 67.6914L104.754 68.48L101.522 69.1952L98.2085 69.8343L94.8191 70.3956L91.3578 70.8766L87.8293 71.275L84.2379 71.5889L80.5884 71.8157L76.8853 71.9536L73.133 72ZM0 36H0.831052L0.923466 37.788L1.19769 39.5531L1.65001 41.294L2.2759 43.0095L3.07234 44.6976L4.03512 46.3563L5.16022 47.9835L6.44377 49.5765L7.88173 51.1326L9.46957 52.6496L11.2031 54.1249L13.0776 55.5556L15.0888 56.9395L17.2318 58.274L19.5025 59.5568L21.8959 60.785L24.4077 61.9567L27.0329 63.0695L29.7672 64.1211L32.6058 65.1087L35.5442 66.0304L38.5778 66.884L41.7018 67.6669L44.912 68.377L48.2032 69.0121L51.5711 69.5697L55.0113 70.0476L58.519 70.4437L62.0895 70.7559L65.7185 70.9814L69.4011 71.1186L73.133 71.1646V72L69.3806 71.9536L65.6775 71.8157L62.028 71.5889L58.4366 71.275L54.9081 70.8766L51.4468 70.3956L48.0574 69.8343L44.7443 69.1952L41.512 68.48L38.3654 67.6914L35.3083 66.8314L32.346 65.9022L29.4829 64.9058L26.7231 63.8445L24.0713 62.7205L21.5319 61.536L19.11 60.2929L16.8094 58.9933L14.6352 57.6395L12.5916 56.2334L10.6832 54.7766L8.91475 53.2716L7.29095 51.7202L5.81636 50.1243L4.49585 48.4854L3.33446 46.8059L2.3374 45.0878L1.50971 43.3328L0.856929 41.5438L0.384103 39.7232L0.0967868 37.8741L0 36ZM73.133 0V0.835365L69.4011 0.881436L65.7185 1.01864L62.0895 1.24411L58.519 1.55631L55.0113 1.9524L51.5711 2.43032L48.2032 2.98791L44.912 3.62295L41.7018 4.3331L38.5778 5.11598L35.5442 5.96957L32.6058 6.89134L29.7672 7.87892L27.0329 8.93047L24.4077 10.0433L21.8959 11.215L19.5025 12.4432L17.2318 13.726L15.0888 15.0605L13.0776 16.4444L11.2031 17.8751L9.46957 19.3504L7.88173 20.8674L6.44377 22.4235L5.16022 24.0165L4.03512 25.6437L3.07234 27.3024L2.2759 28.9905L1.65001 30.706L1.19769 32.4469L0.923466 34.212L0.831052 36H0L0.0967868 34.1259L0.384103 32.2768L0.856929 30.4562L1.50971 28.6672L2.3374 26.9122L3.33446 25.1941L4.49585 23.5146L5.81636 21.8757L7.29095 20.2798L8.91475 18.7284L10.6832 17.2234L12.5916 15.7666L14.6352 14.3605L16.8094 13.0067L19.11 11.7071L21.5319 10.464L24.0713 9.27947L26.7231 8.15553L29.4829 7.09419L32.346 6.09783L35.3083 5.16863L38.3654 4.30863L41.512 3.52001L44.7443 2.8048L48.0574 2.16571L51.4468 1.60441L54.9081 1.12344L58.4366 0.724995L62.028 0.411107L65.6775 0.184293L69.3806 0.0464091L73.133 0Z" fill="#314385"/>
</svg>
