<svg width="420" height="67" viewBox="0 0 420 67" fill="none" xmlns="http://www.w3.org/2000/svg">
<path fill-rule="evenodd" clip-rule="evenodd" d="M105.267 24.6546L105.458 24.814L105.649 24.9734L105.84 25.1329L106.031 25.2923L106.184 25.4917L106.337 25.691L106.528 25.8903L106.566 25.9302H106.604H106.681L107.292 23.1794L107.33 23.0598V23.0199V22.98L106.566 22.5416L105.84 22.1429L105.267 21.8241V22.7809L105.42 22.8206L105.573 22.9004L105.726 22.9403L105.878 22.98L105.993 23.0598L106.108 23.1396L106.184 23.1794L106.299 23.2592L106.375 23.339L106.451 23.4186H106.489V23.4585V23.4984L106.451 23.5383L106.413 23.5781L106.375 23.618H106.337H106.299L106.222 23.6579L106.108 23.7375L106.031 23.7774V23.8173L105.993 23.8572L105.878 23.8971L105.802 23.9368H105.764H105.726H105.687L105.611 23.9767H105.496L105.344 23.9368L105.267 23.8971V24.6546ZM98.3149 20.1895H98.5822L99.5374 20.3091L100.53 20.4686H100.76L100.798 20.6679L100.836 20.7476V20.8673L100.874 21.0267V21.226V21.3456V21.4254V21.6247L100.855 21.7044L100.836 21.7842L100.825 21.8428L100.848 21.8509L100.964 21.9707L101.04 22.0106L101.307 22.2898L101.383 22.3292L101.422 22.3689L101.537 22.4495L101.574 22.4484L101.613 22.4893L101.651 22.4883L101.69 22.5292L101.727 22.5278L101.842 22.5683L102.11 22.2899L102.185 22.1309L102.186 21.9723L102.033 21.8113L101.957 21.8114L101.881 21.7715L101.612 21.7711L101.103 21.8233L100.848 21.851L100.825 21.8428L100.798 21.9835L100.76 22.1828L100.721 22.3024L100.683 22.4618V22.5416L100.645 22.6213L100.607 22.7011L100.569 22.741H100.53L100.645 22.9004L100.721 23.0598L100.836 23.1794L100.951 23.2991L101.065 23.4186L101.18 23.4984L101.333 23.5781L101.485 23.6579L101.6 23.6978L101.791 23.7375L101.944 23.7774H102.135H102.326L102.517 23.7375L102.746 23.6978L102.975 23.6579H103.051H103.166L103.433 23.7375L103.663 23.8173L103.93 23.9368L104.159 24.0166L104.389 24.1362L104.618 24.2559L104.847 24.3754L105.076 24.5349L105.267 24.6546V23.8971H105.229L105.114 23.8173L104.962 23.7375L104.885 23.6579L104.847 23.618H104.809L104.694 23.4585L104.541 23.2991L104.465 23.2193L104.389 23.1396L104.236 22.9403L104.159 22.8206L104.121 22.741L104.083 22.7011V22.6612L104.045 22.6213V22.5815V22.5017L104.274 22.5416L104.503 22.5815L104.694 22.6213L104.885 22.6612L105.076 22.7011L105.267 22.7809V21.8241L105.114 21.7044L104.389 21.2659L103.701 20.8274L103.013 20.3489L102.326 19.9105L101.638 19.3921L100.989 18.9138L100.339 18.3956L99.7284 17.8772L99.0787 17.359L98.4676 16.8008L98.3149 16.6414V18.4752L98.3912 18.5151L98.6204 18.5949L98.6969 18.6346L98.8498 18.7144L99.0406 18.834L99.2697 18.9936L99.4991 19.1929L99.6901 19.3921L99.9192 19.6313L100.034 19.751L100.148 19.8706L98.3149 19.3125V20.1895ZM94.4184 24.2559L94.4949 24.1761L94.5712 24.1362V24.0964H94.6095L94.8388 23.8572L94.8771 23.8173L94.9151 23.7774L95.0298 23.6579L95.2207 23.4585L95.4117 23.2193L95.6029 23.0199L96.1756 22.98L96.252 22.9004L96.3286 22.8206L96.3667 22.741L96.4432 22.7011L96.4814 22.6213L96.5197 22.5416L96.596 22.4618L96.6341 22.3822V22.3423L96.6723 22.3024L96.7104 22.2227L96.7486 22.0631L96.7868 21.9835V21.9037L96.8251 21.7842V21.7443V21.7044V21.505V21.3456V21.1063L96.7868 20.907L96.7486 20.7078L96.7104 20.5881V20.5482L96.6723 20.5085V20.4686L96.596 20.2294L96.5197 19.9901H96.596L98.3149 20.1895V19.3125L98.2766 19.3524L98.2003 19.3921L98.0858 19.4719L97.9712 19.5517L97.8564 19.5914H97.8182H97.7418H97.6272H97.5126L97.4362 19.5517L97.2835 19.5118L97.169 19.432L97.1308 19.3921L97.0925 19.3524H97.0543L96.9396 19.2327L96.8251 19.1131L96.7104 18.9936L96.596 18.7942L96.4814 18.6346L96.7104 18.5151L96.9778 18.4355L97.2072 18.3956H97.3218H97.4362L97.6654 18.3557L97.933 18.3956H98.0093L98.1621 18.4355L98.3149 18.4752V16.6414L97.8948 16.2427L97.2835 15.6846L96.7486 15.0866L96.6341 15.007L96.5577 14.9272L96.3667 14.7677L96.252 14.6879L96.1375 14.6083L96.0228 14.5285L95.9083 14.4886L95.6792 14.369L95.4117 14.2892L95.2588 14.2495H95.1442L94.8771 14.1697L94.4184 14.1298V14.8872L94.6095 14.967L94.7241 15.007L94.8771 15.0866L95.1442 15.246L95.2588 15.3258L95.4117 15.4056L95.6792 15.605L95.7556 15.6846L95.9083 15.8041L96.0993 16.0434L96.2138 16.1631L96.3286 16.2826L96.405 16.4421L96.5197 16.6015H96.405L96.2138 16.5219L96.0228 16.4421L95.8318 16.3624L95.6409 16.3225L95.4882 16.2826H95.297H94.9916H94.8006H94.6477L94.533 16.3225L94.4184 16.3624V17.9969L94.533 18.0368L94.6095 18.1164L94.7241 18.1962L94.8006 18.2759L94.8388 18.3956L94.8771 18.5151V18.6745V18.834L94.8388 18.8739L94.7624 18.9138L94.6477 18.9936L94.533 19.0333L94.4949 19.1131H94.4567L94.4184 19.153V19.1929V19.2327H94.4567L94.4949 19.2726L94.533 19.3125H94.6477H94.6861L94.7624 19.3524H94.8388H94.9151H95.0298H95.106H95.2207H95.3352H95.4498H95.5646L95.6792 19.3125H95.8318H95.9846H96.1375L96.0228 19.3921L95.9465 19.5118L95.8318 19.5914L95.7174 19.6712L95.6029 19.751L95.5646 19.7908H95.5264L95.4498 19.8307L95.3352 19.9105L95.1825 19.9504H95.1442L95.106 19.9901H95.0298L94.8771 20.03L94.8006 20.0699H94.7624H94.7241L94.533 20.1098H94.4184V24.2559ZM90.9424 26.5682L91.3243 26.4086L91.7064 26.2491L92.0883 26.0498L92.3177 25.8903L92.585 25.7309L92.8141 25.5315H92.8523L92.8906 25.4917L92.9286 25.4518L93.0817 25.3721L93.3108 25.2127L93.5399 25.0532L93.7691 24.8539L93.9984 24.6546L94.1894 24.4552L94.4184 24.2958V24.2559V20.1098H94.3421H94.1894H93.9984H93.8838H93.8072L93.6927 19.9105L93.6163 19.7111L93.4634 19.3921L93.3108 19.0732L93.2345 18.9537L93.1963 18.834L93.0817 18.5949L92.9669 18.3956L92.8523 18.1563L92.6996 17.957L92.9669 17.9171L93.2345 17.8772L93.4634 17.8374H93.6927L93.8838 17.8772H94.0748L94.2657 17.9171L94.3802 17.957L94.4184 17.9969V16.3624H94.3802L94.0748 16.482L93.9603 16.5616L93.8454 16.6813H93.8072V16.7212L93.7691 16.761V16.8008L93.2726 16.3624L93.0433 16.1232L92.7759 15.8839L92.3177 15.4056L91.8591 14.9272L91.821 14.8872V14.8475V14.8076V14.7677L92.2029 14.6879H92.394H92.585L92.7759 14.6482H92.9669L93.3108 14.6879L93.6544 14.7278H93.8072L93.9603 14.7677L94.113 14.8076L94.3039 14.8475L94.4184 14.8872V14.1298L93.9603 14.0901L93.5017 14.0501H93.0433L92.585 14.0103H92.0883H91.6301L91.1333 14.0501H90.9424V17.8374L91.095 17.7177L91.248 17.678L91.3625 17.6381L91.5919 17.5583L91.7829 17.5184H92.0118L92.2411 17.4787L92.2795 17.5583L92.3177 17.6381L92.3559 17.7975V17.957V18.1164V18.1563L92.3177 18.1962V18.2759L92.2795 18.4355L92.2029 18.555L92.1265 18.7144L92.0118 18.8739L91.8973 18.9936L91.8591 19.0732H91.821V19.1131L91.7829 19.153L91.6682 19.2726L91.4007 19.5517L91.1715 19.8307L90.9424 20.1098V20.7476L91.057 20.8673L91.2097 21.1063L91.3243 21.3057L91.4007 21.5449V21.6247V21.7044V21.7842L91.3625 21.8638L91.286 21.9436H91.248L91.2097 21.9835H91.1715L91.1333 22.0234H91.057H90.9806H90.9424V24.2958L91.057 24.3754L91.2097 24.5349L91.4007 24.6546L91.5537 24.814L91.6682 25.0133L91.9738 25.4917H91.7829L91.5919 25.4518H91.3625L91.1715 25.412L90.9806 25.3322H90.9424V26.5682ZM89.6054 16.6015H89.5289H89.4145H89.3381H89.2998H89.2618H89.2235H89.1853V16.6414V16.7212V16.8408V16.9205V17.0401L89.2235 17.1199V17.1995L89.2618 17.2793L89.2998 17.359L89.3381 17.3989L89.4145 17.4787L89.4528 17.5184L89.5289 17.5583L89.6054 17.5982L89.6817 17.678H89.7582L89.8345 17.7177V17.7576V17.7975V17.8374H89.7964L89.4145 17.9969L89.0324 18.1164L88.8414 18.1563L88.6505 18.1962L88.2685 18.2361L88.0775 18.2759H87.8863H87.5045H87.3517L87.1605 18.2361L86.9697 18.1962H86.7787H87.1223L87.0462 17.957L86.9697 17.7975L86.8551 17.5982L86.7787 17.4388L86.6641 17.2394L86.5496 17.08L86.3965 16.9205L86.282 16.8008L86.1294 16.6414L85.9766 16.5219L85.8238 16.4022L85.6327 16.2826L85.4418 16.1631L85.2508 16.0833L85.0216 15.9637L84.8304 15.8839H84.6013H84.1812L83.7992 15.9239L82.997 16.0035L82.615 16.0434L82.2329 16.1232L81.8511 16.1631L81.4691 16.2826L81.1634 16.482L80.8577 16.6813L80.7051 16.761H80.6668L80.6286 16.8008L80.5523 16.8408L80.2466 17.0401H80.8961L81.507 17.1199L82.1184 17.1596L82.4238 17.1995L82.7296 17.2394L83.0352 17.2793L83.3027 17.359L83.6082 17.3989L83.8755 17.4787L84.143 17.5583L84.4103 17.6381L84.9451 17.7975L84.9833 17.8374V17.8772L85.0216 17.9171V17.957V18.0368V18.0765V18.1962L84.9833 18.2361L84.907 18.3158L84.8688 18.3956L84.8304 18.4355L84.7922 18.4752L84.7541 18.555L84.7159 18.5949V18.6745V18.7144L84.6778 18.7543V18.7942L84.7159 18.834V18.8739L84.7541 18.9138L84.7922 18.9537L84.8304 18.9936H84.8688L84.9451 19.0333H84.9833H85.0598L85.1361 19.0732H85.2126H85.289H85.48H85.5562H85.6709H85.7856L85.9001 19.0333H86.1676H86.2057H86.282L86.3965 19.0732L86.5877 19.1131L87.0079 19.5914L87.237 19.8307L87.4282 20.0699L87.8863 20.5085L87.9628 20.5881L88.0775 20.7078L88.3067 20.907L89.4907 21.8241H89.1853H88.9559L88.6886 21.7842H88.4595L88.1922 21.7443L87.9628 21.7044L87.7337 21.6645L87.5045 21.6247L87.2754 21.5449L87.0842 21.4653L86.8551 21.3855L86.6641 21.3057L86.4731 21.226L86.282 21.1063L86.0911 20.9868L85.9384 20.8673L85.6327 20.7078L85.3653 20.5085L85.0216 20.3489L84.8688 20.2693L84.7159 20.2294L84.3722 20.0699L84.1812 20.03L84.0283 19.9504L83.8375 19.9105L83.6464 19.8706L83.3027 19.7908L83.1496 19.8307H83.0352L82.9206 19.8706L82.8442 19.9105L82.7677 19.9504L82.6914 20.03L82.6532 20.0699V20.1098L82.615 20.1496L82.6532 20.1895V20.2693L82.6914 20.3091L82.7677 20.3489L82.8442 20.4287L82.9206 20.4686L83.0352 20.5482L83.7992 20.9469L84.6013 21.3057L84.9833 21.505L85.3653 21.6645L86.1294 22.0234H86.2439L86.3584 22.0631V22.2227V22.3024L86.3965 22.3822L86.4348 22.4618V22.5416L86.4731 22.5815L86.5114 22.6612L86.5877 22.7809L86.6641 22.8206L86.7024 22.9004L86.8169 22.98L86.8934 23.0199L86.9697 23.0598L87.1223 23.0997L87.3135 23.1794L87.5045 23.2193L87.6572 23.2991L87.8102 23.3787L87.9246 23.4984L88.0775 23.5781L88.1922 23.6978L88.3067 23.8173L88.4213 23.9368L88.4977 24.0565L88.6123 24.1761L88.6886 24.3355L88.7268 24.4552L88.8031 24.6146L88.8796 24.814H88.7649L88.536 24.7342L88.383 24.6943L88.1922 24.6546L88.001 24.6943L87.8483 24.7342L87.6955 24.7741L87.5427 24.8936L87.3899 25.0133L87.3135 25.0532L87.237 25.093L87.1223 25.2127L87.0079 25.2923L86.9315 25.3721L86.8551 25.412L86.8169 25.4518H86.7787V25.4917L86.9315 25.6113L87.0462 25.7708L87.3517 26.0099L87.5045 26.0897L87.6572 26.2092L87.8102 26.289L87.9628 26.4086L88.1157 26.4884L88.2685 26.5282L88.5741 26.6478L88.7268 26.7276H88.8796L89.0324 26.7673L89.2235 26.8072H89.5289H89.8727L90.0639 26.7673H90.2166L90.5985 26.6877L90.9424 26.5682V25.3322L90.8279 25.2923L90.6367 25.2127L90.4457 25.1728L90.2549 25.0532L90.1021 24.9734L89.9111 24.8539L89.7582 24.7342L89.5672 24.6146L89.4145 24.495L89.2618 24.3355L89.1088 24.1761L88.8796 23.9368L88.6886 23.6978L88.4977 23.4585L88.3067 23.1794L88.5741 23.2592L88.8796 23.339L89.1088 23.4186L89.3763 23.4984L89.6054 23.5781L89.8345 23.6579L90.0639 23.7774L90.2929 23.8971L90.4839 23.9767L90.675 24.0964L90.8661 24.2559L90.9424 24.2958V22.0234H90.9043L90.7514 22.0631L90.6367 22.0234H90.5222L90.4075 21.9835H90.3312L90.2166 21.9037L90.1021 21.7842L89.9875 21.7044L89.9111 21.5848L89.8727 21.505L89.8345 21.4653L89.7582 21.3057L89.6817 21.1463L89.6435 21.0666L89.6054 20.9868L89.5672 20.7875V20.628L89.5289 20.4686V20.2693L89.5672 20.03L89.6054 19.7908L89.6435 19.5914L89.7199 19.3524L89.7582 19.1929L89.8345 19.0732L90.0256 18.7543L90.2166 18.4752L90.2929 18.3557L90.4457 18.2361L90.5222 18.1164L90.6367 18.0368L90.8661 17.8772L90.9424 17.8374V14.0501L90.6367 14.0901L90.1403 14.1298L89.6435 14.1697L89.1088 14.2096L88.6123 14.2892L88.0775 14.369L87.5427 14.4488L87.0079 14.5285H86.8934L86.7787 14.5684H86.6641L86.5877 14.6083L86.4731 14.6482L86.4348 14.6879L86.3202 14.7677L86.2439 14.8076V14.8872L86.2057 14.9272V15.007L86.1676 15.0467L86.2057 15.1265V15.2063L86.2439 15.2859L86.282 15.3657L86.3584 15.4454H86.4731L86.5877 15.4056L86.8551 15.3657L87.1223 15.3258L87.4282 15.2859H87.6955H87.9628H88.2303L88.4595 15.3258L88.7268 15.3657L88.9559 15.4056L89.1853 15.4853L89.4145 15.5651L89.6435 15.6447L89.8727 15.7245L90.1021 15.8441L90.2929 15.9637L90.4839 16.1232L90.5222 16.2427V16.2826L90.5603 16.3225V16.4022L90.5985 16.482L90.6367 16.5219L90.675 16.6015V16.6414V16.6813L90.7133 16.7212V16.761V16.8008V16.8408V16.8806V16.9205H90.675V16.9603H90.6367H90.5985H90.5603H90.5222H90.4839H90.4457H90.4075H90.3693L90.3312 16.9205H90.2929H90.2549L90.2166 16.8806H90.1785L90.1403 16.8408H90.1021L90.0256 16.8008L89.9875 16.761L89.8727 16.7212H89.8345L89.7964 16.6813L89.7199 16.6414L89.6054 16.6015ZM90.9424 20.1098V20.7476L90.9043 20.7078L90.7133 20.4686L90.9424 20.1496V20.1098Z" fill="#00247D"/>
<path fill-rule="evenodd" clip-rule="evenodd" d="M83.3026 18.6348H83.6082L83.379 18.5152L83.1115 18.3957L82.8442 18.2759L82.6149 18.1962L82.3092 18.1164L82.1948 18.0765H82.0419L81.7746 18.0367L81.507 17.9968H81.2398H80.9343H80.7812L80.6668 18.0367L80.3612 18.0765L80.0554 18.1563L79.75 18.1962L79.4445 18.3158L79.1388 18.3957H79.0242L78.9479 18.3557L78.7187 18.2759L78.5276 18.1962L78.3365 18.1164L78.1074 18.0765L77.8782 17.9968H77.6873L77.4581 17.9569H77.2288L76.9615 17.917L76.7321 17.9569H76.5031H76.2357L75.9681 17.9968L75.739 18.0765L75.4717 18.1164L75.2041 18.1962V18.2361V18.2759L75.2423 18.3158V18.3957L75.3953 18.5551L75.51 18.7546L75.6627 18.954L75.8537 19.1135L76.0064 19.273L76.1975 19.4325L76.3503 19.592L76.5795 19.7117L76.7704 19.8313L76.9996 19.9511L77.2288 20.0706L77.4581 20.1503L77.6873 20.2302L77.9546 20.31L78.1839 20.3896L78.4894 20.4695H78.5276V20.4296H78.5659H78.604L78.6422 20.3896L78.7187 20.31L78.795 20.2302L78.8332 20.1503L78.8714 20.0706V19.9511V19.8712L78.8332 19.7914L78.795 19.7117L78.7569 19.6319L78.6804 19.5522L78.5659 19.4724L78.451 19.3926L78.3365 19.3129L78.1839 19.2331L77.9929 19.1534L77.8401 19.1135L77.8019 19.0337V18.954V18.9141V18.8742L77.8401 18.7945H77.8782L77.9546 18.7546H77.9929H78.1074H78.1839H78.2984L78.413 18.7945L78.5276 18.8342L78.6804 18.8742L78.8714 18.9141L79.0242 18.954L79.2151 19.0337L79.368 19.0736L79.7118 19.1534L80.0173 19.2331L80.2085 19.273H80.3612L80.514 19.3129H80.5905H80.6668L80.7812 19.3528H80.9343H81.087H81.1633H81.2398H81.3544H81.507L81.6217 19.3129H81.7746L81.8891 19.273H81.9274H81.9656H82.0038H82.0419L82.0801 19.2331H82.1184L82.2712 19.1933L82.3475 19.1534L82.5004 19.1135L82.5768 19.0736L82.6914 19.0337L82.8059 18.954L82.9206 18.9141L82.9587 18.8742L82.9969 18.8342L83.1115 18.7945L83.1496 18.7546L83.1878 18.7147L83.3026 18.6348Z" fill="#00247D"/>
<path fill-rule="evenodd" clip-rule="evenodd" d="M95.2585 34.5017L95.3732 34.4219L95.9462 34.0632L97.054 33.3456L98.1618 32.5881L99.2314 31.8704H99.4606H99.9953L100.568 31.9103L101.103 31.9502L101.676 31.9901L101.982 32.1097L102.287 32.2294L102.593 32.3489L102.899 32.4684L103.242 32.5482L103.586 32.6279L103.892 32.7077L104.274 32.7875V32.7476H104.312H104.35H104.388V32.7077L104.579 32.4684L104.77 32.2294L104.961 31.9901L105.152 31.7509L105.343 31.5515L105.572 31.3522L105.763 31.1529L105.993 30.9535L106.031 30.7144V30.3954V30.236V30.0765V29.9171V29.7576L105.955 29.5184L105.916 29.2393L105.878 29.1197L105.802 29.0399L105.687 28.8406L105.649 28.761L105.572 28.6812V28.5616L105.611 28.4421L105.687 28.2825L105.725 28.123L105.802 27.9636L105.84 27.8441L105.878 27.6846L105.916 27.5649L105.955 27.4853L105.993 27.3656V27.2859L106.031 27.2061V27.1265V27.0866V27.0068V26.9669H105.993V26.9272H105.955H105.916H105.878L105.84 26.9669H105.802L105.763 27.0068L105.687 27.0866L105.649 27.1265L105.572 27.2061L105.496 27.2859L105.381 27.3656L105.305 27.4853L105.229 27.5649L105.114 27.6846L105.038 27.8441L104.923 27.9636L104.847 28.4818L104.999 28.6015L105.114 28.6812L105.229 28.8008L105.305 28.9204L105.381 29.0399L105.458 29.1596V29.2792L105.496 29.3989L105.458 29.5184V29.6778L105.42 29.7974L105.343 29.9171L105.267 30.0765L105.152 30.1961L105.038 30.3555L104.923 30.5151L104.847 30.5548L104.77 30.5947L104.732 30.6346L104.656 30.6745L104.579 30.7144L104.541 30.7542H104.465H104.427L104.35 30.7144H104.312L104.274 30.6745L104.197 30.6346L104.159 30.5947L104.121 30.5151L104.044 30.4752L104.006 30.3954L103.892 30.1563L103.777 29.9171L103.701 29.6778L103.624 29.4785L103.548 29.2792L103.472 29.0798L103.395 28.8805L103.357 28.7211L103.319 28.5217V28.3623L103.28 28.2028V28.0434L103.319 27.9237V27.7643L103.357 27.6447L103.395 27.525L103.624 27.4454L103.739 27.4055H103.815L104.006 27.3258L104.159 27.2859L104.197 27.246L104.274 27.2061H104.312L104.35 27.1662L104.388 27.1265V27.0866V27.0467L104.35 27.0068L104.312 26.9669H104.274H104.197L104.159 26.9272L104.006 26.8873H103.815L103.739 26.8474H103.624H103.395H103.28L103.166 26.8873L102.784 26.9669L102.364 27.0467L101.944 27.1662L101.523 27.2859L101.065 27.4454L100.607 27.6048L100.11 27.7643L99.6134 27.9237V27.9636H99.5753L99.5371 28.0035H99.4989H99.4606H99.4222H99.3842L99.3459 27.9636H99.3077L99.2314 27.9237L99.1932 27.8839H99.1549L99.1167 27.8441L99.0023 27.7643L98.9258 27.6846L98.6966 27.525L98.5056 27.3656L98.3527 27.246L98.2381 27.0866L98.1237 26.9669L98.0855 26.8474L98.0473 26.7278V26.648L98.0855 26.5684L98.1618 26.4886L98.2381 26.4088L98.3909 26.3291L98.5437 26.2892L98.7348 26.2493L98.9641 26.1697H99.2314V26.05V26.0101L99.1932 25.9305V25.8507L99.1549 25.8109L99.1167 25.771L99.0785 25.6912H99.0404L98.9641 25.6513H98.8876L98.8113 25.6116H98.7348H98.6584L98.5819 25.6513H98.4674L98.3527 25.6912H98.2381L98.1618 25.7311L97.971 25.771H97.8179H97.7416L97.6651 25.8109H97.5888H97.5506L97.4359 25.771H97.3597V25.7311H97.3215L97.2833 25.6912V25.6116V25.5717V25.5318L97.3215 25.452L97.3979 25.3723L97.4741 25.2526L97.5123 25.2129L97.5888 25.1331L97.7034 25.0136L97.7416 24.9737L97.7798 24.9338L97.8179 24.8939L97.8561 24.8541V24.8142L97.8179 24.7743L97.7798 24.7344H97.7416H97.6651L97.6269 24.6945H97.5506H97.4741H97.3597H97.2833H97.0923H96.9393H96.8248H96.7865L96.6338 24.6548L96.5957 24.6149H96.5575L96.4812 24.575H96.4429L96.3665 24.4952L96.3284 24.4156L96.2902 24.3358V24.296V24.2561V24.1763V24.1364L96.3284 24.0169L96.3665 23.8973L96.4429 23.7377L96.5194 23.5783L96.5957 23.4189L96.5575 23.3789L96.4812 23.3392L96.3665 23.2993H96.2518H96.2135L96.1372 23.3392L96.0608 23.3789H96.0225L95.9462 23.4189L95.8698 23.4987L95.7554 23.6182L95.6026 23.7377L95.5261 23.8574L95.4495 23.9371L95.2967 24.0967L95.2585 24.1364V29.1197L95.335 29.1596L95.8315 29.5184L96.3284 29.9171L96.8248 30.3555L97.3597 30.7941L97.1687 30.7542H96.9776L96.7865 30.7144H96.6338L96.4812 30.7542L96.3665 30.7941L96.2135 30.834L96.099 30.9138L95.9843 30.9934L95.8315 31.0732L95.7171 31.1928L95.6026 31.3522L95.4495 31.5116L95.335 31.6712L95.2585 31.8307V34.5017ZM90.7131 37.5712L90.7511 37.5312L90.9422 37.4516L91.0948 37.3718L91.4387 37.1725L91.7444 36.9731L92.0498 36.7738L92.3937 36.6143L92.5084 36.4948L92.623 36.415H92.661L92.6993 36.3753L92.7374 36.3354L92.8138 36.2955L93.0048 36.136L93.196 35.9766L93.387 35.8172L93.5778 35.6976L93.7306 35.618L93.8835 35.4983L93.9981 35.4186L94.1128 35.2989L94.2273 35.2193L94.3036 35.1395L94.4182 35.0996L94.4946 35.0199L94.571 34.9801L94.6092 34.9401L94.6858 34.8605H94.7239L94.7621 34.8206L94.8003 34.7807H94.8386L95.2585 34.5017V31.8307L95.2204 31.8704L95.0677 32.1097L94.9149 32.3489L94.7621 32.5881L94.6858 32.7077L94.6092 32.8671L94.4564 33.1463L94.3036 33.4651L94.1128 33.784L94.0363 33.9434L93.96 34.103L93.8452 34.3024L93.7689 34.5017L93.6161 34.3421L93.5014 34.1827L93.387 34.0232L93.3105 33.8239L93.2723 33.7443L93.2342 33.6246L93.196 33.4651L93.1578 33.2658V33.0266V32.907V32.8272L93.196 32.5881L93.2342 32.3489L93.3105 32.1097L93.387 31.8704L93.4631 31.5914L93.6161 31.3123L93.7306 31.0333L93.8452 30.834L93.9218 30.6346L93.9981 30.4353L94.0363 30.236L94.0745 30.0366V29.8772V29.6778V29.5184L94.0363 29.3191L93.9981 29.1596L93.9218 29.0002L93.8452 28.8406L93.7306 28.6812L93.6161 28.5217L93.4631 28.3623L93.3488 28.2028V28.0831L93.8452 28.3224L94.3036 28.5616L94.8003 28.8406L95.2585 29.1197V24.1364L95.1057 24.296L95.0296 24.3756L94.9531 24.4554L94.8386 24.5351L94.7621 24.6149L94.6092 24.7743L94.4182 24.9338L94.3036 25.0136L94.2273 25.0932L94.1128 25.173L94.0363 25.2526L93.8452 25.4122L93.6542 25.5318L93.5396 25.6116L93.4631 25.6912L93.2342 25.8507L93.0431 25.9704L92.8138 26.0899L92.7374 26.1697L92.623 26.2493L92.3937 26.369L92.2792 26.4088L92.2026 26.4886L91.9735 26.6081L91.7444 26.7278L91.5152 26.8474L91.2858 26.9669L91.0186 27.0467L90.7894 27.1662L90.7131 27.2061V28.8805L90.7894 28.8406L90.9422 28.761L91.0567 28.7211L91.133 28.6812L91.2858 28.5616L91.4769 28.4421L91.5534 28.3623L91.6299 28.3224L91.7444 28.2427L91.8207 28.1629H91.897L92.0116 28.0831H92.0498L92.1263 28.0434H92.1645H92.2408H92.3174L92.3937 28.0831L92.4702 28.123L92.5084 28.2028V28.2427L92.5465 28.2825L92.5847 28.4022V28.4818L92.623 28.5217V28.6015V28.6812V28.8805V29.0798H92.5847L92.5465 29.1197H92.4702L92.3937 29.1596L92.2792 29.1995L92.2026 29.2393L92.0498 29.2792L91.897 29.3191L91.7444 29.359L91.5534 29.4386L91.3622 29.4785L91.133 29.5583L90.9041 29.598L90.7131 29.6778V30.7542L92.6993 30.834V30.9535L92.5084 31.0732L92.3937 31.1529L92.088 31.3522L91.8207 31.5116L91.6679 31.5914L91.5534 31.6313L91.4005 31.711L91.2477 31.7509L91.133 31.7908L91.0186 31.8307L90.7511 31.8704H90.7131V37.5712ZM87.5424 32.4285L87.6952 32.3888L87.9625 32.309L88.23 32.2294L88.0772 32.3888L87.9243 32.5482L87.657 32.8671L87.5424 32.9868V34.7408L87.657 34.6213L87.848 34.4219L88.0008 34.2625L88.1537 34.103L88.3065 33.9834L88.4592 33.8638L88.612 33.7443L88.7265 33.6645L88.8411 33.5847L88.9556 33.505L89.0703 33.4252L89.1468 33.3853L89.2233 33.3456H89.2996H89.376H89.4143H89.4904L89.5286 33.3853L89.5669 33.4252L89.6051 33.505V33.5847V33.6645V33.7044V33.7443V33.8638V33.9434L89.5669 34.0632L89.5286 34.1827L89.4525 34.382L89.376 34.4618L89.3378 34.5814L89.2615 34.7009L89.185 34.7807L89.0703 34.9003L88.9939 35.0199L88.8793 35.0996L88.7646 35.2193L88.6502 35.2989L88.5357 35.4186L88.2682 35.618L87.9625 35.8172L87.7717 35.8968L87.6189 36.0165L87.5424 36.0562V38.9665L87.657 38.9266L87.848 38.847L88.2682 38.6874L88.6502 38.5279L88.9939 38.3685L89.0703 38.3286L89.185 38.2887L89.376 38.2091L89.4525 38.1692L89.5286 38.1293L89.7197 38.0496L90.0636 37.8902L90.4455 37.7306L90.7131 37.5712V31.8704H90.6365H90.5219L90.2546 31.8307H90.1401L90.0254 31.7908L89.7961 31.711L89.6051 31.6313L89.376 31.4719L89.2996 31.3921L89.185 31.3123L88.9939 31.113L88.8029 30.9138L88.7646 30.8739V30.834V30.7542V30.7144L90.7131 30.7542V29.6778H90.6747L90.5219 29.7177H90.4072L90.2546 29.7576H90.1401H89.9873H89.8724H89.7197H89.6051L89.4525 29.7177L89.376 29.6778H89.2996L89.0321 29.598L88.8793 29.5583L88.7265 29.4785L88.421 29.359L88.2682 29.2792L88.23 29.2393H88.1919L88.1154 29.1995L87.9625 29.1197L87.8099 29.0002L87.5424 28.8406V32.4285ZM90.7131 27.2061V28.8805L90.6365 28.9204L90.4455 29.0002L90.2927 29.0399L90.1401 29.0798H89.949H89.7961H89.6051H89.5286H89.4525L89.2615 29.0399L89.1086 29.0002L88.9176 28.9603L88.7646 28.8805L88.6502 28.8406L88.5357 28.761L88.4592 28.6812L88.421 28.6414L88.3447 28.5616L88.3065 28.4818V28.4421L88.2682 28.3623V28.3224L88.3065 28.2427L88.3447 28.1629L88.3828 28.123L88.421 28.0434L88.4975 28.0035L88.612 27.9237L88.6883 27.8839H88.7265L88.8029 27.8441H88.8793L88.9939 27.8042L89.2615 27.7244L89.5286 27.6447L89.5669 27.6048H89.6432L89.7961 27.5649L90.0254 27.4454L90.2927 27.3656L90.5219 27.246L90.6747 27.2061H90.7131ZM83.3024 24.8142L83.2642 24.8939V24.9338L83.2258 25.0136L83.1876 25.0932V25.1331L83.1493 25.2129L83.0732 25.3723L82.9585 25.5717L82.9204 25.6513L82.8822 25.6912V25.7311H82.8439V25.771L82.8057 25.8109L82.7675 25.8507L82.7294 25.9305L82.6529 26.0101L82.6147 26.05L82.5384 26.1298L82.4235 26.2493L82.3472 26.2892L82.309 26.3291L82.1946 26.4088L82.0417 26.4886H81.9654L81.9271 26.5285H81.8508H81.8126L81.7744 26.5684H81.6979H81.6597L81.6214 26.6081H81.5832H81.545H81.4688H81.316L81.2396 26.5684L81.1631 26.5285L81.0868 26.4886H81.0486H81.0103H80.9721H80.934V26.5285V26.5684V26.6081L80.9721 26.648L81.0103 26.7278L81.0868 26.7676L81.125 26.8474L81.2013 26.9669L81.2778 27.0467L81.3541 27.2061L81.4306 27.3258L81.5067 27.4853L81.5832 27.6447L81.6214 27.8042L81.6597 27.9636L81.6979 28.1629V28.3224V28.5217V28.7211V28.9204V29.1596L81.6597 29.359L81.6214 29.598L81.5832 29.8373L81.6979 29.7177L81.8126 29.598L81.9654 29.4785L82.1181 29.359L82.309 29.2393L82.5001 29.1197L82.6911 29.0002L82.9204 28.9204L83.1112 28.8406L83.2258 28.8008H83.3405L83.6079 28.8406H83.7225L83.8372 28.9204L83.9898 28.9603L84.1045 29.0399L84.2573 29.1197L84.372 29.1995L84.5247 29.3191L84.6775 29.4386L84.7919 29.5583L84.9448 29.7177L85.0595 29.8373L85.1741 29.9967L85.2887 30.0765L85.4033 30.1961L85.5177 30.2759L85.6324 30.3555L85.7471 30.4353L85.8999 30.4752H86.0145L86.1291 30.5151H86.2817L86.3963 30.4752L86.5493 30.4353L86.7021 30.3954L86.8549 30.3158L87.0077 30.2759H87.3132H87.2751L87.2367 30.3158L87.1221 30.3954H87.084L87.0077 30.4353L86.9312 30.5151L86.8166 30.5548L86.7403 30.5947L86.7021 30.6346L86.4729 30.7144L86.3582 30.7542L86.2436 30.834L85.9763 30.9138L85.8616 30.9535L85.7471 30.9934L85.4798 31.113L85.1741 31.1529L85.0213 31.1928L84.9068 31.2327L84.601 31.3123L84.2955 31.3522L84.219 31.3921H84.1045L83.9516 31.432L83.6462 31.4719L83.3024 31.5116L82.9585 31.5515L83.1493 31.6712L83.3405 31.7908L83.5315 31.8704L83.6079 31.9502H83.6462L83.6843 31.9901L83.8753 32.0698L83.9133 32.1097H83.9516L84.028 32.1895L84.181 32.2691L84.2573 32.309H84.2955L84.3337 32.3489H84.372L84.41 32.3888L84.4865 32.4285L84.6393 32.4684L84.6775 32.5083H84.7156L84.7538 32.5482L84.8685 32.5881L84.9831 32.6279L85.0978 32.7077L85.2123 32.7476L85.2887 32.7875H85.4033H85.4798L85.6324 32.8272H85.7471L85.8999 32.7875H86.0526H86.2054L86.3963 32.7476L86.5874 32.7077L86.7784 32.6678L86.9694 32.5881L87.1985 32.5482L87.4279 32.4684L87.5424 32.4285V28.8406L87.4661 28.8008L87.3132 28.6812L87.1603 28.5616L86.9694 28.4022L86.8166 28.2825L86.4729 27.9636L86.32 27.8042L86.2054 27.7244L86.1291 27.6447L85.9763 27.4853L85.8999 27.4055L85.8235 27.3258L85.7853 27.2859L85.8235 27.246L85.8616 27.1662L85.8999 27.0866V27.0467V26.9669H85.9381V26.8873V26.8474V26.8075V26.7676L85.8999 26.7278V26.6081L85.8616 26.5285L85.8235 26.4088L85.7853 26.369V26.3291V26.2892H85.7471V26.2493L85.7089 26.2094V26.1697L85.6706 26.0899L85.5942 25.9704L85.5177 25.8906L85.2505 25.5717L84.9831 25.2526L84.8685 25.0535L84.7538 24.8939L84.5247 24.575L84.41 24.4156L84.2955 24.2561L84.1045 23.8973L83.9133 23.5385L83.7225 23.1796V23.3392V23.4189V23.4587L83.6843 23.5385V23.6182V23.6581V23.698L83.6462 23.7377V23.8175L83.6079 23.8973L83.5697 23.9371L83.5315 24.0169H83.4932V24.0568L83.4169 24.0967H83.3787H83.3405H83.3024H83.2258L83.1876 24.0568H83.1493L83.1112 24.0169L83.0349 23.977H82.9967L82.6911 23.7776L82.3472 23.5783L82.0036 23.3789L81.6597 23.1796L81.316 22.9803L80.9721 22.8208L80.5902 22.6614L80.2463 22.502V22.5818V22.6215V22.6614L80.2845 22.7013L80.3992 22.9405L80.5138 23.1399L80.6283 23.2993L80.7809 23.4987L80.8958 23.6581L81.0868 23.8175L81.2396 23.977L81.4306 24.0967L81.6214 24.2162L81.8508 24.3358L82.0417 24.4156L82.2709 24.5351L82.5001 24.6149L82.7675 24.6945L82.9967 24.7344L83.3024 24.8142ZM87.5424 32.9868V34.7408L87.4661 34.7807L87.2751 35.0199L87.084 35.2193L86.8549 35.4584L86.6256 35.6577L86.4345 35.8968L86.1673 36.1759L86.0526 36.2955L85.9381 36.4549L85.6706 36.7341L85.4415 37.0529L85.9381 36.8536L86.1673 36.7341L86.3963 36.6543L86.8166 36.415L87.2367 36.2157L87.5424 36.0562V38.9665L87.4661 39.0064L87.084 39.126L86.6639 39.2455L86.32 39.3652L85.9763 39.4847L85.6324 39.6442L85.3268 39.8036L85.0213 39.9632L84.7156 40.1227L84.41 40.322L84.1427 40.5213L83.8753 40.7207L83.6079 40.9598L83.3405 41.199L83.1112 41.4382L82.8439 41.6775L82.6147 41.9565L82.3855 42.2356L82.1946 42.5545L77.6105 43.6707H77.4961H77.4578H77.3814L76.541 44.5477L75.7007 45.385L74.8602 46.262L74.0199 47.0992L73.1412 47.9363L72.5683 48.5343V47.6972L72.7974 47.4181L72.9883 47.1789L73.0647 47.0593L73.1793 46.9398L73.3704 46.6606L73.5233 46.4214L73.676 46.1424L73.8289 45.8633L73.9817 45.6242L74.0962 45.3451L74.2109 45.0661L74.3255 44.7869L74.4398 44.508L74.5165 44.2687L74.2872 44.3484L74.0962 44.4282L73.9052 44.5477L73.714 44.6674L73.5233 44.7869L73.3704 44.9065L73.2175 45.0262L73.0647 45.1856L72.9119 45.3451L72.7592 45.5045L72.6446 45.6639L72.5683 45.7836V44.5876L72.6829 44.508L72.8355 44.4282L72.9502 44.3086L73.103 44.2288L73.2175 44.1093L73.3704 43.9896L73.5995 43.7902L73.714 43.6707L73.8289 43.5512L73.9434 43.3916L74.0581 43.272L74.2491 43.0328L74.3635 42.8733L74.4398 42.7538L74.631 42.4747L74.7457 42.3152L74.7839 42.2356L74.822 42.1558L74.8985 41.9964L74.9749 41.8369L75.6625 41.4382L76.35 40.9997L76.4265 40.9598L76.5028 40.92L76.6174 40.9997L76.7319 41.0795L76.8464 41.1591L76.9994 41.199L77.1521 41.2788L77.2668 41.3185L77.4578 41.3584L77.6105 41.3983H77.6487H77.6871H77.7252H77.8399L78.1454 41.3185L78.4508 41.2389L78.7184 41.1591L79.024 41.1194L79.597 40.9598L79.8644 40.8801L79.9788 40.8402L80.1318 40.8003L80.361 40.7207L80.6283 40.6409L81.0868 40.4814L81.316 40.4016L81.5067 40.322L81.9271 40.1626L81.9654 40.1227V40.0828V40.0429L81.7361 39.8435L81.6214 39.724L81.545 39.6044L81.4306 39.4847L81.3541 39.4051L81.1631 39.1659L81.0868 39.0064L80.9721 38.8867L80.8192 38.6077L80.7048 38.3286L80.6283 38.1692L80.552 38.0097L80.5138 37.9698H80.4755H80.4373L80.4755 37.6908V37.5712V37.4915V37.4117V37.1327V36.9731V36.8137L80.4373 36.4948L80.3992 36.1759L80.361 35.8172L80.3228 35.4983H80.4373L80.552 35.5781L80.6283 35.6976L80.7429 35.8172L80.8192 36.0165L80.934 36.2157L81.0103 36.4948L81.125 36.7738L81.2396 37.0928L81.2778 37.2922L81.3541 37.4516L81.4306 37.5712L81.5067 37.7306L81.5832 37.8503L81.6597 37.9698L81.7744 38.0496L81.8508 38.1293L81.9654 38.1692L82.0799 38.249H82.1946L82.309 38.2887H82.4235H82.5766L82.6911 38.249L82.8439 38.2091L82.6911 37.9698L82.5001 37.7306L82.3855 37.4915L82.2327 37.2523L82.1181 36.9731L82.0036 36.6941L81.8889 36.415L81.8126 36.0961L81.7361 35.7772L81.6597 35.4584L81.6214 35.1395L81.5832 34.7807L81.545 34.4219V34.0232V33.6246V33.2259V32.9868L81.2778 32.907L81.0103 32.8272L80.7809 32.7077L80.552 32.6279L80.3228 32.5083L80.1318 32.4285L79.9406 32.309L79.7498 32.1895L79.6352 32.1496L79.5588 32.0698L79.406 31.9502L79.2914 31.8307L79.1385 31.711L79.024 31.5515L78.9094 31.432L78.833 31.2726L78.7566 31.1529L78.7184 31.113V31.0732V30.9535L78.8712 30.8739L78.9477 30.834L79.024 30.7941L79.1385 30.7542L79.2531 30.7144L79.3295 30.6745H79.3677V30.6346H79.3295L79.2531 30.6745H79.1766L79.0622 30.7144L78.9094 30.7542H78.833L78.7566 30.7941L78.5274 30.8739L78.3363 30.9535H78.2599L78.1836 30.9934H78.1454L78.0689 31.0333L77.9544 31.0732L77.8779 31.1529L77.7634 31.1928L77.6487 31.2726L77.534 31.3522L77.4196 31.432L77.2668 31.5116L77.1521 31.6313L76.9994 31.711L76.8082 31.8307L76.6556 31.9502L76.4646 32.0698L76.5028 31.8704L76.541 31.6712L76.6556 31.2726L76.7319 30.9138L76.8082 30.5548L76.8848 30.1961L76.9613 29.8772L77.0376 29.598L77.1141 29.3191L77.1521 29.0399L77.2286 28.761L77.3051 28.5616L77.3814 28.3224L77.4196 28.123L77.4961 27.9636L77.534 27.8042L77.6105 27.6447V27.7643L77.8399 27.8441L78.0689 27.9636L78.2982 28.0831L78.5274 28.2427L78.7566 28.4022L78.9477 28.5616L79.1385 28.761L79.3295 29.0002L79.406 29.0798L79.5205 29.1995L79.6734 29.4386L79.8644 29.6778L80.0171 29.957L80.17 30.2759L80.2845 30.5548L80.4373 30.8739L80.5138 31.0333L80.552 31.2327L80.6283 31.3522L80.6665 31.5116L80.7429 31.6313L80.8192 31.7509L80.8958 31.8307L80.9721 31.9103L81.0486 31.9901L81.125 32.0698L81.2396 32.1097L81.316 32.1496H81.4306L81.545 32.1895H81.6214L81.7361 32.1496L81.8508 32.1097L81.9654 32.0698L82.0417 32.3888L82.1181 32.7476L82.2327 33.1063L82.309 33.505L82.4235 33.9434L82.5384 34.4219L82.6529 34.9003L82.8057 35.4186V35.4584L82.8439 35.5382L82.8822 35.6577L82.9204 35.7375L82.9585 35.8968L82.9967 36.0165L83.0732 36.1759L83.1112 36.2955L83.1876 36.4948L83.2258 36.6543L83.3024 36.8935L83.3787 37.0928L83.4552 37.2922L83.5315 37.5312L83.6462 37.8104L83.9133 37.4516L84.1427 37.0928L84.2955 36.9334L84.41 36.8137L84.601 36.5347L84.7919 36.2556L84.9831 36.0165L85.0595 35.8968L85.1358 35.7772L85.2887 35.6577L85.3651 35.5382L85.4033 35.4983L85.4415 35.4186L85.5559 35.2989L85.6706 35.1395L85.8235 34.9801L85.9381 34.8206L86.0145 34.7009L86.1291 34.6213L86.2817 34.4219L86.3582 34.3024L86.4729 34.1827L86.6639 33.9434L86.8931 33.7044L87.1221 33.4252L87.2751 33.3057L87.3897 33.1463L87.5424 32.9868ZM72.5683 44.5876V44.6275L72.2625 44.7869L72.1097 44.8667L71.9569 44.9464L71.8043 45.0262L71.6514 45.1058L71.3458 45.2654L71.1929 45.3052L71.002 45.385L70.6581 45.5045L70.2763 45.6639L69.5885 45.9431L69.2448 46.1025L68.901 46.3019L68.5572 46.4613L68.2517 46.6207L67.908 46.8201L67.6022 46.9795L66.9912 47.3782L66.6854 47.5775L66.6091 47.6573V51.2054L66.8001 51.1257L67.0293 51.0459L67.2584 50.9661L67.5259 50.9264L67.7933 50.8865L68.0607 50.8466H68.328H68.6338H68.9392L69.283 50.8865L69.5885 50.9264L69.9706 50.9661L70.047 50.8865H70.0852L70.1233 50.8466L70.2763 50.7271L70.429 50.6074L70.5818 50.4878L71.4221 49.6506L72.3007 48.7736L72.5683 48.5343V47.6972L72.4535 47.8168L72.3772 47.9363L72.1479 48.1755L71.8808 48.4148L71.7661 48.5343L71.6514 48.654L71.5368 48.7337L71.4221 48.8135L71.3076 48.8534L71.2311 48.933H71.155L71.0785 48.9729L70.964 48.933H70.9256L70.8491 48.8931L70.7728 48.8534L70.7346 48.7736L70.6963 48.6938L70.6581 48.5742L70.62 48.4547L70.7728 48.056L70.8491 47.8567L70.9256 47.6972L71.1167 47.3782L71.1929 47.2188L71.3076 47.0992L71.4986 46.86L71.6131 46.7803L71.6896 46.7005L71.9188 46.581L72.0334 46.5411H72.1479V46.6207L72.2244 46.4214L72.3007 46.2221L72.4154 46.0229L72.5299 45.8633L72.5683 45.7836V44.5876ZM66.6091 57.7036H66.6473H66.8001L66.9146 57.6637L67.0676 57.6238L67.1821 57.5839L67.2584 57.5442H67.2966L67.4112 57.4644L67.5259 57.4245L67.6022 57.3846V57.3448H67.6404L67.755 57.265L67.8698 57.1852L67.9461 57.0657L68.0607 56.9861L68.137 56.8664L68.2134 56.7468L68.2517 56.7069V56.667L68.2897 56.6271L68.3662 56.5076V56.4677L68.4044 56.4278L68.4427 56.3881V56.3083L68.4808 56.2683V56.2286L68.5572 56.069L68.5956 55.9096L68.6338 55.8299V55.7501V55.6306V55.5109L68.5956 55.4312L68.5572 55.3116L68.4808 55.1521L68.4044 54.9528L68.2897 54.8332L68.137 54.7137L67.9842 54.594L67.8316 54.5143L67.6786 54.4345L67.5639 54.3947L67.3349 54.2751L67.2202 54.1953L67.144 54.1556L66.9528 54.0359L66.7618 53.8764L66.6091 53.7569V55.192L66.6473 55.2319L66.8382 55.3116L66.9528 55.3914L67.0676 55.5109L67.1821 55.5907L67.2966 55.7102L67.3349 55.8299L67.3731 55.9096L67.4112 56.0293V56.1089V56.2286L67.3731 56.3083L67.3349 56.4278L67.2584 56.2683L67.2202 56.2286H67.1821H67.1058L66.6091 55.7501V57.7036ZM66.6091 47.6573L66.4181 47.8168L65.8451 48.2553L65.272 48.6938L64.7755 49.1722L64.508 49.4512L64.2789 49.6905L63.7824 50.2087L63.5531 50.4878L63.3239 50.7668L62.9037 51.3249L62.4836 51.9229L62.1016 52.5609V52.6804L62.1396 52.8001L62.3306 53.2784L62.5217 53.7966L62.9803 54.8332V54.913V54.9528L63.0184 54.9927L63.2094 55.1122L63.3621 55.2319L63.7442 55.4312L63.935 55.5109L64.126 55.5907L64.508 55.7501L64.5846 55.8299L64.699 55.8697L64.7755 55.9495L64.8137 56.069L65.0047 56.3881L64.9283 56.4677L64.8518 56.5475L64.7755 56.6271L64.699 56.7468L64.6608 56.8265L64.6227 56.9063L64.5846 56.9462L64.5463 57.0258V57.0657V57.1455V57.1852V57.2252L64.5846 57.265L64.6227 57.305H64.6608L64.7373 57.3448V57.3846V57.4245V57.4644L64.9283 57.5442L65.1193 57.5839H65.2338L65.3103 57.6238L65.5013 57.6637L65.6923 57.7036H65.8451L65.9978 57.7435H66.1888H66.2653H66.3416H66.4181H66.4944L66.6091 57.7036V55.7501L66.4944 55.6306L65.8833 55.0326L65.8451 54.9927L65.8068 54.9528V54.913V54.8332L66.0361 54.9528L66.2653 55.0326L66.4563 55.1122L66.6091 55.192V53.7569L66.4563 53.5973L66.3416 53.4379L66.2653 53.3582L66.1888 53.2385L66.1124 53.0791L65.9978 52.9196L65.9215 52.7203L65.8833 52.521L65.8451 52.3216L65.8068 52.2021V52.0824V51.8832V51.8034L65.8451 51.7635L65.8833 51.7236L66.0361 51.5642L66.1888 51.4446L66.3798 51.3249L66.6091 51.2453V51.2054V47.6573Z" fill="#00247D"/>
<path fill-rule="evenodd" clip-rule="evenodd" d="M83.4934 22.3028V22.1832L83.4554 22.0635L83.3407 21.8641L83.226 21.7046L83.1114 21.5052L82.9587 21.3457L82.8059 21.1862L82.6531 21.0666L82.4619 20.9468L82.2711 20.8272L82.0801 20.7077L81.8891 20.5879L81.6598 20.5082L81.4308 20.4284L81.2015 20.3486L80.9723 20.3088L80.705 20.2689L80.4375 20.229V20.2689L80.4757 20.3088V20.3486V20.3885L82.0038 21.3457L83.4934 22.3028Z" fill="#00247D"/>
<path fill-rule="evenodd" clip-rule="evenodd" d="M76.0825 20.2292H75.9679V20.4684V20.5879L76.0061 20.7076V20.9467L75.9679 21.2258V21.5447L75.9298 21.8239L75.8915 22.1826V22.3421L75.8535 22.5015H75.7388L75.6625 22.4616L75.395 22.382L75.1656 22.3022L74.9749 22.2225L74.822 22.1826L74.7457 22.1427H74.6692H74.5547L74.4781 22.1028H74.4398V22.1427H74.4017V22.1826V22.2225H74.4398L74.4781 22.3022L74.5547 22.382L74.6692 22.5015L74.822 22.6211L74.9749 22.7408H75.0894L75.0512 22.8204V22.9401V23.0197V23.0995V23.259L75.0894 23.4184L75.1277 23.5381L75.2038 23.6577L75.2421 23.6976L75.2804 23.7772L75.3187 23.8171L75.395 23.857L75.5097 23.8969L75.586 23.9366H75.6625L75.7388 23.9765H75.8152H76.0061H76.1208H76.1972H76.4265L76.6938 23.9366L76.8082 23.8969H76.9613V23.9366V23.9765L76.923 24.0164V24.0563V24.0962L76.8848 24.136L76.8464 24.1759L76.8082 24.2158H76.7319L76.6556 24.2956L76.4265 24.4151L76.1972 24.4948L76.0825 24.5347L75.9679 24.5746L75.7388 24.6544H75.6242L75.4714 24.6941H75.3568L75.2038 24.734H75.0894H74.9367H74.7839H74.6692H74.5164H74.4398H74.3635L74.2872 24.6941H74.2109H74.0581L73.9052 24.6544H73.8289L73.7523 24.6144L73.5995 24.5746H73.4086L73.1029 24.4948L72.7211 24.3752H72.6828L72.6446 24.3353H72.5683L72.3771 24.2956L70.62 23.6976L68.901 23.0995L67.144 22.4616L65.4248 21.8636L63.7059 21.2258L62.0251 20.5879L60.3062 19.9103L58.6254 19.2723L58.3961 19.1927L58.2053 19.1129L57.9759 19.073L57.7468 19.0331L57.5176 18.9535H57.2501L57.0212 18.9136H56.7535H56.4862H56.2189L55.9514 18.9535H55.684L55.4168 18.9934L55.111 19.073L54.8054 19.1129L54.4999 19.1927L53.5448 19.3919L52.5516 19.6311L51.5967 19.8704L50.6418 20.1494L49.6484 20.3886L48.7316 20.6677L47.7768 20.9467L46.8217 21.2657L45.9049 21.5447L44.9881 21.8636L44.0713 22.1826L43.1546 22.5015L42.2761 22.8204L41.3592 23.1792L40.4806 23.4982L39.6021 23.8969V23.9765L40.9772 23.5779L42.4288 23.1394L43.8423 22.7009L45.2556 22.3022H45.3701H45.4084L45.4848 22.3421L46.0959 22.6211L46.6691 22.9002L46.9745 23.0197L47.2801 23.1394L47.5857 23.259L47.8913 23.3388L48.1968 23.4583L48.5025 23.5381L48.8081 23.6178L49.1136 23.6577L49.6866 23.7772L49.9923 23.857H50.1451L50.2979 23.8969H50.5271H50.5652H50.6036L50.6418 23.857H50.6799H50.718H50.7562V23.8171H50.7945V23.7772V23.7373V23.6577L50.7562 23.6178L50.718 23.5779L50.6799 23.5381L50.6418 23.4583L50.6036 23.4184L50.5652 23.3785L50.4889 23.3388L50.4507 23.2989L50.4124 23.2191L50.3361 23.1792L50.2979 23.1394H50.2598L50.2216 23.0596H50.1832L50.1451 23.0197L50.0687 22.9798L49.9541 22.7408L50.4124 22.5414L50.8327 22.382L51.291 22.2225L51.7495 22.1028L52.2079 21.9434L52.6663 21.8239L53.1628 21.7042L53.6594 21.5846L54.1178 21.5048L54.6146 21.3853L55.111 21.3055L55.6457 21.2657L56.1424 21.1859L56.6772 21.1061L57.212 21.0664L57.7468 21.0265L59.3129 21.6245L60.879 22.2225L62.4453 22.8603L63.2474 23.1792L64.0497 23.4982L64.8518 23.857L65.6923 24.1759L67.3348 24.8934L68.1752 25.2522L68.9774 25.6111L70.6963 26.3686L71.3839 26.2888L72.1097 26.2489L72.7974 26.1693L73.4851 26.1294L74.1344 26.0895L74.822 26.0097L75.4332 25.9699L76.0825 25.93L76.2736 26.1693L76.3883 26.2489L76.5028 26.3686L76.5793 26.4083L76.6938 26.4881L76.7701 26.5679L76.8464 26.6476H76.8848L76.923 26.6875L76.9993 26.7671L77.0376 26.807L77.114 26.8469L77.1904 26.8868L77.2668 26.9665H77.305L77.3431 27.0064L77.4196 27.0463L77.4578 27.0862H77.496L77.534 27.1261H77.5722H77.6104H77.6487H77.6871V27.0862V27.0463V27.0064L77.6487 26.9665V26.9267V26.8868H77.6104V26.8469V26.7671V26.7274H77.5722L77.2668 26.528L77.0376 26.3686L76.8464 26.209L76.7701 26.1294L76.7319 26.0496L76.6556 25.9699L76.6173 25.8901L76.5793 25.8105V25.7706V25.6908V25.6111L76.6173 25.4914L76.6556 25.4118L76.6938 25.332L76.7319 25.2921L76.8082 25.2125L76.8848 25.1726L76.9613 25.0928L77.1904 24.9732L77.4578 24.8537L77.7251 24.7739L78.0689 24.6544L78.2599 24.6144L78.4892 24.5746L78.5656 24.4151L78.6419 24.2557L78.6802 24.0962V24.0563V23.9765V23.8969V23.857L78.6419 23.7772L78.6037 23.6976L78.5656 23.6577L78.5274 23.5779L78.4127 23.4982L78.2218 23.3388L78.0308 23.1792L77.8779 23.0197L77.7634 22.9002L77.6487 22.7408L77.534 22.5813L77.4578 22.4616L77.3814 22.3022L77.3431 22.1427L77.305 21.9833L77.2668 21.8636V21.7042V21.5846L77.305 21.4252L77.3431 21.2657L77.3814 21.1461L77.496 21.2657L77.6104 21.3454L77.7251 21.4252L77.8779 21.5048L78.0308 21.5846V21.5048L77.9926 21.3853L77.9544 21.2657L77.8779 21.1461L77.8016 21.0664L77.7251 20.9866L77.6104 20.8671L77.496 20.7873L77.3814 20.7076L77.2286 20.6278L77.0758 20.548L76.8848 20.4684L76.6938 20.3886L76.5028 20.3487L76.3118 20.269L76.0825 20.2292Z" fill="#00247D"/>
<path fill-rule="evenodd" clip-rule="evenodd" d="M79.3682 23.418V23.4579V23.5377V23.5775L79.4064 23.6174L79.5209 23.7769L79.6356 23.9364L79.7884 24.096L79.9029 24.2555L80.0556 24.415L80.2087 24.5346L80.3997 24.6544L80.5524 24.774L80.7433 24.8935L80.8962 25.0133L81.1254 25.093L81.3164 25.1728L81.5071 25.2525L81.7365 25.3323L81.9658 25.4121L82.195 25.4918V25.4121V25.3722L82.1568 25.3323L81.431 24.8538L80.7433 24.3751L80.0556 23.8966L79.3682 23.418Z" fill="#00247D"/>
<path fill-rule="evenodd" clip-rule="evenodd" d="M44.8357 26.1695H44.8739H44.9121H44.9502L44.9884 26.2092L45.2177 26.4883L45.294 26.6478L45.4087 26.8072L45.4851 26.9667L45.5614 27.1263L45.7525 27.485L45.8671 27.8438L45.9435 28.0432L45.9817 28.2425L46.058 28.6809L46.0962 28.8802L46.1345 29.1195H46.1727H46.2109H46.2492V28.8802L46.2874 28.6412L46.2492 28.4019V28.1627L46.2109 27.9235L46.1727 27.7241L46.1345 27.485L46.0962 27.2458L46.0198 27.0465L45.9435 26.8072L45.8671 26.5681L45.7525 26.3688L45.6379 26.1296L45.5232 25.9302L45.4087 25.691L45.2559 25.4916L45.1412 25.3721L45.0268 25.2923L44.8739 25.2127L44.7211 25.1728L44.5301 25.1329L44.3391 25.093L44.1481 25.0532H43.9571H43.3076L42.6967 25.093L42.047 25.1728L41.4743 25.2524L40.8629 25.3322L40.2518 25.4517L39.6787 25.5714L39.1439 25.7708L38.571 25.9302L38.0362 26.1296L37.5016 26.3289L37.0047 26.6079L36.47 26.8471L35.9734 27.1263L35.477 27.4451L35.0184 27.764L34.331 28.2425L33.6433 28.7607L32.9175 29.239L32.1917 29.7175L31.8097 29.9567L31.6951 29.9965L31.6187 30.0763L31.4277 30.1958L31.2367 30.2756L31.1223 30.3553L31.0458 30.3952L30.8164 30.5149L30.7403 30.5546L30.6254 30.5945L30.4346 30.7142L30.2437 30.7938L30.0143 30.8736L29.8233 30.9932L29.4413 31.1526L29.0211 31.3121L28.9065 31.352L28.792 31.3919L28.601 31.4717L28.1425 31.6311L27.9516 31.671L27.8369 31.7107L27.7224 31.7506L27.4933 31.8304L27.2639 31.8702L27.0347 31.95L26.8437 31.9899H26.6911L26.6146 32.0298L26.3855 32.0695L25.927 32.1892L25.6596 32.2291H25.5452L25.4303 32.2689L24.972 32.3088L24.4753 32.3886H24.2462L23.9789 32.4283L23.4824 32.4682H23.3677H23.253H22.9857H22.871H22.7566L22.489 32.5081H22.2216H22.1071H21.9925H21.4576L20.9228 32.4682H20.3882L19.8533 32.4283L19.5859 32.3886H19.4714H19.3185L19.1659 32.3487H19.051L18.7838 32.3088L18.2107 32.2291L17.6378 32.1892L17.3703 32.1094L17.103 32.0695L17.1413 32.2291L17.1795 32.3088L17.2177 32.3886L17.2939 32.5081L17.4084 32.6276L17.5233 32.7473L17.6759 32.827L17.7904 32.9068L17.9816 32.9467L18.5927 33.1061L18.9365 33.1858L19.242 33.2656L19.8916 33.3454L20.5408 33.425L21.1522 33.5048H21.4576H21.8014H22.4128H23.0621L23.6732 33.4649L24.3227 33.3851L24.9338 33.2656L25.2393 33.2256L25.5452 33.146L25.8506 33.0662L26.1561 32.9866L26.8056 32.7872L27.4167 32.5879L28.028 32.3487L28.2573 32.2689L28.4482 32.1892L28.9065 31.9899L29.0977 31.8702L29.2885 31.7905L29.4031 31.7107L29.5179 31.671L29.7088 31.5513L29.8998 31.4717L30.0143 31.3919L30.1289 31.352L30.5109 31.1127L30.8929 30.8736L31.2749 30.5945L31.6187 30.3553L32.0007 30.1162L32.3446 29.8769L32.7266 29.6776L33.4906 29.239L33.8727 29.0397L34.2545 28.8404L34.6365 28.6412L35.0184 28.4816L35.8206 28.1228L36.2409 27.9634L36.6227 27.8039L37.0431 27.6844L37.5016 27.5248L38.3418 27.2458L39.2204 27.0066L39.6406 26.9269L40.0989 26.8072L40.5574 26.7276L41.0157 26.6478L41.9325 26.4883L42.8875 26.3289L43.3459 26.289L43.8426 26.2491L44.8357 26.1695Z" fill="#00247D"/>
<path fill-rule="evenodd" clip-rule="evenodd" d="M59.4275 46.979L59.4657 47.0987V47.1386V47.1784V47.2183H59.4275V47.2582V48.1352L59.4657 48.0954H59.5422L59.6185 48.0555L59.695 48.0156L59.7713 47.9757H59.8097H59.8478L59.886 47.9358L59.9623 47.8961L60.077 47.8163L60.1152 47.7764L60.1533 47.7365L60.1917 47.6568L60.2298 47.617L60.268 47.577L60.3062 47.5373L60.3443 47.4575V47.4176L60.3825 47.3777L60.4208 47.2981V47.2582V47.1784V47.1386V47.0987V47.0588V46.9393V46.8994V46.8595V46.8196L60.6119 47.0189L60.6881 47.0987L60.7263 47.1784L60.7645 47.2183L60.8028 47.2582L60.841 47.338L60.9173 47.4575L60.9555 47.5373V47.577L60.9939 47.617V47.6568L61.032 47.7365V47.7764V47.8562V47.9757V48.0156L60.9939 48.0555V48.0954L60.9555 48.1352V48.1751L60.8791 48.2549L60.8028 48.2948L60.7645 48.3345L60.6881 48.3744L60.65 48.4143L60.4971 48.4939L60.3062 48.5737H60.2298L60.1152 48.6137L59.9242 48.6535L59.7332 48.6933H59.6185H59.5422L59.4275 48.6535V48.8529L60.0005 48.9724L60.7263 49.1718L61.4521 49.3711V49.4906L61.4903 49.4508L61.5668 49.3711V49.3312H61.6049L61.6431 49.2514L61.6813 49.1718L61.7196 49.092L61.7578 49.0123V48.9724V48.8926V48.8529V48.813V48.7731L61.7196 48.6933V48.6535V48.6137L61.6813 48.5339L61.6431 48.4542H61.6813H61.7196H61.7578L61.796 48.4143H61.8341L62.2161 48.1751L62.4071 48.0156L62.5983 47.8961L62.7509 47.7365L62.8274 47.6568L62.9037 47.617L62.9419 47.577L63.0947 47.4176L63.2857 47.2582L63.4385 47.0987L63.5912 46.9393L63.7442 46.7399L63.935 46.5805L64.0879 46.3812L64.126 46.3014L64.2407 46.1818L64.3553 45.9825L64.5463 45.7832L64.6608 45.5838L64.699 45.5439L64.7373 45.4643L64.8137 45.3845L65.081 44.9459L65.1957 44.7068L65.3485 44.4676L65.4631 44.2283L65.5013 44.1088L65.5776 43.9891L65.6923 43.75L65.7688 43.5904L65.8068 43.4709L65.9215 43.2316L66.0361 42.9527L66.1506 42.6735L66.2653 42.3946L66.3798 42.1154L66.4181 41.9959V41.9161L66.4563 41.8364H66.3798L66.2653 41.7965L66.1506 41.7566L66.0361 41.677L65.7688 41.5972L65.6158 41.5174L65.4631 41.4378L65.1575 41.3181L64.8137 41.1985L64.6227 41.1189L64.4317 41.0391L64.2407 40.9593L64.0497 40.8796L63.9733 40.8397H63.935L63.8205 40.7998L63.6295 40.7202V40.6404L63.5912 40.6005V40.5606H63.5532L63.4385 40.4411L63.3239 40.3215L63.0947 40.1222L63.0184 40.0025L62.9419 39.8829L62.8654 39.7634L62.8274 39.6836L62.7509 39.5242V39.4046L62.7127 39.2849V39.1654V39.0457V38.9261V38.7667L62.7509 38.6472V38.5275L62.8654 38.6073L63.0184 38.6472L63.2475 38.7667L63.4767 38.9261L63.7059 39.0457L63.8969 39.2053L64.0115 39.2849L64.126 39.4046L64.317 39.604L64.508 39.8031H64.7373H64.9283H65.1193L65.3103 39.843L65.5013 39.8829L65.6923 39.9228L65.8451 40.0025L65.9978 40.0424L66.1506 40.1222L66.2653 40.2018L66.3798 40.3215L66.4944 40.4411L66.6091 40.5606L66.6854 40.6803L66.7619 40.8397L66.8382 40.9992L66.9146 41.1586L66.8764 41.0391V40.9593L66.8001 40.6803L66.6854 40.4012L66.5326 39.8829L66.3416 39.3647L66.2271 39.1255L66.1506 38.8863L65.9215 38.4079L65.6541 37.9294L65.4248 37.491L65.2721 37.2917L65.1575 37.0525L65.0428 37.0923H64.9667L64.7373 37.1323L64.5463 37.2119L64.3553 37.2518H64.1643L63.9733 37.2917H63.7824H63.5912H63.4385L63.2475 37.2518L63.0564 37.2119L62.9037 37.172L62.7509 37.1323L62.5599 37.0525L62.4071 37.0125L62.2543 36.9329L62.1016 36.8531V36.7733L62.0633 36.7336V36.6937V36.6538L61.8341 36.4145L61.6813 36.1754L61.4903 35.9362L61.3376 35.6572L61.1466 35.4181L61.032 35.139L60.8791 34.86L60.7263 34.541L60.6119 34.2221L60.4971 33.9032L60.3825 33.5842L60.268 33.2254L60.1917 32.8666L60.077 32.5079L60.0005 32.1491L59.9242 31.7504L59.7332 31.4714L59.504 31.2721L59.4275 31.1524V43.4709L60.1152 43.8297L60.9173 44.2283L61.6813 44.6669L62.4836 45.1053L63.2475 45.5439L63.4002 45.6237L63.5532 45.7433L63.5912 45.7832L63.6295 45.8628L63.7059 45.9426V46.0621V46.1818V46.2216L63.6677 46.3014L63.6295 46.4209L63.5912 46.5007L63.5532 46.5805L63.5149 46.6601L63.4767 46.7399L63.4002 46.8595L63.3622 46.8994L63.3239 46.9393L63.2857 46.979L63.2475 47.0189H63.2094V47.0588H63.1329L63.0947 47.0189L63.0184 46.9393V46.8994L62.9803 46.8595L62.9419 46.7399L62.9037 46.6203L62.8654 46.4209L62.8274 46.2216L62.7891 46.102V45.9825L62.7509 45.7433V45.504L62.4836 45.3446L62.2161 45.225L61.9487 45.1053L61.7196 44.9858L61.1848 44.7865L60.9173 44.7068L60.65 44.627L60.3443 44.5472L60.077 44.5075L59.5422 44.4277L59.4275 44.3878V46.979ZM54.4617 35.6971V35.6175L54.2707 35.7768L54.1561 35.9362L54.0032 36.1754L53.8887 36.3748L53.7741 36.5741L53.6594 36.8132L53.5831 37.0125L53.5066 37.2518L53.4305 37.491L53.3922 37.7301L53.3539 38.0092V38.2485L53.3156 38.5275V38.7667V39.0457L53.3539 39.3248V39.3647V39.4046V39.4444H53.3156V39.4843L53.1246 39.5641L52.9336 39.6836L52.5899 39.8829L52.2843 40.1222L51.9788 40.4012L51.673 40.6803L51.5585 40.7998L51.4059 40.9593L51.1765 41.2783L50.9473 41.6371V41.7167L50.9855 41.8364L51.0239 42.0755L51.1 42.2749L51.1765 42.4742L51.253 42.6735L51.2911 42.7932L51.3675 42.9527L51.444 43.0722L51.5585 43.152L51.5967 43.2316L51.7113 43.2715L51.7878 43.3114L51.8641 43.3513H51.9788L52.0551 43.3114L52.1696 43.2715L52.2843 43.2316L52.208 43.152L52.1696 43.1121V43.0323V42.9926V42.9527V42.9128V42.8729L52.6663 43.2316L53.1629 43.6303L53.6976 43.9891L54.2707 44.3479L54.8818 44.7466L55.493 45.1452L56.1806 45.5439L56.8683 45.9426H56.9446H57.0591L57.2501 45.9027L57.3266 45.8628H57.4411H57.6321H57.8233H57.9759L58.1669 45.9027L58.3199 45.9426L58.4726 46.0224L58.6254 46.102L58.7399 46.1818L58.8927 46.3014L58.9692 46.3812L59.0076 46.4209L59.122 46.5805L59.2747 46.7399L59.3512 46.8994L59.4275 46.979V44.3878L58.9692 44.3479H58.3962H58.1669L57.8996 44.2283L57.6704 44.1485L57.4032 43.9891L57.1738 43.8696L56.9828 43.75L56.7536 43.5904L56.5626 43.431L56.3716 43.2715L56.1806 43.0722L55.9896 42.9128L55.8369 42.7134L55.684 42.5141L55.5312 42.2749L55.3785 42.0755L55.2638 41.8364L55.1492 41.5972L55.111 41.5174V41.3979L55.1875 41.0391L55.302 40.7202L55.4548 40.3614L55.5695 40.0424L55.684 39.7235L55.8369 39.4046L55.9896 39.1255L56.1425 38.8066L56.2953 38.5275L56.448 38.2485L56.639 37.9694L56.7918 37.6904L56.9828 37.4112L57.1738 37.172L57.3648 36.893L57.5558 36.6538H57.5941L57.6321 36.6139H57.6704H57.7468L57.9759 37.0525L58.1288 37.2518L58.2434 37.491L58.3199 37.7301L58.4344 37.9694L58.5489 38.2485L58.6254 38.4876L58.7017 38.7268L58.8164 39.0059L58.8927 39.2849L58.9309 39.5641L59.0456 40.1222L59.0837 40.4012L59.1602 40.6803V40.7202H59.1984H59.2747L59.0076 40.9195L58.7399 41.1586L58.6254 41.2783L58.5489 41.3181L58.4726 41.358L58.3579 41.4777L58.2053 41.5573L57.9378 41.7566L57.7851 41.8364L57.6321 41.9161L57.3648 42.1154L57.2121 42.1952L57.0591 42.2749H56.9828L56.9446 42.3148H56.8683L57.6704 42.6735L58.5107 43.0323L59.313 43.431L59.4275 43.4709V31.1524L59.313 31.0328L59.1602 30.8335L59.0837 30.7537L59.0076 30.6741L58.8546 30.5146L58.7017 30.355L58.5873 30.2754V30.3153V30.355V30.4348V30.4747L58.3962 30.953L58.2053 31.4714L58.0524 31.9896L57.9378 32.5478L57.7851 33.1059L57.7086 33.664L57.5941 34.2221L57.5176 34.8201H57.4032V34.86H57.3648L57.3266 34.8998L57.2884 34.9796L57.2501 35.0594L57.0974 35.2587L56.9828 35.4579L56.8683 35.6572L56.7154 35.8167L56.601 36.016L56.448 36.1754L56.3333 36.3748L56.1806 36.5741L56.0278 36.7336L55.7222 37.0923L55.4168 37.4112L55.2638 37.5707L55.111 37.7301H54.9966H54.8818L54.7672 37.6904L54.6909 37.6505L54.5762 37.5707L54.4999 37.491L54.4234 37.4112L54.3852 37.3316L54.347 37.2119L54.3089 37.0923L54.2707 36.9727V36.8132V36.6538V36.4943L54.3089 36.295L54.347 36.1356L54.3852 35.8963L54.4617 35.6971ZM59.4275 47.2582L59.2365 47.3777L59.122 47.4176L59.0076 47.4575L58.8927 47.5373L58.8164 47.577L58.5873 47.6568L58.3579 47.7365L58.1288 47.8163L57.8996 47.8562L57.6704 47.9358L57.4032 47.9757L57.1738 48.0156H56.9064L56.639 48.0555H56.3716H56.1043H55.8369L55.684 48.0156H55.5312L56.2953 48.1751L57.0591 48.2948L57.7851 48.4542L58.5489 48.6535L59.2747 48.813L59.4275 48.8529V48.6535L59.313 48.6137L59.1984 48.5737L59.1602 48.5339L59.122 48.4939L59.0837 48.3744L59.0456 48.2549L59.122 48.215H59.1602L59.2365 48.1751H59.313L59.3512 48.1352H59.3896H59.4275V47.2582Z" fill="#00247D"/>
<path fill-rule="evenodd" clip-rule="evenodd" d="M49.9544 35.6572L49.9926 35.6971H50.0307H50.0689V37.9693V38.2085L49.8779 38.6072L49.6869 39.0059L49.6106 39.0855L49.5724 39.1653L49.4959 39.3647L49.4198 39.4443L49.3814 39.564L49.2668 39.7634L49.1522 39.9228L49.1139 40.0024L49.0758 40.1221L48.9611 40.2816L48.8848 40.4011L48.8466 40.4809L48.7701 40.5606L48.7319 40.6803L48.6175 40.8397L48.3881 41.1985L48.35 41.2783V41.3978H48.3118V41.4377V41.4776V41.5174L48.2737 41.5573L48.1971 41.6371L48.0826 41.7167L48.0061 41.7965L47.8916 41.8364L47.8535 42.0357V42.2351V42.3945V42.5939V42.7533V42.9127L47.8916 43.0323L47.9298 43.1919L47.968 43.3114L48.0061 43.4708L48.0443 43.5904L48.0826 43.7101L48.159 43.7897L48.2355 43.9094L48.3118 43.9891L48.3881 44.0689L48.4264 44.1088H48.4646H48.5028L48.5411 44.1485V44.1884L48.5791 44.2283V44.2682L48.6175 44.3081L48.9611 44.5871L49.3049 44.8662L49.6869 45.1452L50.0689 45.3844L50.451 45.6634L50.833 45.9027L51.2532 46.1419L51.6733 46.3412L52.0553 46.5406L52.5138 46.7399L52.9721 46.9393L53.4307 47.1386L53.8889 47.298L54.3472 47.4575L54.8057 47.6169L55.3405 47.7764L55.3022 47.7365V47.6967V47.6568H55.264L51.9025 45.7432L48.5411 43.9094V43.6702V41.3978H48.5791H48.6175H48.6557V41.3579H48.6938L49.6106 39.7634L50.5274 38.2085V38.089L50.4892 37.9693L50.4127 37.3316L50.3364 36.6936L50.2982 36.0557V35.4978V35.4579L50.2601 35.4181V35.2984L49.8018 34.5809L49.3814 33.9032L48.9229 33.1855L48.4646 32.5078L48.0061 31.8302L47.5478 31.1523L47.0514 30.4747L46.5928 29.7969L46.9748 30.5543L47.3568 31.3118L47.777 32.0692L48.1971 32.8267L48.6175 33.5444L49.0378 34.262L49.4959 34.9795L49.9544 35.6572Z" fill="#00247D"/>
<path fill-rule="evenodd" clip-rule="evenodd" d="M71.4605 29.8766L71.346 30.0361L71.2313 30.1955L71.1169 30.3549L71.0404 30.5543L70.9641 30.674L70.9258 30.8334L70.8493 30.9929L70.8112 31.1922L70.7347 31.6308L70.6583 32.1091V32.3084L70.6202 32.428L70.582 32.8665L70.5437 33.3051L70.4673 33.7038L70.391 34.1025L70.2764 34.5012L70.2383 34.5808V34.6606L70.1619 34.8599L70.0854 35.2187L70.0089 35.6174L69.9707 35.8166L69.9325 35.9361L69.8944 36.0956L69.8562 36.2151V36.3348L69.7797 36.6138L69.7415 36.6936L69.7034 36.7732L69.6269 36.853L69.5887 36.9328L69.5506 36.9726L69.5126 37.0125L69.3979 37.0923L69.3598 37.1322H69.3214L69.2832 37.1719H69.2449H69.2067H69.1686H69.1304H69.0539H69.0157H68.9012L68.8629 37.1322H68.7866L68.634 37.0524L68.4428 36.9328L68.2899 36.853L68.1371 36.7732L67.7551 36.4942L67.4113 36.255L66.6855 35.6571L66.8383 35.976L66.9914 36.255L67.1442 36.574L67.335 36.853L67.6024 37.2118L67.87 37.5706L68.1754 37.9294L68.3281 38.089L68.4809 38.2484L68.6721 38.4078L68.8629 38.5274L69.0157 38.6868L69.2449 38.8464L69.6269 39.0855L70.0472 39.3247L70.2001 39.0456L70.3147 38.7267L70.4673 38.4078L70.582 38.089L70.6965 37.73L70.773 37.4111L70.8875 37.0524L70.9641 36.7335V36.574L71.0022 36.5341V36.4543L71.0787 36.1754V36.0159L71.1169 35.8962L71.1551 35.7369V35.6571L71.1931 35.2187L71.2695 34.82V34.4613L71.3078 34.0626V33.8233V33.5841V33.1457V32.9862V32.8665L71.2695 32.747V32.6672V32.5876V32.5477V32.5876V32.6273L71.3078 32.7071V32.7869V32.5078V32.2685V32.0692V31.8301L71.346 31.6308V31.4713V31.272L71.3841 31.1124L71.4223 30.8334L71.4605 30.5942L71.537 30.3549L71.6133 30.1558L71.8045 29.7571L72.0335 29.3584L71.7279 29.5975L71.5751 29.7172L71.4605 29.8766Z" fill="#00247D"/>
<path fill-rule="evenodd" clip-rule="evenodd" d="M18.7457 27.8444L18.1725 26.1694L17.9436 26.3289L17.7142 26.5283L17.5234 26.7278L17.3322 26.9669L17.1414 27.1663L16.9884 27.4057L16.8358 27.6051L16.7211 27.8444L16.5682 28.0836L16.4536 28.3628L16.3773 28.6022L16.301 28.8813L16.2244 29.1605L16.1862 29.4795L16.1479 29.7588L16.1099 30.0778V30.1576V30.2373V30.3968L16.1479 30.5563L16.1862 30.7159L16.2626 30.8754L16.3391 30.995L16.4536 31.1545L16.5682 31.2743L16.7211 31.2343V30.3968V30.1576L16.7593 29.8783L16.8358 29.639L16.912 29.4396L16.9884 29.2801L17.0647 29.1605L17.1796 29.001L17.294 28.9212L17.5234 29.1206L17.7525 29.3599L18.0199 29.5593L18.249 29.7588L18.5163 29.9582L18.7457 30.1576L19.013 30.3171L19.2803 30.4766L19.5097 30.5962L19.7769 30.7557L20.0444 30.8754L20.3118 30.9551L20.5791 31.0748L20.8465 31.1545L21.1141 31.2343L21.3814 31.314L21.6487 31.3539L21.9163 31.3938L22.1835 31.4337H22.4891L22.7567 31.4737H23.0238L23.3295 31.4337H23.597L23.9027 31.3539L24.1699 31.314L24.4754 31.2743L24.7813 31.1944L25.0484 31.1146L25.3541 31.0349L25.6597 30.9153L25.9654 30.7956L27.264 30.2772L27.8754 29.9582L28.1808 29.8384L28.5246 29.6789L28.8302 29.5593L29.136 29.3998L29.7852 29.1206L30.3964 28.8016L31.0459 28.5224L30.7021 28.6421H30.6255L30.5492 28.6818L30.4347 28.7617L29.8234 29.001L29.1742 29.2004L28.8684 29.2801L28.5628 29.3998L28.4101 29.4396H28.3338L28.2574 29.4795L27.9517 29.5593L27.3405 29.7588H27.1877L27.0348 29.7985L26.6912 29.8783L26.5382 29.9182L26.3856 29.9582L26.0799 30.0378L25.7742 30.0778L25.5834 30.1177H25.5071L25.4304 30.1576L24.8193 30.2373L24.1699 30.3171L23.8645 30.3568L23.5207 30.3968L23.2148 30.4367L22.8711 30.4766L22.2217 30.5165H21.9163L21.5724 30.5563H21.4195H21.2667H20.9229H20.8085H20.6938L20.5791 30.5165L20.4646 30.4766L20.3501 30.4367L20.2738 30.3968L20.1589 30.3171L20.0826 30.2772L19.9681 30.1973L19.8917 30.1177L19.8151 29.9979L19.7006 29.9182L19.6243 29.7985L19.548 29.6789L19.4715 29.5194L19.4331 29.3998L19.2421 29.0408L19.0895 28.6421L18.8983 28.2433L18.7457 27.8444Z" fill="#00247D"/>
<path fill-rule="evenodd" clip-rule="evenodd" d="M35.9736 25.6919L35.9355 25.8116L38.9913 24.0967L38.5712 24.2163L38.1892 24.3758L37.769 24.5353L37.4252 24.7347L37.0433 24.9341L36.6613 25.1734L36.3176 25.4128L35.9736 25.6919Z" fill="#00247D"/>
<path fill-rule="evenodd" clip-rule="evenodd" d="M68.6339 44.3475V44.3078V44.2679V44.228L68.5191 44.1881H68.4428L68.4045 44.1482L68.3663 44.1084H68.3281L68.2518 44.0286L68.2135 43.949L68.1753 43.8293L68.1371 43.7496V43.6698V43.6299V43.5104L68.1753 43.4306V43.351V43.2712L68.2135 43.2313L68.2518 43.0718L68.3281 42.8725L68.4045 42.713L68.5191 42.5137L68.5957 42.3942L68.6339 42.3144V42.1948L68.0988 42.9124L67.5641 43.6299L67.2585 43.949L67.1822 44.0286L67.1059 44.1482L66.9913 44.3078L66.4182 45.0253L65.8452 45.703L65.2339 46.4205L64.6609 47.0983L64.0498 47.776V47.8957L64.3554 47.6964L64.6609 47.497L64.9667 47.2977L65.1194 47.178L65.1958 47.1382L65.2339 47.0983H65.2721L65.3104 47.0584L65.3486 47.0185L65.4249 46.9787L65.5396 46.8591L65.8452 46.6598L66.4182 46.2212L66.7237 46.022L66.9913 45.7828L67.2967 45.5435L67.5641 45.3043L67.8317 45.0652L67.9843 44.9455L68.0988 44.826L68.3663 44.5867L68.6339 44.3475Z" fill="#00247D"/>
<path fill-rule="evenodd" clip-rule="evenodd" d="M71.8429 59.1792L70.8877 59.0196L69.9327 58.8602L68.9396 58.7005L67.9465 58.5809L67.1444 58.4613L66.342 58.3416L65.5017 58.222L64.6994 58.1422L63.8591 58.0226L63.0187 57.9428L62.14 57.8631L61.2997 57.7832L60.3829 57.7036L59.5043 57.5838L58.6258 57.5041L57.709 57.4642L56.7922 57.3844L55.8754 57.3047L54.9204 57.2648L53.9655 57.185L53.0106 57.1053L52.0172 57.0654L51.0625 57.0255L50.0691 56.9458L49.0379 56.9059L48.0445 56.866L47.0133 56.8261L45.9818 56.7863L44.9503 56.7464L43.8809 56.7065L42.8112 56.6666H41.7416L40.6339 56.6267L39.5642 56.5869H38.4182H37.3105L37.8071 56.7065L38.2656 56.866L38.7241 56.9857L39.1822 57.1452L39.6407 57.2648L40.0608 57.3844L40.481 57.5041L40.9395 57.6237L41.1304 57.7036L41.3596 57.7435L41.7798 57.8631L42.1618 57.9827L42.3529 58.0226L42.4674 58.0625H42.5819L42.6585 58.1024L42.7729 58.1422L42.9639 58.1821L43.346 58.2619L43.728 58.3815L43.919 58.4214L44.11 58.4613L44.492 58.541L44.8358 58.6607L45.1795 58.7005L45.5233 58.8202L45.8672 58.8602L46.211 58.9398L46.5166 59.0196L46.8604 59.0993L47.1659 59.1392L47.3187 59.1792H47.3951L47.4716 59.2191L47.7772 59.259L48.0445 59.2987L48.1972 59.3386L48.3502 59.3786H48.4647L48.6176 59.4185L48.885 59.4582L49.1523 59.4982L50.5656 59.6577L51.9791 59.8173L52.7049 59.897L53.3926 59.9369L54.8058 60.0565L56.2193 60.0964L57.6708 60.1363L58.3583 60.1762H59.0841H60.4974L61.9109 60.1363L62.5986 60.0964H63.3243L64.7376 59.9768L66.151 59.897L67.5643 59.7375L68.2901 59.6577L69.0159 59.578L70.4294 59.3786L71.8429 59.1792Z" fill="#00247D"/>
<path d="M130 33.2603H129.261L129.179 31.609L128.936 29.9789L128.533 28.3711L127.977 26.7868L127.269 25.2278L126.414 23.6959L125.414 22.1931L124.273 20.722L122.995 19.2849L121.584 17.8839L120.043 16.5214L118.377 15.2L116.589 13.922L114.684 12.6895L112.666 11.5049L110.539 10.3706L108.307 9.28845L105.973 8.26074L103.543 7.28961L101.02 6.37754L98.4086 5.52626L95.7124 4.73795L92.9357 4.01493L90.0826 3.35909L87.1573 2.77261L84.164 2.25766L81.1064 1.81628L77.9888 1.45049L74.8153 1.16215L71.5899 0.953932L68.3168 0.827216L65 0.784668V0.0131836L68.335 0.0560438L71.6263 0.183384L74.87 0.392853L78.062 0.682738L81.1981 1.05072L84.2745 1.49491L87.287 2.01328L90.2317 2.6035L93.1045 3.26402L95.9012 3.99233L98.6183 4.78657L101.251 5.64471L103.796 6.56488L106.249 7.54506L108.606 8.58306L110.862 9.677L113.015 10.825L115.06 12.0253L116.992 13.2756L118.809 14.5741L120.505 15.9195L122.077 17.3094L123.52 18.7422L124.83 20.2161L126.004 21.7296L127.036 23.2807L127.923 24.8675L128.658 26.4882L129.238 28.1404L129.659 29.8218L129.914 31.5295L130 33.2603ZM65 66.5073V65.7359L68.3168 65.6933L71.5899 65.5666L74.8153 65.3584L77.9888 65.0701L81.1064 64.7043L84.164 64.2629L87.1573 63.7479L90.0826 63.1614L92.9357 62.5056L95.7124 61.7826L98.4086 60.9943L101.02 60.143L103.543 59.2309L105.973 58.2598L108.307 57.2321L110.539 56.15L112.666 55.0157L114.684 53.831L116.589 52.5985L118.377 51.3205L120.043 49.9991L121.584 48.6367L122.995 47.2357L124.273 45.7985L125.414 44.3274L126.414 42.8246L127.269 41.2927L127.977 39.7337L128.533 38.1495L128.936 36.5416L129.179 34.9116L129.261 33.2603H130L129.914 34.991L129.659 36.6987L129.238 38.3801L128.658 40.0323L127.923 41.6531L127.036 43.2398L126.004 44.7909L124.83 46.3044L123.52 47.7784L122.077 49.2111L120.505 50.6011L118.809 51.9464L116.992 53.245L115.06 54.4953L113.015 55.6955L110.862 56.8435L108.606 57.9375L106.249 58.9755L103.796 59.9557L101.251 60.8758L98.6183 61.734L95.9012 62.5282L93.1045 63.2565L90.2317 63.917L87.287 64.5073L84.2745 65.0256L81.1981 65.4698L78.062 65.8378L74.87 66.1277L71.6263 66.3372L68.335 66.4645L65 66.5073ZM0 33.2603H0.738632L0.820769 34.9116L1.0645 36.5416L1.46652 38.1495L2.02281 39.7337L2.73067 41.2927L3.58639 42.8246L4.58636 44.3274L5.72717 45.7985L7.00522 47.2357L8.41647 48.6367L9.95721 49.9991L11.6232 51.3205L13.4108 52.5985L15.3155 53.831L17.3337 55.0157L19.4609 56.15L21.6933 57.2321L24.0266 58.2598L26.4568 59.2309L28.9798 60.143L31.5914 60.9943L34.2876 61.7826L37.0643 62.5056L39.9174 63.1614L42.8427 63.7479L45.836 64.2629L48.8936 64.7043L52.0112 65.0701L55.1847 65.3584L58.4101 65.5666L61.6832 65.6933L65 65.7359V66.5073L61.665 66.4645L58.3737 66.3372L55.13 66.1277L51.938 65.8378L48.8019 65.4698L45.7255 65.0256L42.713 64.5073L39.7683 63.917L36.8955 63.2565L34.0988 62.5282L31.3817 61.734L28.7489 60.8758L26.2041 59.9557L23.7512 58.9755L21.3944 57.9375L19.1374 56.8435L16.9848 55.6955L14.9401 54.4953L13.0076 53.245L11.1914 51.9464L9.49515 50.6011L7.92336 49.2111L6.48014 47.7784L5.16954 46.3044L3.99587 44.7909L2.96364 43.2398L2.07746 41.6531L1.34182 40.0323L0.761631 38.3801L0.341388 36.6987L0.0860233 34.991L0 33.2603ZM65 0.0131836V0.784668L61.6832 0.827216L58.4101 0.953932L55.1847 1.16215L52.0112 1.45049L48.8936 1.81628L45.836 2.25766L42.8427 2.77261L39.9174 3.35909L37.0643 4.01493L34.2876 4.73795L31.5914 5.52626L28.9798 6.37754L26.4568 7.28961L24.0266 8.26074L21.6933 9.28845L19.4609 10.3706L17.3337 11.5049L15.3155 12.6895L13.4108 13.922L11.6232 15.2L9.95721 16.5214L8.41647 17.8839L7.00522 19.2849L5.72717 20.722L4.58636 22.1931L3.58639 23.6959L2.73067 25.2278L2.02281 26.7868L1.46652 28.3711L1.0645 29.9789L0.820769 31.609L0.738632 33.2603H0L0.0860233 31.5295L0.341388 29.8218L0.761631 28.1404L1.34182 26.4882L2.07746 24.8675L2.96364 23.2807L3.99587 21.7296L5.16954 20.2161L6.48014 18.7422L7.92336 17.3094L9.49515 15.9195L11.1914 14.5741L13.0076 13.2756L14.9401 12.0253L16.9848 10.825L19.1374 9.677L21.3944 8.58306L23.7512 7.54506L26.2041 6.56488L28.7489 5.64471L31.3817 4.78657L34.0988 3.99233L36.8955 3.26402L39.7683 2.6035L42.713 2.01328L45.7255 1.49491L48.8019 1.05072L51.938 0.682738L55.13 0.392853L58.3737 0.183384L61.665 0.0560438L65 0.0131836Z" fill="#00247D"/>
<path d="M411.287 19.8584H408.802C408.333 19.8584 407.928 20.1839 407.826 20.6415L403.27 41.1415C403.132 41.766 403.607 42.3584 404.247 42.3584H418.605C419.115 42.3584 419.543 41.9753 419.599 41.4688L419.877 38.9688C419.942 38.3765 419.479 37.8584 418.883 37.8584H410.213C409.584 37.8584 409.112 37.2848 409.232 36.6675L412.268 21.0493C412.388 20.432 411.916 19.8584 411.287 19.8584Z" fill="#00247D"/>
<path d="M357.68 42.3584H354.747C354.107 42.3584 353.632 41.766 353.77 41.1415L358.326 20.6415C358.428 20.1839 358.833 19.8584 359.302 19.8584H361.78C362.411 19.8584 362.885 20.4357 362.761 21.0545L358.661 41.5545C358.567 42.0219 358.157 42.3584 357.68 42.3584Z" fill="#00247D"/>
<path d="M370.287 24.3584H366.105C365.513 24.3584 365.051 23.8476 365.11 23.2589L365.41 20.2589C365.461 19.7477 365.891 19.3584 366.405 19.3584H382.895C383.487 19.3584 383.949 19.8692 383.89 20.4579L383.59 23.4579C383.539 23.9691 383.109 24.3584 382.595 24.3584H377.302C376.833 24.3584 376.428 24.6839 376.326 25.1415L372.674 41.5753C372.572 42.0329 372.167 42.3584 371.698 42.3584H369.213C368.584 42.3584 368.112 41.7848 368.232 41.1675L371.268 25.5493C371.388 24.932 370.916 24.3584 370.287 24.3584Z" fill="#00247D"/>
<path d="M306.856 27.4008L306.141 27.189C305.645 27.0421 305.203 26.7515 304.871 26.354L304.434 25.8291C303.868 25.15 303.127 24.6375 302.292 24.3464L302.221 24.3214C301.823 24.1827 301.41 24.0934 300.99 24.0553L299.764 23.9441C299.344 23.9061 298.922 23.9196 298.505 23.9845L298.417 23.9982C297.552 24.133 296.74 24.5002 296.068 25.0607C295.669 25.3931 295.326 25.7876 295.053 26.229L294.625 26.9214C294.014 27.9092 293.582 28.9974 293.35 30.1356L293.032 31.6969C292.877 32.4574 292.889 33.2425 293.067 33.998L293.139 34.3065C293.386 35.3537 293.999 36.2781 294.868 36.9127C295.527 37.3945 296.306 37.6879 297.119 37.7617L297.273 37.7756C298.61 37.8969 299.941 37.4819 300.972 36.622L301.534 36.1539L302.811 35.0891C303.043 34.8954 303.313 34.7509 303.603 34.6643L303.963 34.5568C304.946 34.2633 305.981 34.8225 306.275 35.8059C306.427 36.3145 306.354 36.8637 306.074 37.3151L305.328 38.5209C304.946 39.1381 304.435 39.6651 303.83 40.0654L303.409 40.3435C302.532 40.9235 301.54 41.3075 300.502 41.4694L299.474 41.6295C298.498 41.7815 297.507 41.8133 296.523 41.7241L294.597 41.5494C293.563 41.4556 292.565 41.1225 291.682 40.5763C290.693 39.9641 289.88 39.1042 289.325 38.0816L289.285 38.0073C288.738 37.0002 288.446 35.8744 288.435 34.7285L288.419 32.8881C288.41 31.931 288.496 30.9755 288.677 30.0356L288.887 28.9444C289.195 27.3424 289.837 25.8233 290.771 24.4858L290.93 24.2587C291.416 23.5623 291.993 22.9339 292.646 22.39C293.785 21.44 295.13 20.7684 296.574 20.4283L297.456 20.2205C298.476 19.9804 299.527 19.9062 300.57 20.0008L300.987 20.0386L302.463 20.1725C303.778 20.2917 305.036 20.7663 306.103 21.5453L306.185 21.6053C306.612 21.9169 306.998 22.2796 307.336 22.6853L307.702 23.1233C308.021 23.5063 308.259 23.9501 308.402 24.4279L308.729 25.5239C308.871 25.9996 308.77 26.5148 308.458 26.9013C308.075 27.377 307.442 27.5742 306.856 27.4008Z" fill="#00247D"/>
<path d="M325.159 19.3584C325.645 19.3585 326.061 19.7086 326.145 20.1875L329.797 41.1875C329.903 41.7988 329.432 42.3582 328.812 42.3584H325.5C324.948 42.3583 324.5 41.9107 324.5 41.3584V38.3584C324.5 37.8061 324.052 37.3584 323.5 37.3584H316.118C315.739 37.3584 315.393 37.5724 315.224 37.9111L313.276 41.8057C313.107 42.1444 312.761 42.3584 312.382 42.3584H309.714C308.948 42.3583 308.467 41.5328 308.844 40.8662L320.713 19.8662C320.89 19.5524 321.224 19.3584 321.584 19.3584H325.159ZM322.391 25.3584C322.15 25.3585 321.93 25.491 321.816 25.7031L318.784 31.3877C318.429 32.0538 318.912 32.8584 319.667 32.8584H322.432C323.01 32.8582 323.467 32.369 323.429 31.792L323.041 25.9668C323.018 25.6247 322.734 25.3584 322.391 25.3584Z" fill="#00247D"/>
<path d="M395.159 19.3584C395.645 19.3585 396.061 19.7086 396.145 20.1875L399.797 41.1875C399.903 41.7988 399.432 42.3582 398.812 42.3584H395.5C394.948 42.3583 394.5 41.9107 394.5 41.3584V38.3584C394.5 37.8061 394.052 37.3584 393.5 37.3584H386.118C385.739 37.3584 385.393 37.5724 385.224 37.9111L383.276 41.8057C383.107 42.1444 382.761 42.3584 382.382 42.3584H379.714C378.948 42.3583 378.467 41.5328 378.844 40.8662L390.713 19.8662C390.89 19.5524 391.224 19.3584 391.584 19.3584H395.159ZM392.391 25.3584C392.15 25.3585 391.93 25.491 391.816 25.7031L388.784 31.3877C388.429 32.0538 388.912 32.8584 389.667 32.8584H392.432C393.01 32.8582 393.467 32.369 393.429 31.792L393.041 25.9668C393.018 25.6247 392.734 25.3584 392.391 25.3584Z" fill="#00247D"/>
<path d="M158.446 19.3584C158.932 19.3585 159.348 19.7086 159.432 20.1875L163.084 41.1875C163.19 41.7988 162.719 42.3582 162.099 42.3584H158.787C158.235 42.3583 157.787 41.9107 157.787 41.3584V38.3584C157.787 37.8061 157.339 37.3584 156.787 37.3584H149.405C149.027 37.3584 148.68 37.5724 148.511 37.9111L146.564 41.8057C146.394 42.1444 146.048 42.3584 145.669 42.3584H143.001C142.235 42.3583 141.754 41.5328 142.131 40.8662L154 19.8662C154.177 19.5524 154.511 19.3584 154.871 19.3584H158.446ZM155.678 25.3584C155.437 25.3585 155.217 25.491 155.104 25.7031L152.071 31.3877C151.716 32.0538 152.199 32.8584 152.954 32.8584H155.719C156.297 32.8582 156.754 32.369 156.716 31.792L156.328 25.9668C156.305 25.6247 156.021 25.3584 155.678 25.3584Z" fill="#00247D"/>
<path d="M348.175 19.8584C349.046 19.8584 349.906 20.0614 350.686 20.4512L350.788 20.502C351.26 20.7377 351.69 21.0482 352.062 21.4209L352.439 21.7979C353.119 22.477 353.5 23.398 353.5 24.3584V27.0303C353.5 27.2479 353.474 27.4656 353.421 27.6768L353.409 27.7207C353.141 28.7922 352.588 29.7707 351.807 30.5518C351.603 30.7557 351.384 30.9451 351.153 31.1182L350.193 31.8389C349.734 32.1831 349.222 32.4514 348.678 32.6328C348.228 32.7827 347.76 32.8721 347.286 32.8984L339.201 33.3477C339.084 33.3544 338.986 33.4414 338.967 33.5576L337.64 41.5225C337.559 42.0045 337.142 42.3582 336.653 42.3584H332.949C332.701 42.3582 332.5 42.1572 332.5 41.9092C332.5 41.8758 332.503 41.8421 332.511 41.8096L337.421 20.2041C337.467 20.0019 337.647 19.8585 337.854 19.8584H348.175ZM341.633 23.8584C341.556 23.8586 341.49 23.9136 341.477 23.9893L340.537 29.1553C340.518 29.2611 340.6 29.3584 340.707 29.3584H345.54C346.166 29.3583 346.778 29.1725 347.299 28.8252C347.758 28.519 348.13 28.0982 348.377 27.6045L348.613 27.1318C348.861 26.6366 348.902 26.0633 348.727 25.5381C348.58 25.0977 348.291 24.7185 347.904 24.4609L347.703 24.3271C347.245 24.0216 346.706 23.8585 346.155 23.8584H341.633Z" fill="#00247D"/>
<path d="M219.82 19.3584H216.306C215.836 19.3584 215.429 19.6863 215.329 20.146L210.764 41.146C210.628 41.7693 211.103 42.3584 211.741 42.3584H215.189C215.661 42.3584 216.07 42.0272 216.167 41.5644L217.833 33.6524C217.93 33.1896 218.339 32.8584 218.811 32.8584H224.33C224.944 32.8584 225.413 33.4074 225.317 34.0144L224.183 41.2024C224.087 41.8094 224.556 42.3584 225.17 42.3584H228.659C229.145 42.3584 229.561 42.0087 229.644 41.5297L233.296 20.5297C233.403 19.9181 232.932 19.3584 232.311 19.3584H229.347C228.858 19.3584 228.441 19.7118 228.361 20.194L227.139 27.5228C227.059 28.005 226.642 28.3584 226.153 28.3584H220.68C220.063 28.3584 219.592 27.8035 219.694 27.194L220.806 20.5228C220.908 19.9133 220.437 19.3584 219.82 19.3584Z" fill="#00247D"/>
<path d="M254.395 19.3584H239H238.841C238.355 19.3584 237.939 19.7081 237.856 20.1871L234.204 41.1871C234.097 41.7987 234.568 42.3584 235.189 42.3584H250.617C251.122 42.3584 251.547 41.9829 251.609 41.4824L251.859 39.4824C251.934 38.8856 251.469 38.3584 250.867 38.3584H240.18C239.563 38.3584 239.092 37.8035 239.194 37.194L239.861 33.194C239.941 32.7118 240.358 32.3584 240.847 32.3584H251.617C252.122 32.3584 252.547 31.9829 252.609 31.4824L252.859 29.4824C252.934 28.8856 252.469 28.3584 251.867 28.3584H242.781C242.13 28.3584 241.653 27.747 241.811 27.1159L242.311 25.1159C242.422 24.6707 242.822 24.3584 243.281 24.3584H254.095C254.609 24.3584 255.039 23.9691 255.09 23.4579L255.39 20.4579C255.449 19.8692 254.987 19.3584 254.395 19.3584Z" fill="#00247D"/>
<path d="M271.579 19.8584C272.831 19.8584 274.055 20.2292 275.097 20.9238L275.514 21.2021C276.16 21.6324 276.682 22.2232 277.029 22.917C277.339 23.536 277.5 24.2191 277.5 24.9111V26.249C277.5 27.302 277.213 28.3354 276.672 29.2383C276.229 29.9758 275.628 30.6059 274.913 31.083L273.949 31.7256C273.318 32.1464 272.645 32.5005 271.94 32.7822L271.014 33.1523C270.741 33.2618 270.626 33.5865 270.769 33.8438L274.675 40.873C275.044 41.5395 274.562 42.3584 273.8 42.3584H270.618C270.239 42.3584 269.893 42.1444 269.723 41.8057L265.776 33.9111C265.607 33.5724 265.26 33.3584 264.882 33.3584H263.26C262.81 33.3584 262.416 33.658 262.296 34.0908L260.203 41.626C260.083 42.0588 259.688 42.3584 259.239 42.3584H256.246C255.606 42.3582 255.132 41.766 255.27 41.1416L259.826 20.6406C259.928 20.1837 260.333 19.8584 260.801 19.8584H271.579ZM264.612 23.8584C264.258 23.8585 263.954 24.1121 263.89 24.4609L263.214 28.1797C263.102 28.7934 263.574 29.3584 264.198 29.3584H268.134C268.707 29.3584 269.277 29.2654 269.821 29.084L270.059 29.0049C270.351 28.9076 270.629 28.7723 270.886 28.6016L271.123 28.4424C271.687 28.0664 272.09 27.4936 272.255 26.8359L272.311 26.6123C272.433 26.1258 272.376 25.6116 272.152 25.1631C272.051 24.9612 271.918 24.7768 271.759 24.6172L271.719 24.5771C271.259 24.1171 270.634 23.8584 269.983 23.8584H264.612Z" fill="#00247D"/>
<path d="M193.786 34.8584H191.5C190.672 34.8584 190 35.53 190 36.3584V36.5333C190 37.4047 190.203 38.2642 190.593 39.0436C190.862 39.5833 191.217 40.0759 191.644 40.5025L192.5 41.3584C193.154 42.0127 193.983 42.4791 194.881 42.7036C195.289 42.8058 195.713 42.8584 196.134 42.8584H200.41C201.134 42.8584 201.855 42.7696 202.557 42.5941C203.184 42.4374 203.791 42.2127 204.369 41.9238L205.047 41.5848C205.348 41.4342 205.636 41.2567 205.905 41.0546C206.937 40.2808 207.671 39.1754 207.984 37.9243L208 37.8584C208.325 36.5582 208.232 35.1886 207.734 33.9443L207.541 33.4616C207.514 33.3929 207.481 33.3265 207.443 33.2631L207.385 33.1673C206.487 31.6694 205.122 30.5072 203.5 29.8584L201.5 28.8584L200.084 28.1504C199.697 27.957 199.344 27.7025 199.038 27.3967L198.426 26.784C198.153 26.5115 198 26.1419 198 25.7565C198 25.2061 198.311 24.7029 198.803 24.4568L199.447 24.1348C199.811 23.953 200.212 23.8584 200.618 23.8584H202.653C203.195 23.8584 203.716 24.074 204.099 24.4577C204.361 24.7199 204.548 25.0484 204.637 25.4082L204.826 26.1628C204.928 26.5716 205.296 26.8584 205.717 26.8584H208.382C209.276 26.8584 210 26.134 210 25.2404C210 24.9892 209.942 24.7414 209.829 24.5168L209.5 23.8584L208.886 22.8352C208.304 21.8656 207.493 21.0541 206.523 20.4723L205.989 20.1518C205.665 19.9576 205.311 19.8206 204.941 19.7466C203.65 19.4884 202.337 19.3584 201.021 19.3584H201H199.803C198.942 19.3584 198.089 19.5227 197.29 19.8425C196.439 20.1829 195.666 20.6926 195.018 21.3407L194.883 21.4753C194.298 22.0602 193.811 22.7356 193.442 23.4754L192.987 24.3843C192.667 25.0249 192.5 25.7313 192.5 26.4475C192.5 27.671 192.986 28.8444 193.851 29.7096L194.899 30.7576C194.966 30.8245 195.041 30.883 195.122 30.9318L197.5 32.3584L201 33.8584L202.002 34.2592C202.907 34.6211 203.5 35.4973 203.5 36.4717V36.5227C203.5 36.745 203.464 36.9659 203.394 37.1769C203.152 37.9038 202.527 38.4372 201.771 38.5632L200.363 38.798C200.121 38.8382 199.877 38.8584 199.632 38.8584H198.435C198.146 38.8584 197.858 38.8229 197.578 38.7528L197.434 38.7168C196.524 38.4893 195.759 37.8756 195.339 37.0368L195.128 36.6146C195.044 36.4461 195 36.2603 195 36.0719C195 35.4017 194.457 34.8584 193.786 34.8584Z" fill="#00247D"/>
<path d="M171.316 20.1258L166.295 41.1258C166.144 41.7544 166.621 42.3584 167.267 42.3584H170.192C170.663 42.3584 171.071 42.029 171.169 41.5679L173.888 28.8808C173.953 28.5761 174.223 28.3584 174.534 28.3584C174.814 28.3584 175.063 28.534 175.157 28.797L179.763 41.6947C179.905 42.0927 180.282 42.3584 180.705 42.3584H184.194C184.664 42.3584 185.071 42.0305 185.171 41.5708L189.736 20.5708C189.872 19.9475 189.397 19.3584 188.759 19.3584H186.781C186.322 19.3584 185.922 19.6707 185.811 20.1159L182.629 32.8404C182.553 33.1448 182.28 33.3584 181.966 33.3584C181.685 33.3584 181.432 33.1863 181.33 32.9246L176.249 19.9927C176.099 19.6101 175.73 19.3584 175.318 19.3584H172.289C171.826 19.3584 171.424 19.6758 171.316 20.1258Z" fill="#00247D"/>
</svg>
