<svg width="100" height="100" viewBox="0 0 100 100" fill="none" xmlns="http://www.w3.org/2000/svg">
<path d="M45.8332 41.667C55.0379 41.667 62.4998 34.205 62.4998 25.0003C62.4998 15.7955 55.0379 8.33362 45.8332 8.33362C36.6284 8.33362 29.1665 15.7955 29.1665 25.0003C29.1665 34.205 36.6284 41.667 45.8332 41.667Z" stroke="white" stroke-width="5.5"/>
<path d="M70.8335 42.917L76.3877 47.917L87.5002 35.417" stroke="white" stroke-width="5.5" stroke-linecap="round" stroke-linejoin="round"/>
<path d="M79.1584 75.0003C79.1639 74.317 79.1667 73.6225 79.1667 72.917C79.1667 62.5628 64.2417 54.167 45.8333 54.167C27.425 54.167 12.5 62.5628 12.5 72.917C12.5 83.2712 12.5 91.667 45.8333 91.667C55.1292 91.667 61.8333 91.0128 66.6667 89.8462" stroke="white" stroke-width="5.5" stroke-linecap="round"/>
</svg>
