<svg width="100" height="100" viewBox="0 0 100 100" fill="none" xmlns="http://www.w3.org/2000/svg">
<path fill-rule="evenodd" clip-rule="evenodd" d="M49.7627 5.20825H50.2377C59.8585 5.20825 67.396 5.20825 73.2793 5.99992C79.296 6.80825 84.046 8.49992 87.7752 12.2249C91.5043 15.9541 93.1918 20.7041 94.0002 26.7249C94.7918 32.6041 94.7918 40.1416 94.7918 49.7624V50.2374C94.7918 59.8583 94.7918 67.3958 94.0002 73.2791C93.1918 79.2958 91.5002 84.0458 87.7752 87.7749C84.046 91.5041 79.296 93.1916 73.2752 93.9999C67.396 94.7916 59.8585 94.7916 50.2377 94.7916H49.7627C40.1418 94.7916 32.6043 94.7916 26.721 93.9999C20.7043 93.1916 15.9543 91.4999 12.2252 87.7749C8.496 84.0458 6.8085 79.2958 6.00016 73.2749C5.2085 67.3958 5.2085 59.8583 5.2085 50.2374V49.7624C5.2085 40.1416 5.2085 32.6041 6.00016 26.7208C6.8085 20.7041 8.50016 15.9541 12.2252 12.2249C15.9543 8.49575 20.7043 6.80825 26.7252 5.99992C32.6043 5.20825 40.1418 5.20825 49.7627 5.20825ZM27.5543 12.1916C22.2293 12.9083 19.0168 14.2749 16.646 16.6458C14.271 19.0208 12.9085 22.2291 12.1918 27.5583C11.4668 32.9749 11.4585 40.0916 11.4585 49.9999C11.4585 59.9083 11.4668 67.0249 12.1918 72.4416C12.9085 77.7708 14.2752 80.9833 16.646 83.3583C19.021 85.7291 22.2293 87.0916 27.5585 87.8083C32.9752 88.5333 40.0918 88.5416 50.0002 88.5416C59.9085 88.5416 67.0252 88.5333 72.4418 87.8083C77.771 87.0916 80.9835 85.7249 83.3585 83.3541C85.7293 80.9791 87.0918 77.7708 87.8085 72.4416C88.5335 67.0249 88.5418 59.9083 88.5418 49.9999C88.5418 40.0916 88.5335 32.9749 87.8085 27.5583C87.0918 22.2291 85.7252 19.0166 83.3543 16.6416C80.9793 14.2708 77.771 12.9083 72.4418 12.1916C67.0252 11.4666 59.9085 11.4583 50.0002 11.4583C40.0918 11.4583 32.971 11.4666 27.5543 12.1916Z" fill="white"/>
<path fill-rule="evenodd" clip-rule="evenodd" d="M66.8625 30.2083H67.3958C69 30.2083 70.1667 30.2083 71.1875 30.3666C75.2417 31.0041 79.0167 33.6249 80.0375 37.6833C80.2875 38.6833 80.2875 39.7999 80.2875 40.9833V57.4291C80.2875 58.6124 80.2875 59.7291 80.0375 60.7291C79.8625 61.4329 79.5963 62.1108 79.2458 62.7458L81.1042 64.2166C81.4402 64.466 81.7228 64.7803 81.935 65.1409C82.1473 65.5015 82.285 65.9011 82.3399 66.3159C82.3949 66.7308 82.3659 67.1524 82.2548 67.5559C82.1437 67.9593 81.9527 68.3363 81.6931 68.6646C81.4336 68.9928 81.1107 69.2655 80.7437 69.4666C80.3768 69.6677 79.9731 69.7931 79.5568 69.8352C79.1405 69.8774 78.7199 69.8355 78.3201 69.7121C77.9202 69.5886 77.5493 69.3861 77.2292 69.1166L74.5625 67.0124C73.5 67.5124 72.3542 67.8624 71.1875 68.0458C70.1667 68.2041 69 68.2041 67.3958 68.2041H66.8625C65.2583 68.2041 64.0958 68.2041 63.0708 68.0458C59.0208 67.4083 55.2417 64.7916 54.2208 60.7291C53.9708 59.7291 53.9708 58.6124 53.9708 57.4291V40.9833C53.9708 39.7999 53.9708 38.6833 54.2208 37.6833C55.2417 33.6249 59.0208 31.0041 63.0708 30.3666C64.0958 30.2083 65.2583 30.2083 66.8625 30.2083ZM74.025 58.6124L73.0792 57.8666C72.5036 57.4108 71.7859 57.1722 71.052 57.1926C70.3181 57.2131 69.6148 57.4913 69.0656 57.9784C68.5163 58.4656 68.156 59.1306 68.0481 59.8568C67.9401 60.583 68.0912 61.324 68.475 61.9499L67.1292 61.9541C65.1458 61.9541 64.5167 61.9458 64.0458 61.8708C61.7292 61.5041 60.5292 60.1833 60.2833 59.2041C60.2458 59.0624 60.225 58.8041 60.225 57.1416V41.2666C60.225 39.6083 60.2458 39.3499 60.2833 39.2041C60.5333 38.2291 61.7292 36.9083 64.0417 36.5416C64.5167 36.4666 65.1458 36.4583 67.1292 36.4583C69.1125 36.4583 69.7417 36.4666 70.2125 36.5416C72.5292 36.9083 73.7292 38.2291 73.975 39.2083C74.0125 39.3499 74.0333 39.6083 74.0333 41.2708V57.1458C74.0333 57.8583 74.0333 58.3124 74.025 58.6124ZM25 30.2083C25.8288 30.2083 26.6237 30.5375 27.2097 31.1235C27.7958 31.7096 28.125 32.5045 28.125 33.3333V46.8749H41.9375V33.3333C41.9375 32.5045 42.2667 31.7096 42.8528 31.1235C43.4388 30.5375 44.2337 30.2083 45.0625 30.2083C45.8913 30.2083 46.6862 30.5375 47.2722 31.1235C47.8583 31.7096 48.1875 32.5045 48.1875 33.3333V65.0833C48.1875 65.9121 47.8583 66.7069 47.2722 67.293C46.6862 67.879 45.8913 68.2083 45.0625 68.2083C44.2337 68.2083 43.4388 67.879 42.8528 67.293C42.2667 66.7069 41.9375 65.9121 41.9375 65.0833V53.1249H28.125V65.0833C28.125 65.9121 27.7958 66.7069 27.2097 67.293C26.6237 67.879 25.8288 68.2083 25 68.2083C24.1712 68.2083 23.3763 67.879 22.7903 67.293C22.2042 66.7069 21.875 65.9121 21.875 65.0833V33.3333C21.875 32.5045 22.2042 31.7096 22.7903 31.1235C23.3763 30.5375 24.1712 30.2083 25 30.2083Z" fill="white"/>
</svg>
