<svg width="117" height="120" viewBox="0 0 117 120" fill="none" xmlns="http://www.w3.org/2000/svg">
<path d="M80.3247 62.64C90.324 62.64 98.4722 53.505 98.4722 42.39C98.4722 31.4014 90.3658 22.6971 80.3247 22.6971C70.3671 22.6971 62.1751 31.53 62.1751 42.4757C62.2168 53.5479 70.3671 62.64 80.3247 62.64ZM31.9285 63.5871C40.5823 63.5871 47.6817 55.6157 47.6817 45.8357C47.6817 36.27 40.6659 28.5579 31.9285 28.5579C23.2746 28.5579 16.1335 36.4007 16.1752 45.9214C16.217 55.6607 23.2746 63.5871 31.9285 63.5871ZM80.3247 56.1343C74.1905 56.1343 68.9381 50.1021 68.9381 42.4757C68.9381 34.9757 74.107 29.205 80.3247 29.205C86.5842 29.205 91.7092 34.8921 91.7092 42.3879C91.7092 50.0164 86.5424 56.1343 80.3247 56.1343ZM31.9285 57.1671C26.8034 57.1671 22.4347 52.1271 22.4347 45.9214C22.4347 39.8464 26.7596 34.9779 31.9285 34.9779C37.2206 34.9779 41.464 39.7607 41.464 45.8357C41.464 52.1271 37.0953 57.1671 31.9285 57.1671ZM8.57025 103.099H41.5496C39.5314 101.936 37.9769 99.3493 38.2715 96.7222H7.52143C6.68154 96.7222 6.26159 96.3793 6.26159 95.5586C6.26159 84.8743 18.1496 74.8779 31.8888 74.8779C37.1809 74.8779 41.9278 76.17 46.004 78.6257C47.3561 76.87 48.956 75.3309 50.7508 74.0593C45.3312 70.395 38.821 68.5007 31.8888 68.5007C14.2844 68.5007 0 81.5979 0 95.9464C0 100.729 2.85605 103.099 8.57025 103.099ZM53.9412 103.099H106.708C113.68 103.099 117 100.946 117 96.2057C117 84.9171 103.094 68.5843 80.3247 68.5843C57.5118 68.5843 43.6076 84.9171 43.6076 96.2057C43.6076 100.946 46.9254 103.099 53.9412 103.099ZM51.925 96.5936C50.8323 96.5936 50.3706 96.2936 50.3706 95.3872C50.3706 88.32 61.0406 75.0943 80.3247 75.0943C99.567 75.0943 110.235 88.32 110.235 95.3872C110.235 96.2914 109.817 96.5936 108.722 96.5936H51.925Z" fill="white"/>
</svg>
