<svg width="100" height="100" viewBox="0 0 100 100" fill="none" xmlns="http://www.w3.org/2000/svg">
<path d="M29.167 91.6669H70.8337" stroke="white" stroke-width="5" stroke-linecap="round" stroke-linejoin="round"/>
<path d="M8.3335 70.8335V16.6668C8.3335 14.4567 9.21147 12.3371 10.7743 10.7743C12.3371 9.21147 14.4567 8.3335 16.6668 8.3335H83.3335C85.5436 8.3335 87.6633 9.21147 89.2261 10.7743C90.7889 12.3371 91.6668 14.4567 91.6668 16.6668V70.8335C91.6668 73.0436 90.7889 75.1633 89.2261 76.7261C87.6633 78.2889 85.5436 79.1668 83.3335 79.1668H16.6668C14.4567 79.1668 12.3371 78.2889 10.7743 76.7261C9.21147 75.1633 8.3335 73.0436 8.3335 70.8335Z" stroke="white" stroke-width="5"/>
<path d="M37.5 43.7502L45.8333 52.0835L62.5 35.4169" stroke="white" stroke-width="5" stroke-linecap="round" stroke-linejoin="round"/>
</svg>
