<svg width="100" height="100" viewBox="0 0 100 100" fill="none" xmlns="http://www.w3.org/2000/svg">
<path d="M91.6668 50C91.6668 26.9875 73.0127 8.33337 50.0002 8.33337C26.9877 8.33337 8.3335 26.9875 8.3335 50C8.3335 73.0125 26.9877 91.6667 50.0002 91.6667" stroke="white" stroke-width="5" stroke-linecap="round" stroke-linejoin="round"/>
<path d="M54.1668 8.54175C54.1668 8.54175 66.6668 25.0001 66.6668 50.0001M45.8335 91.4584C45.8335 91.4584 33.3335 75.0001 33.3335 50.0001C33.3335 25.0001 45.8335 8.54175 45.8335 8.54175M10.9585 64.5834H50.0002M10.9585 35.4167H89.0418" stroke="white" stroke-width="5" stroke-linecap="round" stroke-linejoin="round"/>
<path d="M91.1623 74.6542C93.2207 75.9208 93.0915 79 90.9748 79.2417L80.279 80.4542L75.4832 90.0875C74.5332 92 71.5957 91.0625 71.1082 88.6959L65.879 63.2125C65.4665 61.2125 67.2665 59.9542 69.004 61.025L91.1623 74.6542Z" stroke="white" stroke-width="5"/>
</svg>
