<svg width="100" height="100" viewBox="0 0 100 100" fill="none" xmlns="http://www.w3.org/2000/svg">
<path d="M45.8622 87.5003H40.0205C25.083 87.5003 17.6163 87.5003 12.9747 82.7712C8.33301 78.042 8.33301 70.4295 8.33301 55.2087C8.33301 39.9878 8.33301 32.3753 12.9747 27.6462C17.6163 22.917 25.083 22.917 40.0205 22.917H55.8663C70.8038 22.917 78.2747 22.917 82.9163 27.6462C86.4872 31.2837 87.308 36.6295 87.4997 45.8337" stroke="white" stroke-width="5" stroke-linecap="round" stroke-linejoin="round"/>
<path d="M66.666 22.917L66.2493 21.6253C64.1868 15.2086 63.1577 12.0003 60.7035 10.167C58.2452 8.33362 54.9868 8.33362 48.4577 8.33362H47.3618C40.841 8.33362 37.5785 8.33362 35.1244 10.167C32.666 12.0003 31.6368 15.2086 29.5743 21.6253L29.166 22.917M71.2952 55.2295C72.066 54.5211 72.4493 54.1669 72.916 54.1669C73.3827 54.1669 73.766 54.5211 74.5368 55.2295L77.5077 57.9669C77.866 58.2961 78.0452 58.4628 78.266 58.542C78.491 58.6253 78.7327 58.6169 79.2243 58.5961L83.2327 58.4378C84.266 58.3961 84.7827 58.3794 85.1368 58.6753C85.491 58.9711 85.5619 59.4836 85.6994 60.5086L86.2493 64.617C86.316 65.092 86.3452 65.3253 86.4618 65.5336C86.5785 65.7336 86.766 65.8794 87.141 66.1753L90.3743 68.717C91.1743 69.3503 91.5743 69.6628 91.6535 70.1128C91.7327 70.5628 91.4618 70.9961 90.9285 71.8628L88.7369 75.3919C88.4869 75.7961 88.3618 76.0003 88.3202 76.2253C88.2785 76.4503 88.3285 76.6878 88.4285 77.1544L89.2993 81.2295C89.5077 82.2295 89.616 82.7294 89.3868 83.1294C89.1577 83.5294 88.6702 83.6878 87.6993 84.0044L83.841 85.2586C83.3827 85.4086 83.1493 85.4836 82.9702 85.6336C82.791 85.7878 82.6785 86.0044 82.4577 86.4336L80.5743 90.0628C80.0952 90.9919 79.8535 91.4544 79.416 91.6128C78.9785 91.7711 78.4993 91.5711 77.5327 91.1711L73.8327 89.6378C73.3785 89.4503 73.1535 89.3544 72.916 89.3544C72.6785 89.3544 72.4535 89.4503 71.9994 89.6378L68.2993 91.1711C67.3327 91.5711 66.8535 91.7711 66.416 91.6128C65.9785 91.4544 65.7368 90.9878 65.2577 90.0628L63.3743 86.4336C63.1493 86.0044 63.041 85.7878 62.8618 85.6378C62.6827 85.4878 62.4493 85.4086 61.991 85.2628L58.1327 84.0044C57.1618 83.6878 56.6743 83.5294 56.4452 83.1294C56.216 82.7294 56.3202 82.2336 56.5327 81.2295L57.4077 77.1544C57.5035 76.6878 57.5535 76.4544 57.5118 76.2294C57.4264 75.928 57.2851 75.6453 57.0952 75.3961L54.9077 71.8628C54.366 70.9961 54.0993 70.5628 54.1785 70.1128C54.2577 69.6628 54.6577 69.3503 55.4577 68.7211L58.691 66.1795C59.066 65.8795 59.2535 65.7336 59.3702 65.5295C59.4868 65.3253 59.516 65.0919 59.5785 64.6128L60.1327 60.5086C60.2702 59.4878 60.341 58.9711 60.6952 58.6753C61.0493 58.3794 61.566 58.3961 62.5993 58.4378L66.6118 58.5961C67.0993 58.6169 67.341 58.6253 67.566 58.542C67.7868 58.4586 67.966 58.2961 68.3244 57.9669L71.2952 55.2295Z" stroke="white" stroke-width="5" stroke-linecap="round" stroke-linejoin="round"/>
</svg>
