<svg width="35" height="35" viewBox="0 0 35 35" fill="none" xmlns="http://www.w3.org/2000/svg">
<path d="M18.6475 8.46867C18.8474 8.55146 19.0182 8.69167 19.1384 8.87156C19.2586 9.05146 19.3227 9.26295 19.3227 9.4793V15.3126C19.3227 15.6027 19.2075 15.8809 19.0023 16.086C18.7972 16.2911 18.519 16.4064 18.2289 16.4064C17.9389 16.4064 17.6607 16.2911 17.4555 16.086C17.2504 15.8809 17.1352 15.6027 17.1352 15.3126V12.1189L16.8144 12.4397C16.7142 12.5472 16.5935 12.6334 16.4593 12.6931C16.3251 12.7529 16.1803 12.7851 16.0335 12.7877C15.8866 12.7903 15.7407 12.7632 15.6045 12.7082C15.4683 12.6532 15.3446 12.5713 15.2408 12.4675C15.1369 12.3636 15.055 12.2399 15 12.1037C14.945 11.9675 14.918 11.8216 14.9206 11.6748C14.9232 11.5279 14.9553 11.3831 15.0151 11.2489C15.0749 11.1148 15.1611 10.994 15.2685 10.8939L17.456 8.70638C17.6089 8.55341 17.8036 8.44919 18.0157 8.40688C18.2278 8.36457 18.4476 8.38608 18.6475 8.46867Z" fill="#314385"/>
<path fill-rule="evenodd" clip-rule="evenodd" d="M10.9344 2.34331C13.1045 1.98672 15.3007 1.81257 17.4998 1.82268C20.1657 1.82268 22.3692 2.05747 24.0653 2.34331L24.2621 2.37685C25.735 2.62331 26.9601 2.82893 27.9167 4.00727C28.5307 4.76414 28.729 5.58227 28.7742 6.49372L29.4917 6.73289C30.1669 6.95747 30.7605 7.15581 31.2286 7.37456C31.7361 7.61081 32.2013 7.91414 32.5571 8.40851C32.913 8.90289 33.0544 9.43956 33.1186 9.99518C33.1769 10.51 33.1769 11.1327 33.1769 11.8473V12.0573C33.1769 12.6435 33.1769 13.1612 33.1332 13.5943C33.0865 14.0625 32.983 14.5189 32.7248 14.9593C32.4638 15.4012 32.1153 15.7133 31.7288 15.9816C31.3715 16.2296 30.9194 16.4818 30.4061 16.7662L26.5561 18.9056C25.7686 20.4529 24.6894 21.8325 23.2019 22.8285C21.9259 23.6846 20.399 24.2271 18.5936 24.3816V27.3435H20.679C21.269 27.3435 21.8408 27.548 22.2971 27.9221C22.7533 28.2962 23.0659 28.8168 23.1815 29.3954L23.5009 30.9894H26.2498C26.5399 30.9894 26.8181 31.1046 27.0232 31.3097C27.2284 31.5148 27.3436 31.793 27.3436 32.0831C27.3436 32.3732 27.2284 32.6514 27.0232 32.8565C26.8181 33.0616 26.5399 33.1769 26.2498 33.1769H8.74984C8.45976 33.1769 8.18156 33.0616 7.97644 32.8565C7.77132 32.6514 7.65609 32.3732 7.65609 32.0831C7.65609 31.793 7.77132 31.5148 7.97644 31.3097C8.18156 31.1046 8.45976 30.9894 8.74984 30.9894H11.4988L11.8182 29.3954C11.9338 28.8168 12.2464 28.2962 12.7026 27.9221C13.1589 27.548 13.7307 27.3435 14.3207 27.3435H16.4061V24.3816C14.6007 24.2271 13.0738 23.6846 11.7978 22.83C10.3117 21.8325 9.23109 20.4529 8.44359 18.9056L4.59359 16.7662C4.1404 16.526 3.69899 16.2642 3.27088 15.9816C2.86701 15.7202 2.52709 15.3713 2.2763 14.9608C2.03888 14.5418 1.89882 14.0748 1.8665 13.5943C1.82275 13.1612 1.82275 12.6435 1.82275 12.0573V11.8458C1.82275 11.1341 1.82275 10.51 1.88109 9.99518C1.94525 9.43956 2.08525 8.90143 2.44255 8.40851C2.79838 7.91414 3.26359 7.61081 3.76963 7.3731C4.24067 7.15435 4.83275 6.95747 5.50796 6.73289L6.22546 6.49372C6.27067 5.58081 6.469 4.76414 7.08296 4.00727C8.04109 2.82747 9.26463 2.62185 10.739 2.37685L10.9344 2.34331ZM13.73 30.9894H21.2696L21.0363 29.8241C21.0198 29.7415 20.9752 29.6672 20.91 29.6137C20.8449 29.5603 20.7633 29.5311 20.679 29.531H14.3207C14.2364 29.5311 14.1548 29.5603 14.0896 29.6137C14.0245 29.6672 13.9799 29.7415 13.9634 29.8241L13.73 30.9894ZM6.27359 8.78331C6.37859 11 6.62796 13.45 7.25213 15.7396L5.69755 14.8777C5.13025 14.5612 4.77442 14.3629 4.51775 14.185C4.2815 14.0202 4.20421 13.9225 4.16192 13.8496C4.11817 13.7766 4.0715 13.6629 4.04234 13.3771C4.01219 12.9217 4.00149 12.4654 4.01025 12.0091V11.9027C4.01025 11.1166 4.01171 10.6193 4.054 10.2431C4.09484 9.89602 4.159 9.76622 4.21734 9.68747C4.27421 9.60726 4.3763 9.50518 4.69275 9.35789C5.03692 9.19747 5.50942 9.03852 6.25317 8.78914L6.27359 8.78331ZM27.7476 15.7396L29.3021 14.8777C29.8694 14.5612 30.2253 14.3629 30.4819 14.185C30.7182 14.0202 30.7955 13.9225 30.8378 13.8496C30.8815 13.7766 30.9282 13.6629 30.9573 13.3771C30.988 13.065 30.9894 12.6581 30.9894 12.0091V11.9027C30.9894 11.1166 30.988 10.6193 30.9457 10.2431C30.9048 9.89602 30.8407 9.76622 30.7823 9.68747C30.7255 9.60726 30.6234 9.50518 30.3069 9.35789C29.9628 9.19747 29.4903 9.03852 28.7465 8.78914L28.7261 8.78331C28.6226 11 28.3703 13.45 27.7476 15.7396ZM17.4998 4.01018C14.9623 4.01018 12.8813 4.23331 11.299 4.50018C9.5388 4.79768 9.16984 4.90852 8.78192 5.38685C8.39984 5.85643 8.36338 6.30268 8.44067 8.27872C8.57192 11.5716 9.00651 15.1271 10.3511 17.8308C11.0161 19.1637 11.8853 20.2546 13.0169 21.0129C14.1398 21.7668 15.5909 22.2393 17.4998 22.2393C19.4103 22.2393 20.8598 21.7668 21.9842 21.0129C23.1159 20.2546 23.9836 19.1637 24.6471 17.8293C25.9932 15.1271 26.4278 11.5731 26.5576 8.27727C26.6378 6.30268 26.6013 5.85643 26.2192 5.38685C25.8313 4.90852 25.4609 4.79768 23.7007 4.50018C21.651 4.16464 19.5768 4.00074 17.4998 4.01018Z" fill="#314385"/>
</svg>
