<svg width="224" height="224" viewBox="0 0 224 224" fill="none" xmlns="http://www.w3.org/2000/svg">
<path d="M112 2.98663C112 1.33716 113.337 -0.00416565 114.986 0.0398102C130.047 0.441498 144.882 3.87813 158.601 10.1552C173.225 16.8469 186.237 26.6096 196.751 38.7794C207.265 50.9492 215.035 65.2406 219.532 80.6816C224.029 96.1227 225.148 112.351 222.813 128.263C220.478 144.175 214.743 159.398 205.999 172.896C197.254 186.393 185.706 197.849 172.138 206.485C158.571 215.12 143.302 220.733 127.372 222.94C112.428 225.011 97.2309 224.04 82.69 220.097C81.0981 219.665 80.2024 217.996 80.6764 216.416C81.1503 214.836 82.8144 213.944 84.407 214.373C98.1257 218.071 112.458 218.976 126.552 217.023C141.633 214.934 156.087 209.621 168.931 201.446C181.775 193.271 192.707 182.426 200.985 169.648C209.263 156.87 214.692 142.459 216.903 127.396C219.114 112.332 218.054 96.9695 213.797 82.3519C209.54 67.7344 202.184 54.2052 192.231 42.6844C182.278 31.1637 169.96 21.9217 156.116 15.5869C143.177 9.66669 129.189 6.4155 114.986 6.01534C113.337 5.96887 112 4.63611 112 2.98663Z" fill="#E3ECFE"/>
</svg>
