<svg width="57" height="57" viewBox="0 0 57 57" fill="none" xmlns="http://www.w3.org/2000/svg">
<path d="M47.5 4.75H23.75C21.8603 4.75 20.0481 5.50067 18.7119 6.83686C17.3757 8.17306 16.625 9.98533 16.625 11.875V28.5C16.625 30.3897 17.3757 32.2019 18.7119 33.5381C20.0481 34.8743 21.8603 35.625 23.75 35.625H47.5C49.3897 35.625 51.2019 34.8743 52.5381 33.5381C53.8743 32.2019 54.625 30.3897 54.625 28.5V11.875C54.625 9.98533 53.8743 8.17306 52.5381 6.83686C51.2019 5.50067 49.3897 4.75 47.5 4.75ZM49.875 28.5C49.875 29.1299 49.6248 29.734 49.1794 30.1794C48.734 30.6248 48.1299 30.875 47.5 30.875H23.75C23.1201 30.875 22.516 30.6248 22.0706 30.1794C21.6252 29.734 21.375 29.1299 21.375 28.5V11.875C21.375 11.2451 21.6252 10.641 22.0706 10.1956C22.516 9.75022 23.1201 9.5 23.75 9.5H47.5C48.1299 9.5 48.734 9.75022 49.1794 10.1956C49.6248 10.641 49.875 11.2451 49.875 11.875V28.5ZM41.5625 19C40.6837 19.0052 39.8378 19.3351 39.1875 19.9263C38.6768 19.4621 38.0423 19.1562 37.361 19.0458C36.6797 18.9355 35.9811 19.0254 35.35 19.3046C34.7188 19.5838 34.1824 20.0404 33.8059 20.6187C33.4293 21.1971 33.2288 21.8724 33.2288 22.5625C33.2288 23.2526 33.4293 23.9279 33.8059 24.5063C34.1824 25.0846 34.7188 25.5412 35.35 25.8204C35.9811 26.0996 36.6797 26.1895 37.361 26.0792C38.0423 25.9688 38.6768 25.6629 39.1875 25.1987C39.6164 25.5886 40.1339 25.8678 40.6952 26.0124C41.2564 26.1569 41.8444 26.1623 42.4083 26.0282C42.9721 25.894 43.4947 25.6243 43.9307 25.2425C44.3667 24.8607 44.7029 24.3782 44.9103 23.837C45.1176 23.2958 45.1898 22.7122 45.1206 22.1368C45.0513 21.5614 44.8428 21.0116 44.5129 20.535C44.1831 20.0585 43.742 19.6696 43.2278 19.4021C42.7137 19.1346 42.1421 18.9966 41.5625 19ZM38 40.375C37.3701 40.375 36.766 40.6252 36.3206 41.0706C35.8752 41.516 35.625 42.1201 35.625 42.75V45.125C35.625 45.7549 35.3748 46.359 34.9294 46.8044C34.484 47.2498 33.8799 47.5 33.25 47.5H9.5C8.87011 47.5 8.26602 47.2498 7.82062 46.8044C7.37522 46.359 7.125 45.7549 7.125 45.125V35.625H9.5C10.1299 35.625 10.734 35.3748 11.1794 34.9294C11.6248 34.484 11.875 33.8799 11.875 33.25C11.875 32.6201 11.6248 32.016 11.1794 31.5706C10.734 31.1252 10.1299 30.875 9.5 30.875H7.125V28.5C7.125 27.8701 7.37522 27.266 7.82062 26.8206C8.26602 26.3752 8.87011 26.125 9.5 26.125C10.1299 26.125 10.734 25.8748 11.1794 25.4294C11.6248 24.984 11.875 24.3799 11.875 23.75C11.875 23.1201 11.6248 22.516 11.1794 22.0706C10.734 21.6252 10.1299 21.375 9.5 21.375C7.61033 21.375 5.79806 22.1257 4.46186 23.4619C3.12567 24.7981 2.375 26.6103 2.375 28.5V45.125C2.375 47.0147 3.12567 48.8269 4.46186 50.1631C5.79806 51.4993 7.61033 52.25 9.5 52.25H33.25C35.1397 52.25 36.9519 51.4993 38.2881 50.1631C39.6243 48.8269 40.375 47.0147 40.375 45.125V42.75C40.375 42.1201 40.1248 41.516 39.6794 41.0706C39.234 40.6252 38.6299 40.375 38 40.375ZM14.25 42.75H16.625C17.2549 42.75 17.859 42.4998 18.3044 42.0544C18.7498 41.609 19 41.0049 19 40.375C19 39.7451 18.7498 39.141 18.3044 38.6956C17.859 38.2502 17.2549 38 16.625 38H14.25C13.6201 38 13.016 38.2502 12.5706 38.6956C12.1252 39.141 11.875 39.7451 11.875 40.375C11.875 41.0049 12.1252 41.609 12.5706 42.0544C13.016 42.4998 13.6201 42.75 14.25 42.75Z" fill="#314385"/>
</svg>
