<svg width="52" height="48" viewBox="0 0 52 48" fill="none" xmlns="http://www.w3.org/2000/svg">
<path d="M25.7084 42.6668C25.8639 42.6668 26.0195 42.6279 26.1751 42.5501C26.3306 42.4723 26.4473 42.3945 26.5251 42.3168L45.6584 23.1834C46.1251 22.7167 46.4657 22.1917 46.6804 21.6084C46.8951 21.0251 47.0016 20.4417 47.0001 19.8584C47.0001 19.2362 46.8935 18.6427 46.6804 18.0781C46.4673 17.5134 46.1266 17.018 45.6584 16.5917L35.7417 6.67508C35.3139 6.20841 34.8177 5.86853 34.2531 5.65542C33.6884 5.4423 33.0965 5.33497 32.4774 5.33342C31.8941 5.33342 31.3107 5.44075 30.7274 5.65542C30.1441 5.87008 29.6191 6.20997 29.1524 6.67508L28.5107 7.31675L32.8274 11.6917C33.4107 12.2362 33.8385 12.8584 34.1107 13.5584C34.3829 14.2584 34.5191 14.9973 34.5191 15.7751C34.5191 17.4084 33.9653 18.7796 32.8577 19.8888C31.7502 20.9979 30.3789 21.5516 28.7441 21.5501C27.9663 21.5501 27.2181 21.414 26.4994 21.1417C25.7807 20.8695 25.1484 20.4612 24.6024 19.9167L20.2251 15.6001L10.0167 25.8084C9.90006 25.9251 9.81295 26.0519 9.75539 26.1887C9.69784 26.3256 9.66828 26.4711 9.66673 26.6251C9.66673 26.9362 9.78339 27.2185 10.0167 27.4721C10.2501 27.7256 10.5223 27.8516 10.8334 27.8501C10.9889 27.8501 11.1445 27.8112 11.3001 27.7334C11.4556 27.6556 11.5723 27.5779 11.6501 27.5001L19.5834 19.5667L22.8501 22.8334L14.9751 30.7667C14.8584 30.8834 14.7713 31.0102 14.7137 31.1471C14.6562 31.284 14.6266 31.4294 14.6251 31.5834C14.6251 31.8945 14.7417 32.1668 14.9751 32.4001C15.2084 32.6334 15.4806 32.7501 15.7917 32.7501C15.9473 32.7501 16.1028 32.7112 16.2584 32.6334C16.4139 32.5556 16.5306 32.4779 16.6084 32.4001L24.5417 24.5251L27.8084 27.7917L19.9334 35.7251C19.8167 35.8029 19.7296 35.9195 19.6721 36.0751C19.6145 36.2306 19.5849 36.3862 19.5834 36.5418C19.5834 36.8529 19.7001 37.1251 19.9334 37.3584C20.1667 37.5918 20.4389 37.7084 20.7501 37.7084C20.9056 37.7084 21.0518 37.6789 21.1887 37.6198C21.3256 37.5606 21.4516 37.4735 21.5667 37.3584L29.5001 29.4834L32.7667 32.7501L24.8334 40.6834C24.7167 40.8001 24.6296 40.9261 24.5721 41.0614C24.5145 41.1968 24.4849 41.343 24.4834 41.5001C24.4834 41.8112 24.6102 42.0834 24.8637 42.3168C25.1173 42.5501 25.3988 42.6668 25.7084 42.6668ZM25.6501 47.3334C24.2112 47.3334 22.9379 46.8574 21.8304 45.9054C20.7228 44.9534 20.0711 43.7572 19.8751 42.3168C18.5528 42.1223 17.4445 41.5779 16.5501 40.6834C15.6556 39.789 15.1112 38.6806 14.9167 37.3584C13.5945 37.164 12.4963 36.6102 11.6221 35.6971C10.7478 34.784 10.2127 33.685 10.0167 32.4001C8.53895 32.2056 7.33339 31.564 6.40006 30.4751C5.46672 29.3862 5.00006 28.1029 5.00006 26.6251C5.00006 25.8473 5.14628 25.0991 5.43872 24.3804C5.73117 23.6618 6.14884 23.0294 6.69172 22.4834L20.2251 9.00842L27.8667 16.6501C27.9445 16.7668 28.0612 16.8546 28.2167 16.9137C28.3723 16.9729 28.5278 17.0016 28.6834 17.0001C29.0334 17.0001 29.3251 16.8935 29.5584 16.6804C29.7917 16.4673 29.9084 16.185 29.9084 15.8334C29.9084 15.6779 29.8788 15.5223 29.8197 15.3667C29.7606 15.2112 29.6735 15.0945 29.5584 15.0167L21.2167 6.67508C20.7889 6.20841 20.2935 5.86853 19.7304 5.65542C19.1673 5.4423 18.5738 5.33497 17.9501 5.33342C17.3667 5.33342 16.7834 5.44075 16.2001 5.65542C15.6167 5.87008 15.0917 6.20997 14.6251 6.67508L6.40006 14.9584C6.05006 15.3084 5.75839 15.7167 5.52506 16.1834C5.29172 16.6501 5.13617 17.1167 5.05839 17.5834C4.98061 18.0501 4.98061 18.5269 5.05839 19.0137C5.13617 19.5006 5.29172 19.9572 5.52506 20.3834L2.14173 23.7667C1.48061 22.8723 0.994503 21.8907 0.683392 20.8221C0.372281 19.7534 0.255614 18.6739 0.333392 17.5834C0.41117 16.493 0.683392 15.4336 1.15006 14.4054C1.61673 13.3772 2.25839 12.4532 3.07506 11.6334L11.3001 3.40841C12.2334 2.51397 13.2741 1.83341 14.4221 1.36675C15.5701 0.900081 16.7461 0.666748 17.9501 0.666748C19.1541 0.666748 20.3308 0.900081 21.4804 1.36675C22.6299 1.83341 23.6504 2.51397 24.5417 3.40841L25.1834 4.05008L25.8251 3.40841C26.7584 2.51397 27.7991 1.83341 28.9471 1.36675C30.0951 0.900081 31.2711 0.666748 32.4751 0.666748C33.6791 0.666748 34.8558 0.900081 36.0054 1.36675C37.1549 1.83341 38.1754 2.51397 39.0667 3.40841L48.9251 13.2667C49.8195 14.1612 50.5001 15.1917 50.9667 16.3584C51.4334 17.5251 51.6667 18.7112 51.6667 19.9167C51.6667 21.1223 51.4334 22.2991 50.9667 23.4471C50.5001 24.5951 49.8195 25.6155 48.9251 26.5084L29.7917 45.5834C29.2473 46.1279 28.6157 46.5556 27.8971 46.8667C27.1784 47.1779 26.4294 47.3334 25.6501 47.3334Z" fill="#314385"/>
</svg>
